<svg width="217" height="104" viewBox="0 0 217 104" fill="none" xmlns="http://www.w3.org/2000/svg">
<path d="M118.316 15.8398H120.487L126.605 9.82039L127 7.29612C122.263 3.02427 115.75 0.5 108.645 0.5C96.0132 0.5 85.1579 9.04369 82 20.5C82.5921 20.1116 84.1711 20.3058 84.1711 20.3058L96.4079 18.3641C96.4079 18.3641 97 17.3932 97.3947 17.3932C102.921 11.568 112 10.9854 118.316 15.8398Z" fill="#EA4535"/>
<path d="M134.492 20.67C132.909 15.6344 130.139 10.9862 125.984 7.5L117.278 16.0217C121.037 18.9269 123.016 23.1877 123.016 27.836V29.3854C127.171 29.3854 130.733 32.6779 130.733 36.9387C130.733 41.0059 127.369 44.2984 123.016 44.2984H107.583L106 45.8478V54.9506L107.583 56.5H123.016C134.096 56.5 143 47.7846 143 36.9387C143 30.3538 139.636 24.3498 134.294 20.8636L134.492 20.67Z" fill="#557EBF"/>
<path d="M93.8489 56.5H109V45.0538H93.8489C92.6834 45.0538 91.7122 44.8692 90.741 44.5L88.6043 45.0538L82.5827 50.7769L82 52.6231C85.3022 55.2077 89.5755 56.5 93.8489 56.5Z" fill="#36A852"/>
<path d="M93.5304 17.5C82.7017 17.5 74 25.9066 74 36.3681C74 42.3461 76.9006 47.9505 81.7348 51.5L90.4365 43.0934C87.7293 41.7857 85.989 39.3571 85.989 36.3681C85.989 32.4451 89.2762 29.0824 93.5304 29.0824C96.4309 29.2692 99.1381 30.9505 100.298 33.3791L109 24.9725C105.519 20.489 99.7182 17.5 93.5304 17.5V17.5Z" fill="#F9BC15"/>
<path d="M15.1803 94.53C11.0933 94.53 7.59013 92.97 4.47623 90.045C1.36233 87.12 0 83.805 0 79.515C0 75.225 1.55695 71.91 4.47623 68.985C7.39551 66.06 11.0933 64.5 15.1803 64.5C18.878 64.695 22.5758 66.06 25.3004 68.79L22.3812 71.715C20.435 69.765 17.9049 68.79 14.9856 68.79C12.0664 68.79 9.53632 69.765 7.39551 71.91C5.44933 73.86 4.28161 76.785 4.47623 79.515C4.47623 82.44 5.44933 85.17 7.59013 87.12C9.53632 89.46 12.261 90.435 14.9856 90.435C18.0996 90.435 20.435 89.46 22.5758 87.51C23.7435 86.34 24.522 84.585 24.7166 82.44H15.1803V78.345H28.8036C28.9982 79.125 28.9982 79.905 28.9982 80.88C28.9982 84.975 27.8305 88.095 25.4951 90.435C22.7704 93.165 19.4619 94.725 15.1803 94.725V94.53ZM47.0978 91.8C45.1516 93.555 43.0108 94.53 40.2861 94.53C37.5614 94.53 35.226 93.555 33.4744 91.8C31.7229 90.045 30.7498 87.705 30.7498 84.975C30.7498 82.245 31.7229 79.905 33.4744 78.15C35.226 76.395 37.5614 75.42 40.2861 75.42C43.0108 75.42 45.3462 76.395 47.0978 78.15C48.8493 79.905 49.8224 82.245 49.8224 84.975C49.8224 87.705 48.8493 90.045 47.0978 91.8ZM36.3937 89.07C37.3668 90.24 38.7291 90.825 40.0915 90.825C41.6484 90.825 42.8161 90.24 43.9839 89.07C45.1516 87.9 45.5408 86.535 45.5408 84.975C45.5408 83.22 44.957 81.855 43.9839 80.685C43.0108 79.515 41.6484 79.125 40.0915 79.125C38.7291 79.125 37.1722 79.71 36.1991 80.685C35.226 81.855 34.6422 83.22 34.6422 84.975C34.6422 86.73 35.226 88.095 36.1991 89.07H36.3937ZM68.1166 91.8C66.1704 93.555 64.0296 94.53 61.3049 94.53C58.5803 94.53 56.2448 93.555 54.4933 91.8C52.7417 90.045 51.7686 87.705 51.7686 84.975C51.7686 82.245 52.7417 79.905 54.4933 78.15C56.2448 76.395 58.5803 75.42 61.3049 75.42C64.0296 75.42 66.365 76.395 68.1166 78.15C69.8682 79.905 70.8413 82.245 70.8413 84.975C70.8413 87.705 69.8682 90.045 68.1166 91.8ZM57.4126 89.07C58.3856 90.24 59.748 90.825 61.1103 90.825C62.6673 90.825 63.835 90.24 65.0027 89.07C66.1704 87.9 66.5596 86.535 66.5596 84.975C66.5596 83.22 65.9758 81.855 65.0027 80.685C64.0296 79.515 62.6673 79.125 61.1103 79.125C59.748 79.125 58.191 79.71 57.2179 80.685C56.2448 81.855 55.661 83.22 55.661 84.975C55.661 86.73 56.2448 88.095 57.2179 89.07H57.4126ZM81.9345 103.11C79.7937 103.11 78.0422 102.525 76.4852 101.355C74.9283 100.185 73.9552 98.82 73.3713 97.455L77.0691 95.895C77.4583 96.87 78.0422 97.65 78.8206 98.235C79.5991 98.82 80.5722 99.21 81.9345 99.21C83.4915 99.21 84.8538 98.625 85.6323 97.845C86.4108 97.065 86.9946 95.505 86.9946 93.555V92.19H86.8C85.6323 93.555 83.8807 94.335 81.7399 94.335C79.2099 94.335 77.0691 93.36 75.3175 91.605C73.3713 90.045 72.3982 87.51 72.5928 84.975C72.3982 82.44 73.3713 79.905 75.3175 78.15C77.0691 76.2 79.2099 75.42 81.7399 75.42C82.9076 75.42 83.8807 75.615 84.6592 76.005C85.4377 76.395 86.2161 76.98 86.8 77.565H86.9946V76.005H91.0816V93.36C91.0816 96.675 90.3031 99.21 88.5516 100.965C86.8 102.525 84.6592 103.5 81.9345 103.5V103.11ZM82.1291 90.63C83.4915 90.825 84.8538 90.24 85.6323 89.07C86.6054 87.9 87.1892 86.535 87.1892 84.975C87.1892 83.22 86.6054 81.855 85.6323 80.685C84.8538 79.71 83.4915 79.125 82.1291 79.125C80.5722 79.125 79.4045 79.71 78.4314 80.88C77.4583 82.05 76.8744 83.415 76.8744 85.17C76.8744 86.73 77.4583 88.29 78.4314 89.265C79.4045 90.24 80.7668 91.02 82.1291 91.02V90.63ZM98.0879 65.475V93.75H93.8063V65.475H98.0879ZM109.57 94.335C106.846 94.335 104.51 93.36 102.759 91.605C101.007 89.85 100.034 87.51 100.034 84.78C100.034 82.05 101.007 79.71 102.759 77.76C104.316 76.2 106.651 75.225 109.181 75.225C110.349 75.225 111.517 75.42 112.49 75.81C113.268 76.395 114.047 76.785 114.825 77.565C115.409 78.15 115.993 78.735 116.382 79.515C116.771 80.1 117.161 80.685 117.355 81.465L117.744 82.635L104.9 87.9C105.873 89.85 107.43 90.825 109.57 90.825C111.517 90.825 113.074 89.85 114.241 88.095L117.55 90.24C116.771 91.41 115.798 92.385 114.436 93.165C113.074 93.945 111.517 94.53 109.57 94.53V94.335ZM104.316 84.39L112.879 80.88C112.684 80.295 112.1 79.71 111.517 79.32C110.738 79.125 109.96 78.93 109.181 78.93C108.013 78.93 106.846 79.515 105.678 80.49C104.51 81.465 104.121 82.83 104.121 84.585L104.316 84.39ZM139.931 94.335C136.039 94.335 132.925 92.97 130.2 90.435C127.475 87.9 126.308 84.585 126.308 80.685C126.308 76.785 127.67 73.47 130.2 70.935C132.73 68.4 136.039 67.035 139.931 67.035C143.823 67.035 147.132 68.4 149.467 71.325L147.132 73.665C145.38 71.52 142.85 70.35 139.931 70.35C137.012 70.35 134.676 71.325 132.73 73.275C130.784 75.225 129.811 77.76 129.811 80.88C129.811 84 130.784 86.535 132.73 88.485C134.676 90.435 137.012 91.41 139.931 91.41C143.045 91.41 145.77 90.24 147.91 87.705L150.246 90.045C149.078 91.41 147.521 92.58 145.77 93.36C143.823 94.14 141.877 94.53 139.931 94.53V94.335ZM156.668 93.75H153.36V67.815H156.668V93.75ZM162.117 77.955C163.869 76.2 166.01 75.225 168.735 75.225C171.459 75.225 173.6 76.2 175.352 77.955C177.103 79.71 177.882 82.05 177.882 84.78C177.882 87.51 177.103 89.85 175.352 91.605C173.6 93.36 171.459 94.335 168.735 94.335C166.01 94.335 163.869 93.36 162.117 91.605C160.366 89.85 159.587 87.51 159.587 84.78C159.587 82.05 160.366 79.71 162.117 77.955ZM164.648 89.46C165.815 90.63 167.178 91.215 168.735 91.215C170.291 91.215 171.654 90.63 172.822 89.46C173.989 88.29 174.573 86.73 174.573 84.78C174.573 82.83 173.989 81.27 172.822 80.1C171.654 78.93 170.291 78.345 168.735 78.345C167.178 78.345 165.815 78.93 164.648 80.1C163.48 81.27 162.896 82.83 162.896 84.78C162.896 86.73 163.48 88.29 164.648 89.46ZM196.37 93.75H193.257V91.215H193.062C192.478 91.995 191.7 92.775 190.726 93.36C189.753 93.945 188.586 94.335 187.418 94.335C185.277 94.335 183.526 93.75 182.358 92.385C181.19 91.02 180.606 89.265 180.606 86.925V76.005H183.915V86.34C183.915 89.655 185.472 91.41 188.391 91.41C189.559 91.41 190.921 90.825 191.7 89.85C192.478 88.68 192.867 87.315 192.867 85.95V76.2H196.176V94.14L196.37 93.75ZM207.658 94.335C205.323 94.335 203.377 93.36 201.625 91.605C199.874 89.85 199.095 87.51 199.095 84.78C199.095 82.05 199.874 79.905 201.625 77.955C203.377 76.005 205.323 75.225 207.658 75.225C209.021 75.225 210.188 75.615 211.356 76.005C212.524 76.395 213.302 77.37 213.691 78.15H213.886L213.691 75.615V67.425H217V93.555H213.886V91.02H213.691C213.108 91.8 212.329 92.58 211.356 93.165C210.188 93.75 209.021 93.945 207.658 93.945V94.335ZM208.242 91.215C209.604 91.41 211.161 90.825 212.135 89.655C213.302 88.485 213.691 86.925 213.691 84.975C213.691 83.025 213.108 81.465 212.135 80.295C211.161 79.32 209.604 78.54 208.242 78.54C206.685 78.54 205.323 79.125 204.155 80.295C202.987 81.465 202.404 83.025 202.404 84.975C202.404 86.925 202.987 88.485 204.155 89.655C205.128 90.825 206.685 91.605 208.242 91.605V91.215Z" fill="#5F6368"/>
</svg>
