<svg width="113" height="102" viewBox="0 0 113 102" fill="none" xmlns="http://www.w3.org/2000/svg">
<g clip-path="url(#clip0_102_220)">
<path d="M92.9056 33.2027C91.7031 32.7887 90.4904 32.4051 89.2687 32.0523C89.4739 31.2107 89.6628 30.3792 89.8306 29.5623C92.5838 16.1484 90.7839 5.34181 84.6361 1.78378C78.7416 -1.62719 69.1016 1.92952 59.3659 10.4335C58.4064 11.2731 57.4682 12.1368 56.5522 13.024C55.9389 12.4341 55.3149 11.8556 54.6803 11.2889C44.4767 2.19619 34.2493 -1.63605 28.1081 1.93218C22.2189 5.35377 20.475 15.5127 22.9538 28.2254C23.2004 29.4845 23.4788 30.737 23.7888 31.9819C22.3412 32.3947 20.9442 32.8342 19.6073 33.302C7.64443 37.4882 0.00476074 44.0483 0.00476074 50.8529C0.00476074 57.8809 8.20629 64.93 20.6662 69.2044C21.6763 69.5495 22.6949 69.8693 23.7209 70.1634C23.3877 71.5042 23.0918 72.854 22.8337 74.2114C20.4706 86.7035 22.316 96.6223 28.1893 100.022C34.2555 103.533 44.437 99.9248 54.3506 91.2268C55.1545 90.5197 55.9407 89.7925 56.7084 89.046C57.7004 90.0066 58.7189 90.9393 59.7627 91.843C69.366 100.137 78.8502 103.485 84.7177 100.076C90.7782 96.555 92.748 85.8995 90.1907 72.9356C89.9893 71.92 89.7634 70.9094 89.5132 69.9047C90.2282 69.6921 90.93 69.4733 91.6141 69.2456C104.567 64.9385 112.995 57.9748 112.995 50.8529C112.995 44.0235 105.109 37.4191 92.9056 33.2027ZM90.0963 64.6474C89.4783 64.8525 88.8445 65.0505 88.1984 65.2432C86.7683 60.6996 84.8387 55.8684 82.4769 50.8764C84.7305 46.0036 86.586 41.234 87.9759 36.72C89.1319 37.0558 90.2534 37.4098 91.3347 37.7832C101.791 41.3962 108.169 46.7372 108.169 50.8529C108.169 55.2367 101.281 60.9277 90.0963 64.6474ZM85.4557 73.8765C86.5865 79.6087 86.7476 84.7916 85.9986 88.8436C85.3259 92.4844 83.9727 94.9115 82.299 95.8839C78.7385 97.9526 71.1235 95.2637 62.911 88.1707C61.9401 87.3305 60.9927 86.4634 60.0699 85.5704C63.2539 82.0757 66.4358 78.0131 69.5412 73.5009C75.0036 73.0145 80.1641 72.2189 84.844 71.1331C85.0694 72.0426 85.2734 72.9573 85.4557 73.8765ZM38.5257 95.5264C35.0469 96.7592 32.2759 96.7947 30.6009 95.8254C27.0369 93.7624 25.5552 85.7981 27.5762 75.1151C27.8165 73.8527 28.0916 72.5973 28.4012 71.3502C33.0294 72.3779 38.1523 73.1168 43.6275 73.5624C46.7542 77.9776 50.0278 82.0358 53.3271 85.5894C52.6259 86.2703 51.9082 86.9338 51.1745 87.5793C46.7904 91.4253 42.3974 94.154 38.5257 95.5264ZM22.2277 64.6204C16.7181 62.7302 12.168 60.2739 9.04931 57.5934C6.24661 55.1849 4.83202 52.7932 4.83202 50.8529C4.83202 46.7235 10.9657 41.4564 21.1962 37.8767C22.4378 37.4425 23.7372 37.0328 25.0856 36.6483C26.4997 41.2641 28.3544 46.0904 30.5926 50.9708C28.3252 55.9233 26.4441 60.8267 25.0163 65.4971C24.0798 65.2278 23.15 64.9355 22.2277 64.6204ZM27.691 27.2947C25.5676 16.4031 26.9777 8.18709 30.5268 6.12501C34.3067 3.9287 42.6653 7.06014 51.4755 14.9116C52.05 15.4247 52.6152 15.9482 53.1708 16.4819C49.8879 20.02 46.6443 24.0481 43.5454 28.4371C38.2313 28.9315 33.1446 29.7253 28.4678 30.7889C28.1797 29.6311 27.9206 28.4661 27.691 27.2951V27.2947ZM76.4301 39.3739C75.3255 37.4589 74.1799 35.568 72.9941 33.7024C76.5992 34.16 80.0533 34.7674 83.297 35.5098C82.3233 38.6426 81.1095 41.9175 79.6808 45.2754C78.6365 43.2867 77.5527 41.3192 76.4301 39.3739ZM56.5544 19.9443C58.7806 22.3652 61.0104 25.0678 63.2036 28.0004C58.7546 27.7895 54.2982 27.7886 49.8491 27.9977C52.0445 25.0922 54.2932 22.3931 56.5544 19.9443ZM36.5511 39.4072C35.4425 41.3367 34.3789 43.292 33.3613 45.2714C31.956 41.9255 30.7532 38.6355 29.7712 35.4584C32.9949 34.7346 36.4328 34.1428 40.0149 33.6936C38.8159 35.5705 37.661 37.4754 36.5511 39.4067V39.4072ZM40.1178 68.357C36.4169 67.9423 32.9274 67.3811 29.7045 66.6767C30.702 63.443 31.9312 60.0829 33.367 56.6653C34.3887 58.6462 35.4567 60.6026 36.57 62.5331C37.7149 64.5176 38.9005 66.4614 40.1178 68.357ZM56.6877 82.1027C54.3996 79.6255 52.1177 76.8848 49.8892 73.9372C52.0528 74.0223 54.2584 74.0657 56.5001 74.0657C58.8031 74.0657 61.0797 74.0138 63.3206 73.9137C61.1203 76.9145 58.8989 79.6592 56.6877 82.1027ZM79.7263 56.4908C81.2366 59.946 82.5096 63.2883 83.5203 66.4667C80.2444 67.2172 76.7073 67.8214 72.9804 68.2701C74.1746 66.37 75.3311 64.4462 76.4491 62.4998C77.5858 60.5215 78.6784 58.518 79.7263 56.4908ZM72.268 60.0794C70.5565 63.0635 68.7487 65.9909 66.8475 68.8571C63.4038 69.1019 59.9525 69.2235 56.5001 69.2217C52.9837 69.2217 49.5635 69.1118 46.27 68.8974C44.3193 66.0379 42.477 63.1053 40.7472 60.106H40.7476C39.0259 57.1225 37.4177 54.0745 35.9265 50.9686C37.4139 47.8619 39.0172 44.8124 40.733 41.8267L40.7326 41.8272C42.4478 38.8407 44.2753 35.9207 46.2113 33.0734C49.5715 32.8182 53.0172 32.6853 56.4996 32.6853H56.5001C59.9984 32.6853 63.4486 32.8196 66.8078 33.0765C68.7243 35.9195 70.5402 38.8295 72.2521 41.801C73.9736 44.7802 75.5982 47.8147 77.1231 50.8999C75.6138 54.0166 73.9944 57.0784 72.268 60.0794ZM82.2253 5.98059C86.0087 8.1707 87.4803 17.0024 85.103 28.5842C84.9512 29.3231 84.7808 30.0757 84.5955 30.839C79.9072 29.7528 74.8169 28.9452 69.4874 28.4433C66.3828 24.006 63.1656 19.9717 59.9361 16.4793C60.7825 15.6604 61.6491 14.8628 62.5349 14.0872C70.8768 6.80144 78.6732 3.92471 82.2253 5.98059ZM56.5001 40.7264C62.0724 40.7264 66.5898 45.2603 66.5898 50.8529C66.5898 56.4456 62.0724 60.9795 56.5001 60.9795C50.9278 60.9795 46.4104 56.4456 46.4104 50.8529C46.4104 45.2603 50.9278 40.7264 56.5001 40.7264Z" fill="#00D8FF"/>
</g>
<defs>
<clipPath id="clip0_102_220">
<rect width="113" height="101" fill="white" transform="translate(0 0.5)"/>
</clipPath>
</defs>
</svg>
