<svg width="117" height="88" viewBox="0 0 117 88" fill="none" xmlns="http://www.w3.org/2000/svg">
<g clip-path="url(#clip0_102_214)">
<path d="M100.673 50.5767C96.6031 50.5975 93.0654 51.5695 90.1035 53.0063C89.0163 50.8721 87.9295 48.9708 87.738 47.5761C87.5246 45.9493 87.2691 44.9561 87.5246 43.0122C87.7805 41.0683 88.9313 38.3001 88.9098 38.089C88.8888 37.8778 88.6539 36.8846 86.3099 36.8637C83.9659 36.8424 81.9413 37.3073 81.7069 37.92C81.4725 38.5326 81.025 39.9273 80.7266 41.3637C80.3217 43.4771 76.0386 51.0198 73.5882 54.9711C72.7994 53.4291 72.1175 52.0765 71.9681 50.999C71.7551 49.3722 71.4992 48.379 71.7551 46.4351C72.011 44.4912 73.1618 41.7235 73.1403 41.5119C73.1188 41.3007 72.8844 40.3075 70.5404 40.2866C68.1959 40.2653 66.1714 40.7303 65.9374 41.3429C65.7029 41.956 65.447 43.3924 64.9571 44.7871C64.4667 46.1818 58.777 58.775 57.2853 62.0285C56.6825 63.3453 56.0501 64.6487 55.3887 65.9376C55.3887 65.9376 55.3672 66.001 55.3032 66.1066C55.0954 66.5107 54.8825 66.9123 54.6643 67.311V67.3319C54.3444 67.9028 54.0035 68.4307 53.833 68.4307C53.7051 68.4307 53.4706 66.9095 53.8755 64.8388C54.7279 60.4652 56.7524 53.6615 56.7314 53.4291C56.7314 53.3022 57.1148 52.1191 55.4102 51.506C53.7476 50.8934 53.1512 51.9075 53.0018 51.9075C52.8528 51.9075 52.7458 52.2668 52.7458 52.2668C52.7458 52.2668 54.6004 44.6181 49.2086 44.6181C45.8418 44.6181 41.1959 48.2734 38.8944 51.5695C36.278 52.9811 33.664 54.3968 31.0521 55.8166C29.7953 56.514 28.4951 57.2113 27.2804 57.8661C27.1949 57.7818 27.1099 57.6758 27.0245 57.5915C20.5034 50.6822 8.44206 45.8012 8.95345 36.5257C9.1454 33.1449 10.3172 24.2705 32.1178 13.4947C50.0609 4.72585 64.3392 7.1555 66.8112 12.5436C70.3484 20.235 59.1609 34.5184 40.6205 36.5887C33.5455 37.3708 29.8374 34.6661 28.9 33.652C27.9198 32.5953 27.7703 32.5319 27.4079 32.7435C26.8115 33.0607 27.1949 34.0113 27.4079 34.5605C27.9623 35.9969 30.2423 38.5326 34.0994 39.7796C37.5092 40.878 45.7988 41.491 55.8361 37.6454C67.0666 33.3348 75.8467 21.3546 73.2682 11.3184C70.6893 1.13392 53.6411 -2.22554 37.5092 3.458C27.9198 6.83922 17.5201 12.1634 10.0402 19.094C1.15369 27.3341 -0.252978 34.4971 0.322395 37.4977C2.3899 48.1465 17.2006 55.0771 23.1248 60.2114C22.8264 60.3805 22.549 60.5286 22.315 60.6555C19.3527 62.1132 8.05818 67.9658 5.24529 74.1568C2.04897 81.1716 5.75714 86.2009 8.20762 86.8765C15.8154 88.9686 23.6362 85.2076 27.8343 78.9953C32.0324 72.7834 31.521 64.7119 29.5819 61.0144C29.5604 60.9722 29.5394 60.9296 29.4964 60.8875C30.2638 60.4439 31.0521 59.979 31.8194 59.5354C33.2297 58.7088 34.6579 57.9126 36.103 57.1474C35.3781 59.1126 34.8453 61.458 34.5898 64.8388C34.2699 68.8113 35.9105 73.9665 38.0631 75.9947C39.0223 76.8828 40.1516 76.9037 40.8764 76.9037C43.3909 76.9037 44.5206 74.8329 45.7778 72.3819C47.312 69.3818 48.6972 65.8954 48.6972 65.8954C48.6972 65.8954 46.9711 75.3191 51.6595 75.3191C53.3642 75.3191 55.0903 73.1214 55.8576 72.0018V72.0226C55.8576 72.0226 55.9001 71.9592 55.9856 71.8114C56.156 71.5369 56.2625 71.3674 56.2625 71.3674V71.3257C56.9444 70.1421 58.479 67.4587 60.759 63.0004C63.6999 57.2535 66.5342 50.0696 66.5342 50.0696C66.5342 50.0696 66.7901 51.8232 67.6635 54.7391C68.1753 56.4505 69.2402 58.331 70.0929 60.148C69.4111 61.0991 68.9847 61.627 68.9847 61.627L69.0062 61.6483C68.4518 62.3665 67.8554 63.1482 67.1946 63.9094C64.8716 66.6558 62.1017 69.8046 61.7178 70.7126C61.2699 71.7902 61.3769 72.5722 62.2297 73.2062C62.8475 73.6711 63.9553 73.7341 65.0851 73.6711C67.1736 73.5229 68.6438 73.0159 69.3681 72.6991C70.4979 72.2977 71.8191 71.6846 73.0548 70.7761C75.3353 69.1067 76.72 66.7192 76.5925 63.5714C76.5285 61.8386 75.9532 60.1059 75.2498 58.4787C75.4633 58.1833 75.6547 57.8874 75.8682 57.5915C79.4694 52.3724 82.2613 46.6462 82.2613 46.6462C82.2613 46.6462 82.5172 48.3998 83.3905 51.3162C83.8169 52.7952 84.6907 54.401 85.4576 55.9643C82.0693 58.6903 79.9808 61.8595 79.2349 63.9302C77.8927 67.7759 78.9365 69.5082 80.9186 69.9097C81.8134 70.1 83.0921 69.6772 84.0299 69.2758C85.2231 68.8956 86.6298 68.2408 87.9725 67.2684C90.253 65.5996 92.4475 63.275 92.3195 60.1272C92.2556 58.6903 91.8721 57.2743 91.3393 55.9009C94.2161 54.7182 97.9243 54.063 102.655 54.6122C112.799 55.7953 114.802 62.0706 114.418 64.7123C114.035 67.3532 111.904 68.79 111.201 69.2336C110.497 69.6777 110.263 69.8254 110.327 70.1421C110.412 70.607 110.753 70.5862 111.35 70.5015C112.181 70.3537 116.678 68.3672 116.869 63.5075C117.189 57.2956 111.222 50.5132 100.673 50.5767ZM22.4215 76.7346C19.0543 80.3687 14.3663 81.7421 12.3417 80.5803C10.1682 79.3333 11.0205 73.9665 15.1546 70.1213C17.6691 67.7759 20.9083 65.5991 23.0608 64.2683C23.5508 63.9724 24.2756 63.5501 25.1494 63.0217C25.2984 62.937 25.3838 62.8949 25.3838 62.8949L25.8952 62.5777C27.4079 68.0714 25.9592 72.9103 22.4215 76.7346ZM46.9286 60.2114C45.7563 63.043 43.3059 70.2903 41.8142 69.8888C40.5355 69.5508 39.7467 64.0571 41.5583 58.6269C42.4746 55.9009 44.4137 52.647 45.5434 51.3796C47.376 49.351 49.4005 48.6744 49.8904 49.4991C50.5088 50.5767 47.6529 58.4366 46.9286 60.2114ZM67.1521 69.8041C66.6617 70.0579 66.1933 70.2269 65.9799 70.1C65.8309 70.0153 66.1933 69.6772 66.1933 69.6772C66.1933 69.6772 68.7292 66.973 69.7305 65.7473C70.3064 65.0291 70.9878 64.184 71.7126 63.2329V63.5075C71.7126 66.7405 68.5583 68.9169 67.1516 69.8041H67.1521ZM82.7512 66.2756C82.3888 66.0219 82.4527 65.1768 83.6675 62.5355C84.1364 61.5001 85.2441 59.7678 87.1412 58.0985C87.3542 58.7746 87.5036 59.4298 87.4821 60.0424C87.4606 64.1206 84.5202 65.6417 82.7512 66.2756Z" fill="#CD6799"/>
</g>
<defs>
<clipPath id="clip0_102_214">
<rect width="117" height="87" fill="white" transform="translate(0 0.5)"/>
</clipPath>
</defs>
</svg>
