<svg width="128" height="128" viewBox="0 0 128 128" fill="none" xmlns="http://www.w3.org/2000/svg">
<path d="M112.871 66.602C121.875 71.879 127.926 81.629 127.945 92.793C127.977 109.598 114.328 123.246 97.465 123.273C80.602 123.305 66.906 109.703 66.875 92.898C66.855 81.734 72.8711 71.965 81.8591 66.652L90.6331 81.43C90.8521 81.8 90.7271 82.277 90.3711 82.52C87.0511 84.77 84.8751 88.566 84.8831 92.867C84.8951 99.762 90.516 105.344 97.433 105.328C104.352 105.316 109.949 99.718 109.937 92.824C109.93 88.524 107.742 84.734 104.414 82.496C104.059 82.254 103.93 81.777 104.148 81.406L112.871 66.602Z" fill="#128DFF"/>
<path d="M45.477 66.422C40.9207 63.8788 35.788 62.5474 30.57 62.555C13.703 62.555 0.0350342 76.18 0.0350342 92.985C0.0350342 109.789 13.703 123.415 30.57 123.415C47.516 123.415 61.52 109.078 61.094 92.203H43.906C43.453 92.203 43.098 92.586 43.094 93.035C43.051 99.758 37.422 105.469 30.57 105.469C23.648 105.469 18.043 99.879 18.043 92.984C18.043 86.09 23.648 80.5 30.57 80.5C32.379 80.5 34.102 80.883 35.656 81.574C36.039 81.742 36.492 81.614 36.703 81.258L45.477 66.422Z" fill="#8BDA67"/>
<path d="M47.945 61.648C38.953 56.355 32.918 46.594 32.918 35.43C32.918 18.625 46.59 5 63.453 5C80.316 5 93.988 18.625 93.988 35.43C93.988 46.594 87.953 56.355 78.961 61.648L70.21 46.86C69.991 46.49 70.116 46.013 70.476 45.77C73.796 43.524 75.979 39.731 75.979 35.43C75.979 28.536 70.37 22.946 63.452 22.946C56.534 22.946 50.925 28.536 50.925 35.431C50.925 39.731 53.108 43.524 56.429 45.771C56.789 46.013 56.913 46.489 56.694 46.861L47.945 61.648Z" fill="#FF2A44"/>
</svg>
