<svg width="1920" height="1080" viewBox="0 0 1920 1080" fill="none" xmlns="http://www.w3.org/2000/svg">
<rect width="1920" height="1080" fill="#0B0B0B"/>
<mask id="path-1-outside-1_218_270" maskUnits="userSpaceOnUse" x="827" y="423" width="630" height="159" fill="black">
<rect fill="white" x="827" y="423" width="630" height="159"/>
<path d="M858.4 571.85L899.35 479.9H912.25L872.2 571.85H858.4ZM873.7 542.45L843.85 479.9H859.6L884.65 535.4L873.7 542.45ZM954.606 543.5C947.506 543.5 941.406 542.1 936.306 539.3C931.206 536.4 927.256 532.5 924.456 527.6C921.756 522.6 920.406 516.9 920.406 510.5C920.406 504.4 921.956 498.85 925.056 493.85C928.156 488.85 932.306 484.85 937.506 481.85C942.706 478.85 948.506 477.35 954.906 477.35C963.106 477.35 969.906 479.75 975.306 484.55C980.706 489.35 984.356 495.95 986.256 504.35L935.106 522.35L931.806 514.1L973.806 498.8L970.806 500.75C969.606 497.45 967.606 494.6 964.806 492.2C962.006 489.7 958.356 488.45 953.856 488.45C950.056 488.45 946.656 489.4 943.656 491.3C940.656 493.1 938.306 495.6 936.606 498.8C934.906 502 934.056 505.65 934.056 509.75C934.056 514.05 934.956 517.85 936.756 521.15C938.556 524.35 941.006 526.9 944.106 528.8C947.306 530.6 950.906 531.5 954.906 531.5C957.606 531.5 960.206 531 962.706 530C965.306 529 967.706 527.7 969.906 526.1L976.356 536.45C973.256 538.55 969.756 540.25 965.856 541.55C962.056 542.85 958.306 543.5 954.606 543.5ZM1003.89 457.4L996.836 453.8C998.936 451.8 1000.59 449.05 1001.79 445.55C1003.09 442.05 1003.39 438.55 1002.69 435.05L1013.79 434C1014.39 436.8 1014.29 439.75 1013.49 442.85C1012.69 445.85 1011.44 448.65 1009.74 451.25C1008.04 453.85 1006.09 455.9 1003.89 457.4ZM1043.87 479.9L1045.07 493.85L1044.47 492.65C1046.77 487.95 1050.02 484.25 1054.22 481.55C1058.52 478.85 1063.42 477.5 1068.92 477.5C1072.42 477.5 1075.52 478.05 1078.22 479.15C1080.92 480.25 1083.12 481.85 1084.82 483.95C1086.62 485.95 1087.77 488.45 1088.27 491.45L1087.52 491.9C1089.92 487.4 1093.22 483.9 1097.42 481.4C1101.72 478.8 1106.22 477.5 1110.92 477.5C1117.02 477.5 1121.82 479.25 1125.32 482.75C1128.92 486.15 1130.77 490.6 1130.87 496.1V542H1116.92V501.05C1116.82 497.85 1116.02 495.2 1114.52 493.1C1113.12 490.9 1110.62 489.7 1107.02 489.5C1103.42 489.5 1100.17 490.6 1097.27 492.8C1094.47 495 1092.27 497.85 1090.67 501.35C1089.07 504.75 1088.22 508.45 1088.12 512.45V542H1074.17V501.05C1074.07 497.85 1073.22 495.2 1071.62 493.1C1070.12 490.9 1067.57 489.7 1063.97 489.5C1060.27 489.5 1057.02 490.6 1054.22 492.8C1051.42 495 1049.22 497.85 1047.62 501.35C1046.12 504.85 1045.37 508.6 1045.37 512.6V542H1031.42V479.9H1043.87ZM1198.16 433.55H1270.16V447.5H1241.06V542H1226.51V447.5H1198.16V433.55ZM1299.51 543.5C1293.71 543.5 1288.41 542.25 1283.61 539.75C1278.91 537.25 1275.16 533.6 1272.36 528.8C1269.66 523.9 1268.31 517.95 1268.31 510.95C1268.31 504.05 1269.76 498.1 1272.66 493.1C1275.56 488 1279.41 484.1 1284.21 481.4C1289.11 478.7 1294.46 477.35 1300.26 477.35C1306.06 477.35 1310.96 478.7 1314.96 481.4C1318.96 484 1322.01 487.1 1324.11 490.7L1323.21 493.1L1324.56 479.9H1337.46V542H1323.51V525.8L1325.01 529.4C1324.61 530.4 1323.71 531.7 1322.31 533.3C1321.01 534.8 1319.21 536.35 1316.91 537.95C1314.71 539.55 1312.16 540.9 1309.26 542C1306.36 543 1303.11 543.5 1299.51 543.5ZM1303.26 531.95C1306.76 531.95 1309.91 531.3 1312.71 530C1315.51 528.7 1317.81 526.9 1319.61 524.6C1321.51 522.2 1322.81 519.35 1323.51 516.05V503.9C1322.71 500.9 1321.31 498.3 1319.31 496.1C1317.31 493.8 1314.91 492.05 1312.11 490.85C1309.31 489.55 1306.21 488.9 1302.81 488.9C1299.11 488.9 1295.71 489.8 1292.61 491.6C1289.51 493.4 1287.01 495.9 1285.11 499.1C1283.31 502.3 1282.41 506.05 1282.41 510.35C1282.41 514.35 1283.36 518 1285.26 521.3C1287.16 524.6 1289.71 527.2 1292.91 529.1C1296.11 531 1299.56 531.95 1303.26 531.95ZM1385 503L1399.85 479.9H1413.95L1390.1 513.2L1385 503ZM1416.35 542H1399.55L1352.3 479.9H1369.55L1416.35 542ZM1383.5 518.9L1367.15 542H1353.05L1376.75 509.6L1383.5 518.9ZM1431.32 479.9H1445.27V542H1431.32V479.9ZM1430.27 457.4C1430.27 455.2 1431.12 453.35 1432.82 451.85C1434.62 450.35 1436.57 449.6 1438.67 449.6C1440.77 449.6 1442.62 450.35 1444.22 451.85C1445.92 453.35 1446.77 455.2 1446.77 457.4C1446.77 459.7 1445.92 461.6 1444.22 463.1C1442.62 464.5 1440.77 465.2 1438.67 465.2C1436.57 465.2 1434.62 464.45 1432.82 462.95C1431.12 461.45 1430.27 459.6 1430.27 457.4Z"/>
</mask>
<path d="M858.4 571.85L899.35 479.9H912.25L872.2 571.85H858.4ZM873.7 542.45L843.85 479.9H859.6L884.65 535.4L873.7 542.45ZM954.606 543.5C947.506 543.5 941.406 542.1 936.306 539.3C931.206 536.4 927.256 532.5 924.456 527.6C921.756 522.6 920.406 516.9 920.406 510.5C920.406 504.4 921.956 498.85 925.056 493.85C928.156 488.85 932.306 484.85 937.506 481.85C942.706 478.85 948.506 477.35 954.906 477.35C963.106 477.35 969.906 479.75 975.306 484.55C980.706 489.35 984.356 495.95 986.256 504.35L935.106 522.35L931.806 514.1L973.806 498.8L970.806 500.75C969.606 497.45 967.606 494.6 964.806 492.2C962.006 489.7 958.356 488.45 953.856 488.45C950.056 488.45 946.656 489.4 943.656 491.3C940.656 493.1 938.306 495.6 936.606 498.8C934.906 502 934.056 505.65 934.056 509.75C934.056 514.05 934.956 517.85 936.756 521.15C938.556 524.35 941.006 526.9 944.106 528.8C947.306 530.6 950.906 531.5 954.906 531.5C957.606 531.5 960.206 531 962.706 530C965.306 529 967.706 527.7 969.906 526.1L976.356 536.45C973.256 538.55 969.756 540.25 965.856 541.55C962.056 542.85 958.306 543.5 954.606 543.5ZM1003.89 457.4L996.836 453.8C998.936 451.8 1000.59 449.05 1001.79 445.55C1003.09 442.05 1003.39 438.55 1002.69 435.05L1013.79 434C1014.39 436.8 1014.29 439.75 1013.49 442.85C1012.69 445.85 1011.44 448.65 1009.74 451.25C1008.04 453.85 1006.09 455.9 1003.89 457.4ZM1043.87 479.9L1045.07 493.85L1044.47 492.65C1046.77 487.95 1050.02 484.25 1054.22 481.55C1058.52 478.85 1063.42 477.5 1068.92 477.5C1072.42 477.5 1075.52 478.05 1078.22 479.15C1080.92 480.25 1083.12 481.85 1084.82 483.95C1086.62 485.95 1087.77 488.45 1088.27 491.45L1087.52 491.9C1089.92 487.4 1093.22 483.9 1097.42 481.4C1101.72 478.8 1106.22 477.5 1110.92 477.5C1117.02 477.5 1121.82 479.25 1125.32 482.75C1128.92 486.15 1130.77 490.6 1130.87 496.1V542H1116.92V501.05C1116.82 497.85 1116.02 495.2 1114.52 493.1C1113.12 490.9 1110.62 489.7 1107.02 489.5C1103.42 489.5 1100.17 490.6 1097.27 492.8C1094.47 495 1092.27 497.85 1090.67 501.35C1089.07 504.75 1088.22 508.45 1088.12 512.45V542H1074.17V501.05C1074.07 497.85 1073.22 495.2 1071.62 493.1C1070.12 490.9 1067.57 489.7 1063.97 489.5C1060.27 489.5 1057.02 490.6 1054.22 492.8C1051.42 495 1049.22 497.85 1047.62 501.35C1046.12 504.85 1045.37 508.6 1045.37 512.6V542H1031.42V479.9H1043.87ZM1198.16 433.55H1270.16V447.5H1241.06V542H1226.51V447.5H1198.16V433.55ZM1299.51 543.5C1293.71 543.5 1288.41 542.25 1283.61 539.75C1278.91 537.25 1275.16 533.6 1272.36 528.8C1269.66 523.9 1268.31 517.95 1268.31 510.95C1268.31 504.05 1269.76 498.1 1272.66 493.1C1275.56 488 1279.41 484.1 1284.21 481.4C1289.11 478.7 1294.46 477.35 1300.26 477.35C1306.06 477.35 1310.96 478.7 1314.96 481.4C1318.96 484 1322.01 487.1 1324.11 490.7L1323.21 493.1L1324.56 479.9H1337.46V542H1323.51V525.8L1325.01 529.4C1324.61 530.4 1323.71 531.7 1322.31 533.3C1321.01 534.8 1319.21 536.35 1316.91 537.95C1314.71 539.55 1312.16 540.9 1309.26 542C1306.36 543 1303.11 543.5 1299.51 543.5ZM1303.26 531.95C1306.76 531.95 1309.91 531.3 1312.71 530C1315.51 528.7 1317.81 526.9 1319.61 524.6C1321.51 522.2 1322.81 519.35 1323.51 516.05V503.9C1322.71 500.9 1321.31 498.3 1319.31 496.1C1317.31 493.8 1314.91 492.05 1312.11 490.85C1309.31 489.55 1306.21 488.9 1302.81 488.9C1299.11 488.9 1295.71 489.8 1292.61 491.6C1289.51 493.4 1287.01 495.9 1285.11 499.1C1283.31 502.3 1282.41 506.05 1282.41 510.35C1282.41 514.35 1283.36 518 1285.26 521.3C1287.16 524.6 1289.71 527.2 1292.91 529.1C1296.11 531 1299.56 531.95 1303.26 531.95ZM1385 503L1399.85 479.9H1413.95L1390.1 513.2L1385 503ZM1416.35 542H1399.55L1352.3 479.9H1369.55L1416.35 542ZM1383.5 518.9L1367.15 542H1353.05L1376.75 509.6L1383.5 518.9ZM1431.32 479.9H1445.27V542H1431.32V479.9ZM1430.27 457.4C1430.27 455.2 1431.12 453.35 1432.82 451.85C1434.62 450.35 1436.57 449.6 1438.67 449.6C1440.77 449.6 1442.62 450.35 1444.22 451.85C1445.92 453.35 1446.77 455.2 1446.77 457.4C1446.77 459.7 1445.92 461.6 1444.22 463.1C1442.62 464.5 1440.77 465.2 1438.67 465.2C1436.57 465.2 1434.62 464.45 1432.82 462.95C1431.12 461.45 1430.27 459.6 1430.27 457.4Z" fill="#0B0B0B"/>
<path d="M858.4 571.85L849.265 567.782L843 581.85H858.4V571.85ZM899.35 479.9V469.9H892.857L890.215 475.832L899.35 479.9ZM912.25 479.9L921.418 483.893L927.513 469.9H912.25V479.9ZM872.2 571.85V581.85H878.752L881.368 575.843L872.2 571.85ZM873.7 542.45L864.675 546.757L869.566 557.005L879.113 550.858L873.7 542.45ZM843.85 479.9V469.9H827.997L834.825 484.207L843.85 479.9ZM859.6 479.9L868.715 475.786L866.058 469.9H859.6V479.9ZM884.65 535.4L890.063 543.808L897.31 539.142L893.765 531.286L884.65 535.4ZM867.535 575.918L908.485 483.968L890.215 475.832L849.265 567.782L867.535 575.918ZM899.35 489.9H912.25V469.9H899.35V489.9ZM903.082 475.907L863.032 567.857L881.368 575.843L921.418 483.893L903.082 475.907ZM872.2 561.85H858.4V581.85H872.2V561.85ZM882.725 538.143L852.875 475.593L834.825 484.207L864.675 546.757L882.725 538.143ZM843.85 489.9H859.6V469.9H843.85V489.9ZM850.485 484.014L875.535 539.514L893.765 531.286L868.715 475.786L850.485 484.014ZM879.237 526.992L868.287 534.042L879.113 550.858L890.063 543.808L879.237 526.992ZM936.306 539.3L931.363 547.993L931.428 548.03L931.494 548.066L936.306 539.3ZM924.456 527.6L915.657 532.351L915.714 532.457L915.774 532.561L924.456 527.6ZM925.056 493.85L933.555 499.119H933.555L925.056 493.85ZM975.306 484.55L968.663 492.024V492.024L975.306 484.55ZM986.256 504.35L989.576 513.783L997.974 510.828L996.01 502.144L986.256 504.35ZM935.106 522.35L925.821 526.064L929.382 534.965L938.426 531.783L935.106 522.35ZM931.806 514.1L928.383 504.704L918.69 508.235L922.521 517.814L931.806 514.1ZM973.806 498.8L979.256 507.184L970.383 489.404L973.806 498.8ZM970.806 500.75L961.408 504.167L965.708 515.991L976.256 509.134L970.806 500.75ZM964.806 492.2L958.146 499.659L958.222 499.727L958.298 499.793L964.806 492.2ZM943.656 491.3L948.801 499.875L948.905 499.813L949.007 499.748L943.656 491.3ZM936.606 498.8L945.437 503.492L945.437 503.492L936.606 498.8ZM936.756 521.15L927.977 525.939L928.009 525.996L928.041 526.053L936.756 521.15ZM944.106 528.8L938.881 537.326L939.04 537.424L939.204 537.516L944.106 528.8ZM962.706 530L959.116 520.667L959.054 520.69L958.992 520.715L962.706 530ZM969.906 526.1L978.393 520.811L972.712 511.695L964.025 518.013L969.906 526.1ZM976.356 536.45L981.965 544.729L989.934 539.33L984.843 531.161L976.356 536.45ZM965.856 541.55L962.694 532.063L962.657 532.076L962.619 532.088L965.856 541.55ZM954.606 533.5C948.821 533.5 944.452 532.364 941.119 530.534L931.494 548.066C938.36 551.836 946.191 553.5 954.606 553.5V533.5ZM941.249 530.607C937.643 528.557 935.013 525.919 933.139 522.639L915.774 532.561C919.499 539.081 924.769 544.243 931.363 547.993L941.249 530.607ZM933.255 522.849C931.439 519.484 930.406 515.454 930.406 510.5H910.406C910.406 518.346 912.074 525.716 915.657 532.351L933.255 522.849ZM930.406 510.5C930.406 506.19 931.474 502.477 933.555 499.119L916.557 488.581C912.439 495.223 910.406 502.61 910.406 510.5H930.406ZM933.555 499.119C935.767 495.551 938.702 492.705 942.503 490.512L932.509 473.188C925.91 476.995 920.545 482.149 916.557 488.581L933.555 499.119ZM942.503 490.512C946.083 488.447 950.14 487.35 954.906 487.35V467.35C946.872 467.35 939.329 469.253 932.509 473.188L942.503 490.512ZM954.906 487.35C961.011 487.35 965.341 489.072 968.663 492.024L981.95 477.076C974.471 470.428 965.202 467.35 954.906 467.35V487.35ZM968.663 492.024C972.22 495.186 974.973 499.793 976.503 506.556L996.01 502.144C993.74 492.107 989.193 483.514 981.95 477.076L968.663 492.024ZM982.937 494.917L931.787 512.917L938.426 531.783L989.576 513.783L982.937 494.917ZM944.391 518.636L941.091 510.386L922.521 517.814L925.821 526.064L944.391 518.636ZM935.229 523.496L977.229 508.196L970.383 489.404L928.383 504.704L935.229 523.496ZM968.356 490.416L965.356 492.366L976.256 509.134L979.256 507.184L968.356 490.416ZM980.204 497.333C978.386 492.333 975.353 488.069 971.314 484.607L958.298 499.793C959.86 501.131 960.826 502.567 961.408 504.167L980.204 497.333ZM971.466 484.741C966.483 480.292 960.299 478.45 953.856 478.45V498.45C956.414 498.45 957.529 499.108 958.146 499.659L971.466 484.741ZM953.856 478.45C948.3 478.45 943.019 479.866 938.306 482.852L949.007 499.748C950.293 498.934 951.812 498.45 953.856 498.45V478.45ZM938.511 482.725C933.895 485.495 930.296 489.363 927.775 494.108L945.437 503.492C946.316 501.837 947.417 500.705 948.801 499.875L938.511 482.725ZM927.775 494.108C925.212 498.934 924.056 504.232 924.056 509.75H944.056C944.056 507.068 944.601 505.066 945.437 503.492L927.775 494.108ZM924.056 509.75C924.056 515.48 925.267 520.97 927.977 525.939L945.535 516.361C944.645 514.73 944.056 512.62 944.056 509.75H924.056ZM928.041 526.053C930.668 530.723 934.313 534.526 938.881 537.326L949.332 520.274C947.7 519.274 946.445 517.977 945.472 516.247L928.041 526.053ZM939.204 537.516C944.032 540.232 949.347 541.5 954.906 541.5V521.5C952.466 521.5 950.58 520.968 949.009 520.084L939.204 537.516ZM954.906 541.5C958.875 541.5 962.736 540.759 966.42 539.285L958.992 520.715C957.677 521.241 956.338 521.5 954.906 521.5V541.5ZM966.296 539.333C969.691 538.028 972.865 536.313 975.788 534.187L964.025 518.013C962.548 519.087 960.921 519.972 959.116 520.667L966.296 539.333ZM961.419 531.389L967.869 541.739L984.843 531.161L978.393 520.811L961.419 531.389ZM970.748 528.171C968.474 529.711 965.811 531.024 962.694 532.063L969.019 551.037C973.701 549.476 978.038 547.389 981.965 544.729L970.748 528.171ZM962.619 532.088C959.772 533.062 957.115 533.5 954.606 533.5V553.5C959.498 553.5 964.34 552.638 969.093 551.012L962.619 532.088ZM1003.89 457.4L999.338 466.306L1004.62 469.003L1009.52 465.662L1003.89 457.4ZM996.836 453.8L989.939 446.559L979.722 456.289L992.288 462.706L996.836 453.8ZM1001.79 445.55L992.412 442.068L992.368 442.187L992.326 442.307L1001.79 445.55ZM1002.69 435.05L1001.74 425.094L990.706 426.139L992.88 437.011L1002.69 435.05ZM1013.79 434L1023.56 431.905L1021.7 423.207L1012.84 424.044L1013.79 434ZM1013.49 442.85L1023.15 445.427L1023.16 445.388L1023.17 445.349L1013.49 442.85ZM1009.74 451.25L1018.11 456.722V456.722L1009.74 451.25ZM1008.43 448.494L1001.38 444.894L992.288 462.706L999.338 466.306L1008.43 448.494ZM1003.73 461.041C1007.27 457.67 1009.66 453.405 1011.25 448.793L992.326 442.307C991.508 444.695 990.6 445.93 989.939 446.559L1003.73 461.041ZM1011.16 449.032C1013.08 443.877 1013.57 438.494 1012.49 433.089L992.88 437.011C993.199 438.606 993.097 440.223 992.412 442.068L1011.16 449.032ZM1003.63 445.006L1014.73 443.956L1012.84 424.044L1001.74 425.094L1003.63 445.006ZM1004.01 436.095C1004.25 437.206 1004.26 438.575 1003.8 440.351L1023.17 445.349C1024.31 440.925 1024.53 436.394 1023.56 431.905L1004.01 436.095ZM1003.82 440.273C1003.3 442.245 1002.48 444.067 1001.37 445.777L1018.11 456.722C1020.39 453.233 1022.07 449.455 1023.15 445.427L1003.82 440.273ZM1001.37 445.777C1000.27 447.458 999.2 448.491 998.253 449.138L1009.52 465.662C1012.97 463.308 1015.8 460.242 1018.11 456.722L1001.37 445.777ZM1043.87 479.9L1053.83 479.043L1053.05 469.9H1043.87V479.9ZM1045.07 493.85L1036.13 498.322L1055.03 492.993L1045.07 493.85ZM1044.47 492.65L1035.49 488.254L1033.32 492.698L1035.53 497.122L1044.47 492.65ZM1054.22 481.55L1048.9 473.081L1048.86 473.109L1048.81 473.138L1054.22 481.55ZM1078.22 479.15L1081.99 469.889L1078.22 479.15ZM1084.82 483.95L1077.05 490.242L1077.21 490.445L1077.39 490.64L1084.82 483.95ZM1088.27 491.45L1093.42 500.025L1099.25 496.522L1098.14 489.806L1088.27 491.45ZM1087.52 491.9L1078.7 487.194L1061.71 519.05L1092.67 500.475L1087.52 491.9ZM1097.42 481.4L1102.54 489.993L1102.57 489.975L1102.6 489.957L1097.42 481.4ZM1125.32 482.75L1118.25 489.821L1118.35 489.922L1118.46 490.02L1125.32 482.75ZM1130.87 496.1H1140.87V496.009L1140.87 495.918L1130.87 496.1ZM1130.87 542V552H1140.87V542H1130.87ZM1116.92 542H1106.92V552H1116.92V542ZM1116.92 501.05H1126.92V500.894L1126.92 500.738L1116.92 501.05ZM1114.52 493.1L1106.08 498.469L1106.23 498.695L1106.38 498.912L1114.52 493.1ZM1107.02 489.5L1107.58 479.515L1107.3 479.5H1107.02V489.5ZM1097.27 492.8L1091.23 484.833L1091.16 484.884L1091.09 484.937L1097.27 492.8ZM1090.67 501.35L1099.72 505.608L1099.74 505.558L1099.77 505.508L1090.67 501.35ZM1088.12 512.45L1078.12 512.2L1078.12 512.325V512.45H1088.12ZM1088.12 542V552H1098.12V542H1088.12ZM1074.17 542H1064.17V552H1074.17V542ZM1074.17 501.05H1084.17V500.894L1084.17 500.738L1074.17 501.05ZM1071.62 493.1L1063.36 498.733L1063.51 498.951L1063.67 499.16L1071.62 493.1ZM1063.97 489.5L1064.53 479.515L1064.25 479.5H1063.97V489.5ZM1054.22 492.8L1060.4 500.663L1054.22 492.8ZM1047.62 501.35L1038.53 497.192L1038.48 497.301L1038.43 497.411L1047.62 501.35ZM1045.37 542V552H1055.37V542H1045.37ZM1031.42 542H1021.42V552H1031.42V542ZM1031.42 479.9V469.9H1021.42V479.9H1031.42ZM1033.91 480.757L1035.11 494.707L1055.03 492.993L1053.83 479.043L1033.91 480.757ZM1054.02 489.378L1053.42 488.178L1035.53 497.122L1036.13 498.322L1054.02 489.378ZM1053.45 497.046C1054.99 493.903 1057.04 491.626 1059.63 489.962L1048.81 473.138C1043 476.874 1038.55 481.997 1035.49 488.254L1053.45 497.046ZM1059.54 490.019C1062.11 488.402 1065.14 487.5 1068.92 487.5V467.5C1061.7 467.5 1054.93 469.298 1048.9 473.081L1059.54 490.019ZM1068.92 487.5C1071.38 487.5 1073.16 487.886 1074.45 488.411L1081.99 469.889C1077.88 468.214 1073.46 467.5 1068.92 467.5V487.5ZM1074.45 488.411C1075.71 488.926 1076.49 489.556 1077.05 490.242L1092.59 477.658C1089.75 474.144 1086.13 471.574 1081.99 469.889L1074.45 488.411ZM1077.39 490.64C1077.75 491.045 1078.18 491.721 1078.41 493.094L1098.14 489.806C1097.36 485.179 1095.49 480.855 1092.25 477.26L1077.39 490.64ZM1083.13 482.875L1082.38 483.325L1092.67 500.475L1093.42 500.025L1083.13 482.875ZM1096.35 496.606C1097.93 493.642 1099.97 491.518 1102.54 489.993L1092.31 472.807C1086.47 476.282 1081.92 481.158 1078.7 487.194L1096.35 496.606ZM1102.6 489.957C1105.45 488.233 1108.17 487.5 1110.92 487.5V467.5C1104.27 467.5 1098 469.367 1092.25 472.843L1102.6 489.957ZM1110.92 487.5C1115.02 487.5 1117.04 488.613 1118.25 489.821L1132.39 475.679C1126.6 469.887 1119.02 467.5 1110.92 467.5V487.5ZM1118.46 490.02C1119.87 491.361 1120.82 493.142 1120.87 496.282L1140.87 495.918C1140.73 488.058 1137.97 480.939 1132.19 475.48L1118.46 490.02ZM1120.87 496.1V542H1140.87V496.1H1120.87ZM1130.87 532H1116.92V552H1130.87V532ZM1126.92 542V501.05H1106.92V542H1126.92ZM1126.92 500.738C1126.77 496.039 1125.56 491.346 1122.66 487.288L1106.38 498.912C1106.49 499.054 1106.87 499.661 1106.93 501.362L1126.92 500.738ZM1122.96 487.731C1119.22 481.857 1113.07 479.82 1107.58 479.515L1106.47 499.485C1107.33 499.533 1107.5 499.675 1107.27 499.565C1107.14 499.504 1106.93 499.382 1106.69 499.175C1106.45 498.965 1106.25 498.721 1106.08 498.469L1122.96 487.731ZM1107.02 479.5C1101.21 479.5 1095.85 481.33 1091.23 484.833L1103.32 500.767C1104.5 499.87 1105.63 499.5 1107.02 499.5V479.5ZM1091.09 484.937C1086.94 488.2 1083.78 492.362 1081.58 497.192L1099.77 505.508C1100.76 503.338 1102 501.8 1103.45 500.663L1091.09 484.937ZM1081.62 497.092C1079.39 501.828 1078.26 506.904 1078.12 512.2L1098.12 512.7C1098.19 509.996 1098.75 507.672 1099.72 505.608L1081.62 497.092ZM1078.12 512.45V542H1098.12V512.45H1078.12ZM1088.12 532H1074.17V552H1088.12V532ZM1084.17 542V501.05H1064.17V542H1084.17ZM1084.17 500.738C1084.02 495.907 1082.69 491.122 1079.58 487.04L1063.67 499.16C1063.76 499.278 1064.13 499.793 1064.18 501.362L1084.17 500.738ZM1079.88 487.467C1076.06 481.855 1070.05 479.822 1064.53 479.515L1063.42 499.485C1064.28 499.532 1064.49 499.675 1064.33 499.598C1064.23 499.555 1064.07 499.462 1063.87 499.296C1063.67 499.129 1063.5 498.934 1063.36 498.733L1079.88 487.467ZM1063.97 479.5C1058.13 479.5 1052.68 481.295 1048.04 484.937L1060.4 500.663C1061.37 499.905 1062.42 499.5 1063.97 499.5V479.5ZM1048.04 484.937C1043.89 488.2 1040.73 492.362 1038.53 497.192L1056.72 505.508C1057.71 503.338 1058.95 501.8 1060.4 500.663L1048.04 484.937ZM1038.43 497.411C1036.37 502.218 1035.37 507.315 1035.37 512.6H1055.37C1055.37 509.885 1055.87 507.482 1056.81 505.289L1038.43 497.411ZM1035.37 512.6V542H1055.37V512.6H1035.37ZM1045.37 532H1031.42V552H1045.37V532ZM1041.42 542V479.9H1021.42V542H1041.42ZM1031.42 489.9H1043.87V469.9H1031.42V489.9ZM1198.16 433.55V423.55H1188.16V433.55H1198.16ZM1270.16 433.55H1280.16V423.55H1270.16V433.55ZM1270.16 447.5V457.5H1280.16V447.5H1270.16ZM1241.06 447.5V437.5H1231.06V447.5H1241.06ZM1241.06 542V552H1251.06V542H1241.06ZM1226.51 542H1216.51V552H1226.51V542ZM1226.51 447.5H1236.51V437.5H1226.51V447.5ZM1198.16 447.5H1188.16V457.5H1198.16V447.5ZM1198.16 443.55H1270.16V423.55H1198.16V443.55ZM1260.16 433.55V447.5H1280.16V433.55H1260.16ZM1270.16 437.5H1241.06V457.5H1270.16V437.5ZM1231.06 447.5V542H1251.06V447.5H1231.06ZM1241.06 532H1226.51V552H1241.06V532ZM1236.51 542V447.5H1216.51V542H1236.51ZM1226.51 437.5H1198.16V457.5H1226.51V437.5ZM1208.16 447.5V433.55H1188.16V447.5H1208.16ZM1283.61 539.75L1278.91 548.579L1278.95 548.599L1278.99 548.619L1283.61 539.75ZM1272.36 528.8L1263.6 533.626L1263.66 533.733L1263.72 533.839L1272.36 528.8ZM1272.66 493.1L1281.31 498.117L1281.33 498.08L1281.35 498.043L1272.66 493.1ZM1284.21 481.4L1279.38 472.642L1279.34 472.663L1279.3 472.684L1284.21 481.4ZM1314.96 481.4L1309.36 489.688L1309.43 489.737L1309.51 489.784L1314.96 481.4ZM1324.11 490.7L1333.47 494.211L1335.14 489.764L1332.74 485.661L1324.11 490.7ZM1323.21 493.1L1313.26 492.083L1332.57 496.611L1323.21 493.1ZM1324.56 479.9V469.9H1315.53L1314.61 478.883L1324.56 479.9ZM1337.46 479.9H1347.46V469.9H1337.46V479.9ZM1337.46 542V552H1347.46V542H1337.46ZM1323.51 542H1313.51V552H1323.51V542ZM1323.51 525.8L1332.74 521.954L1313.51 525.8H1323.51ZM1325.01 529.4L1334.29 533.114L1335.81 529.323L1334.24 525.554L1325.01 529.4ZM1322.31 533.3L1314.78 526.715L1314.77 526.733L1314.75 526.751L1322.31 533.3ZM1316.91 537.95L1311.2 529.741L1311.11 529.801L1311.02 529.863L1316.91 537.95ZM1309.26 542L1312.52 551.454L1312.66 551.404L1312.8 551.35L1309.26 542ZM1312.71 530L1308.5 520.93L1312.71 530ZM1319.61 524.6L1311.77 518.393L1311.75 518.415L1311.73 518.437L1319.61 524.6ZM1323.51 516.05L1333.29 518.125L1333.51 517.099V516.05H1323.51ZM1323.51 503.9H1333.51V502.59L1333.17 501.323L1323.51 503.9ZM1319.31 496.1L1311.76 502.662L1311.83 502.745L1311.91 502.827L1319.31 496.1ZM1312.11 490.85L1307.9 499.92L1308.03 499.983L1308.17 500.041L1312.11 490.85ZM1292.61 491.6L1287.59 482.952V482.952L1292.61 491.6ZM1285.11 499.1L1276.51 493.995L1276.45 494.095L1276.39 494.197L1285.11 499.1ZM1285.26 521.3L1293.92 516.31V516.31L1285.26 521.3ZM1299.51 533.5C1295.2 533.5 1291.5 532.585 1288.23 530.881L1278.99 548.619C1285.32 551.915 1292.22 553.5 1299.51 553.5V533.5ZM1288.3 530.921C1285.32 529.333 1282.9 527.03 1280.99 523.761L1263.72 533.839C1267.41 540.17 1272.5 545.167 1278.91 548.579L1288.3 530.921ZM1281.12 523.974C1279.41 520.879 1278.31 516.679 1278.31 510.95H1258.31C1258.31 519.221 1259.9 526.921 1263.6 533.626L1281.12 523.974ZM1278.31 510.95C1278.31 505.47 1279.45 501.322 1281.31 498.117L1264.01 488.083C1260.07 494.878 1258.31 502.63 1258.31 510.95H1278.31ZM1281.35 498.043C1283.41 494.414 1286 491.867 1289.11 490.116L1279.3 472.684C1272.82 476.333 1267.7 481.586 1263.96 488.157L1281.35 498.043ZM1289.03 490.158C1292.4 488.303 1296.08 487.35 1300.26 487.35V467.35C1292.83 467.35 1285.81 469.097 1279.38 472.642L1289.03 490.158ZM1300.26 487.35C1304.47 487.35 1307.32 488.313 1309.36 489.688L1320.55 473.112C1314.59 469.087 1307.64 467.35 1300.26 467.35V487.35ZM1309.51 489.784C1312.39 491.657 1314.26 493.671 1315.47 495.739L1332.74 485.661C1329.75 480.529 1325.53 476.343 1320.41 473.016L1309.51 489.784ZM1314.74 487.189L1313.84 489.589L1332.57 496.611L1333.47 494.211L1314.74 487.189ZM1333.15 494.117L1334.5 480.917L1314.61 478.883L1313.26 492.083L1333.15 494.117ZM1324.56 489.9H1337.46V469.9H1324.56V489.9ZM1327.46 479.9V542H1347.46V479.9H1327.46ZM1337.46 532H1323.51V552H1337.46V532ZM1333.51 542V525.8H1313.51V542H1333.51ZM1314.28 529.646L1315.78 533.246L1334.24 525.554L1332.74 521.954L1314.28 529.646ZM1315.72 525.686C1315.82 525.441 1315.9 525.304 1315.91 525.286C1315.92 525.263 1315.89 525.311 1315.81 525.433C1315.63 525.688 1315.31 526.109 1314.78 526.715L1329.83 539.885C1331.4 538.096 1333.24 535.75 1334.29 533.114L1315.72 525.686ZM1314.75 526.751C1314.17 527.425 1313.07 528.438 1311.2 529.741L1322.62 546.159C1325.34 544.262 1327.85 542.175 1329.86 539.849L1314.75 526.751ZM1311.02 529.863C1309.64 530.873 1307.89 531.822 1305.71 532.65L1312.8 551.35C1316.42 549.978 1319.78 548.227 1322.79 546.037L1311.02 529.863ZM1306 532.546C1304.31 533.128 1302.19 533.5 1299.51 533.5V553.5C1304.03 553.5 1308.4 552.872 1312.52 551.454L1306 532.546ZM1303.26 541.95C1308.02 541.95 1312.63 541.06 1316.92 539.07L1308.5 520.93C1307.18 521.54 1305.5 521.95 1303.26 521.95V541.95ZM1316.92 539.07C1321.07 537.143 1324.65 534.379 1327.48 530.763L1311.73 518.437C1310.96 519.421 1309.95 520.257 1308.5 520.93L1316.92 539.07ZM1327.45 530.807C1330.4 527.079 1332.3 522.777 1333.29 518.125L1313.72 513.975C1313.31 515.923 1312.61 517.321 1311.77 518.393L1327.45 530.807ZM1333.51 516.05V503.9H1313.51V516.05H1333.51ZM1333.17 501.323C1331.98 496.85 1329.83 492.809 1326.71 489.373L1311.91 502.827C1312.78 503.791 1313.44 504.95 1313.84 506.477L1333.17 501.323ZM1326.85 489.538C1323.86 486.102 1320.23 483.452 1316.05 481.659L1308.17 500.041C1309.58 500.648 1310.75 501.498 1311.76 502.662L1326.85 489.538ZM1316.32 481.78C1312.07 479.808 1307.51 478.9 1302.81 478.9V498.9C1304.9 498.9 1306.54 499.292 1307.9 499.92L1316.32 481.78ZM1302.81 478.9C1297.4 478.9 1292.26 480.237 1287.59 482.952L1297.63 500.248C1299.15 499.363 1300.81 498.9 1302.81 498.9V478.9ZM1287.59 482.952C1282.95 485.642 1279.24 489.386 1276.51 493.995L1293.71 504.205C1294.77 502.414 1296.06 501.158 1297.63 500.248L1287.59 482.952ZM1276.39 494.197C1273.61 499.132 1272.41 504.628 1272.41 510.35H1292.41C1292.41 507.472 1293 505.468 1293.82 504.003L1276.39 494.197ZM1272.41 510.35C1272.41 516.009 1273.77 521.394 1276.59 526.29L1293.92 516.31C1292.94 514.606 1292.41 512.691 1292.41 510.35H1272.41ZM1276.59 526.29C1279.33 531.042 1283.09 534.9 1287.8 537.699L1298.01 520.501C1296.32 519.5 1294.99 518.158 1293.92 516.31L1276.59 526.29ZM1287.8 537.699C1292.54 540.51 1297.75 541.95 1303.26 541.95V521.95C1301.36 521.95 1299.68 521.49 1298.01 520.501L1287.8 537.699ZM1385 503L1376.59 497.592L1373.51 502.381L1376.05 507.472L1385 503ZM1399.85 479.9V469.9H1394.39L1391.44 474.492L1399.85 479.9ZM1413.95 479.9L1422.08 485.723L1433.41 469.9H1413.95V479.9ZM1390.1 513.2L1381.15 517.672L1388.57 532.506L1398.23 519.023L1390.1 513.2ZM1416.35 542V552H1436.41L1424.33 535.981L1416.35 542ZM1399.55 542L1391.59 548.055L1394.59 552H1399.55V542ZM1352.3 479.9V469.9H1332.12L1344.34 485.955L1352.3 479.9ZM1369.55 479.9L1377.53 473.881L1374.53 469.9H1369.55V479.9ZM1383.5 518.9L1391.66 524.677L1395.8 518.827L1391.59 513.026L1383.5 518.9ZM1367.15 542V552H1372.32L1375.31 547.777L1367.15 542ZM1353.05 542L1344.98 536.096L1333.34 552H1353.05V542ZM1376.75 509.6L1384.84 503.726L1376.78 492.619L1368.68 503.696L1376.75 509.6ZM1393.41 508.408L1408.26 485.308L1391.44 474.492L1376.59 497.592L1393.41 508.408ZM1399.85 489.9H1413.95V469.9H1399.85V489.9ZM1405.82 474.077L1381.97 507.377L1398.23 519.023L1422.08 485.723L1405.82 474.077ZM1399.04 508.728L1393.94 498.528L1376.05 507.472L1381.15 517.672L1399.04 508.728ZM1416.35 532H1399.55V552H1416.35V532ZM1407.51 535.945L1360.26 473.845L1344.34 485.955L1391.59 548.055L1407.51 535.945ZM1352.3 489.9H1369.55V469.9H1352.3V489.9ZM1361.56 485.918L1408.36 548.019L1424.33 535.981L1377.53 473.881L1361.56 485.918ZM1375.34 513.123L1358.98 536.223L1375.31 547.777L1391.66 524.677L1375.34 513.123ZM1367.15 532H1353.05V552H1367.15V532ZM1361.12 547.904L1384.82 515.504L1368.68 503.696L1344.98 536.096L1361.12 547.904ZM1368.65 515.474L1375.4 524.774L1391.59 513.026L1384.84 503.726L1368.65 515.474ZM1431.32 479.9V469.9H1421.32V479.9H1431.32ZM1445.27 479.9H1455.27V469.9H1445.27V479.9ZM1445.27 542V552H1455.27V542H1445.27ZM1431.32 542H1421.32V552H1431.32V542ZM1432.82 451.85L1426.42 444.168L1426.31 444.258L1426.21 444.352L1432.82 451.85ZM1444.22 451.85L1437.38 459.145L1437.49 459.249L1437.61 459.348L1444.22 451.85ZM1444.22 463.1L1450.81 470.626L1450.82 470.612L1450.84 470.598L1444.22 463.1ZM1432.82 462.95L1426.21 470.448L1426.31 470.542L1426.42 470.632L1432.82 462.95ZM1431.32 489.9H1445.27V469.9H1431.32V489.9ZM1435.27 479.9V542H1455.27V479.9H1435.27ZM1445.27 532H1431.32V552H1445.27V532ZM1441.32 542V479.9H1421.32V542H1441.32ZM1440.27 457.4C1440.27 457.623 1440.22 458.05 1440 458.537C1439.78 459.018 1439.52 459.28 1439.44 459.348L1426.21 444.352C1422.43 447.684 1420.27 452.232 1420.27 457.4H1440.27ZM1439.23 459.532C1439.39 459.399 1439.39 459.434 1439.23 459.496C1439.15 459.526 1439.05 459.554 1438.95 459.573C1438.84 459.593 1438.75 459.6 1438.67 459.6V439.6C1433.96 439.6 1429.8 441.355 1426.42 444.168L1439.23 459.532ZM1438.67 459.6C1438.5 459.6 1438.21 459.564 1437.88 459.43C1437.73 459.368 1437.6 459.301 1437.51 459.242C1437.43 459.184 1437.38 459.144 1437.38 459.145L1451.06 444.555C1447.7 441.402 1443.44 439.6 1438.67 439.6V459.6ZM1437.61 459.348C1437.53 459.28 1437.27 459.018 1437.05 458.537C1436.83 458.05 1436.77 457.623 1436.77 457.4H1456.77C1456.77 452.232 1454.62 447.684 1450.84 444.352L1437.61 459.348ZM1436.77 457.4C1436.77 457.291 1436.8 456.93 1437.01 456.466C1437.22 455.999 1437.48 455.712 1437.61 455.602L1450.84 470.598C1454.73 467.169 1456.77 462.521 1456.77 457.4H1436.77ZM1437.64 455.574C1437.67 455.547 1437.83 455.425 1438.1 455.322C1438.37 455.218 1438.59 455.2 1438.67 455.2V475.2C1443.23 475.2 1447.41 473.599 1450.81 470.626L1437.64 455.574ZM1438.67 455.2C1438.75 455.2 1438.84 455.207 1438.95 455.227C1439.05 455.246 1439.15 455.274 1439.23 455.304C1439.39 455.366 1439.39 455.401 1439.23 455.268L1426.42 470.632C1429.8 473.445 1433.96 475.2 1438.67 475.2V455.2ZM1439.44 455.452C1439.52 455.52 1439.78 455.782 1440 456.262C1440.22 456.75 1440.27 457.177 1440.27 457.4H1420.27C1420.27 462.568 1422.43 467.116 1426.21 470.448L1439.44 455.452Z" fill="#FECB00" mask="url(#path-1-outside-1_218_270)"/>
<path d="M653.2 596.2C621.2 596.2 594 590.2 571.6 578.2C549.6 566.2 532.8 549.6 521.2 528.4C509.6 507.2 503.8 482.8 503.8 455.2C503.8 428.8 510.6 405 524.2 383.8C537.8 362.6 556 345.8 578.8 333.4C601.6 320.6 627 314.2 655 314.2C692.6 314.2 723.4 325.2 747.4 347.2C771.8 368.8 787.6 400.2 794.8 441.4L590.8 506.2L572.2 460.6L719.8 410.8L702.4 418.6C699.2 408.2 693.4 399.2 685 391.6C677 383.6 664.8 379.6 648.4 379.6C636 379.6 625 382.6 615.4 388.6C606.2 394.2 599 402.4 593.8 413.2C589 423.6 586.6 436 586.6 450.4C586.6 466.8 589.6 480.6 595.6 491.8C601.6 502.6 609.8 510.8 620.2 516.4C630.6 522 642.2 524.8 655 524.8C664.2 524.8 673 523.2 681.4 520C690.2 516.8 698.8 512.6 707.2 507.4L744.4 569.8C730.4 577.8 715.2 584.2 698.8 589C682.8 593.8 667.6 596.2 653.2 596.2Z" fill="#FECB00"/>
<rect x="461" y="245.182" width="39" height="90" rx="19.5" transform="rotate(-32.4586 461 245.182)" fill="#FECB00"/>
<rect x="610.25" y="189.005" width="39" height="90" rx="19.5" fill="#FECB00"/>
<rect x="756.082" y="207.75" width="39" height="90" rx="19.5" transform="rotate(25.3849 756.082 207.75)" fill="#FECB00"/>
<rect x="608" y="381" width="58.8769" height="58.8769" rx="29.4384" fill="#0B0B0B"/>
<rect x="608" y="381" width="58.8769" height="58.8769" rx="29.4384" stroke="#FECB00" stroke-width="4"/>
<path d="M785.446 456.747C784.963 459.409 781.482 460.123 779.991 457.867L771.654 445.253C770.482 443.482 771.473 441.087 773.553 440.66L784.585 438.396C786.666 437.969 788.519 439.78 788.14 441.87L785.446 456.747Z" fill="#FECB00"/>
<path d="M695.251 500.404C695.657 497.73 699.116 496.917 700.671 499.13L709.366 511.5C710.587 513.237 709.665 515.659 707.598 516.145L696.635 518.724C694.568 519.21 692.663 517.453 692.982 515.353L695.251 500.404Z" fill="#FECB00"/>
<path d="M269.427 753.949V743.036C269.427 739.862 270.037 736.591 271.258 733.222C272.479 729.853 274.09 726.679 276.092 723.7C278.094 720.673 280.291 718.109 282.684 716.01L292.498 721.723C290.74 724.652 289.227 727.802 287.957 731.171C286.688 734.54 286.053 738.495 286.053 743.036V753.949H269.427ZM294.329 753.949V743.036C294.329 739.862 294.939 736.591 296.16 733.222C297.381 729.853 298.992 726.679 300.994 723.7C302.996 720.673 305.193 718.109 307.586 716.01L317.4 721.723C315.643 724.652 314.129 727.802 312.859 731.171C311.59 734.54 310.955 738.495 310.955 743.036V753.949H294.329ZM361.695 716.1H377.895V736.35C377.895 772.05 365.595 804.3 337.995 817.05L326.145 800.55C350.295 790.05 361.695 763.35 361.695 736.35V716.1ZM365.595 716.1H381.795V736.35C381.795 762 392.745 787.5 416.445 797.7L404.745 813.75C377.895 801.45 365.595 770.55 365.595 736.35V716.1ZM423.045 705.3H443.145V844.65H423.045V705.3ZM555.183 705.45H575.133V786H555.183V705.45ZM569.583 737.7H593.583V754.2H569.583V737.7ZM515.283 713.25H536.433C536.433 750.3 513.333 775.35 472.083 786L463.983 770.7C498.183 762 515.283 744.15 515.283 723.15V713.25ZM470.883 713.25H527.283V729H470.883V713.25ZM482.433 791.85H575.133V844.35H555.183V807.6H482.433V791.85ZM634.671 720.9H651.021V729.6C651.021 756.15 638.571 780 611.721 788.85L601.821 773.1C624.921 765.45 634.671 747.3 634.671 729.6V720.9ZM638.721 720.9H654.921V729.6C654.921 745.8 664.221 761.7 686.571 768.45L677.121 784.05C650.721 776.1 638.721 754.35 638.721 729.6V720.9ZM607.071 714.75H682.071V730.65H607.071V714.75ZM693.171 705.45H713.121V787.8H693.171V705.45ZM707.571 737.4H731.571V753.75H707.571V737.4ZM667.821 790.35C696.621 790.35 714.771 800.4 714.771 817.35C714.771 834.3 696.621 844.35 667.821 844.35C638.871 844.35 620.721 834.3 620.721 817.35C620.721 800.4 638.871 790.35 667.821 790.35ZM667.821 805.95C650.121 805.95 640.521 809.55 640.521 817.35C640.521 825.15 650.121 829.05 667.821 829.05C685.521 829.05 694.971 825.15 694.971 817.35C694.971 809.55 685.521 805.95 667.821 805.95ZM772.96 715.2C791.41 715.2 803.26 734.25 803.26 765.6C803.26 797.1 791.41 816.15 772.96 816.15C754.66 816.15 742.96 797.1 742.96 765.6C742.96 734.25 754.66 715.2 772.96 715.2ZM772.96 733.95C765.46 733.95 761.11 744.45 761.11 765.6C761.11 786.9 765.46 797.25 772.96 797.25C780.61 797.25 784.96 786.9 784.96 765.6C784.96 744.45 780.61 733.95 772.96 733.95ZM842.11 705.45H861.16V844.35H842.11V705.45ZM825.46 758.4H848.41V774.45H825.46V758.4ZM811.66 707.55H830.41V838.05H811.66V707.55ZM975.148 705.6H995.248V805.35H975.148V705.6ZM902.698 826.05H998.698V841.95H902.698V826.05ZM902.698 795.3H922.648V832.5H902.698V795.3ZM919.648 714.3C940.948 714.3 957.298 729 957.298 749.55C957.298 769.95 940.948 784.8 919.648 784.8C898.348 784.8 881.848 769.95 881.848 749.55C881.848 729 898.348 714.3 919.648 714.3ZM919.648 731.55C909.298 731.55 901.348 738.15 901.348 749.55C901.348 760.8 909.298 767.4 919.648 767.4C929.848 767.4 937.798 760.8 937.798 749.55C937.798 738.15 929.848 731.55 919.648 731.55ZM1040.15 718.5V729.633C1040.15 732.807 1039.54 736.078 1038.32 739.447C1037.15 742.816 1035.56 746.015 1033.56 749.042C1031.56 752.021 1029.36 754.56 1026.97 756.659L1017.08 750.946C1018.89 748.065 1020.43 744.94 1021.7 741.571C1022.97 738.153 1023.6 734.198 1023.6 729.706V718.5H1040.15ZM1065.42 718.5V729.633C1065.42 732.807 1064.81 736.078 1063.59 739.447C1062.42 742.816 1060.83 746.015 1058.83 749.042C1056.83 752.021 1054.63 754.56 1052.24 756.659L1042.35 750.946C1044.16 748.065 1045.7 744.94 1046.97 741.571C1048.24 738.153 1048.87 734.198 1048.87 729.706V718.5H1065.42ZM1104.95 773.32C1119.72 773.32 1128.4 777.24 1128.4 784.38C1128.4 791.52 1119.72 795.44 1104.95 795.44C1090.11 795.44 1081.5 791.52 1081.5 784.38C1081.5 777.24 1090.11 773.32 1104.95 773.32ZM1104.95 780.11C1095.57 780.11 1091.16 781.51 1091.16 784.38C1091.16 787.39 1095.57 788.65 1104.95 788.65C1114.33 788.65 1118.74 787.39 1118.74 784.38C1118.74 781.51 1114.33 780.11 1104.95 780.11ZM1075.62 798.45H1134.21V805.8H1075.62V798.45ZM1082.34 809.44H1127.14V826.1H1091.58V831.84H1082.41V819.66H1117.97V816.37H1082.34V809.44ZM1082.41 829.81H1128.82V836.81H1082.41V829.81ZM1178.45 775C1188.32 775 1195.46 780.67 1195.46 788.86C1195.46 796.91 1188.32 802.72 1178.45 802.72C1168.65 802.72 1161.51 796.91 1161.51 788.86C1161.51 780.67 1168.65 775 1178.45 775ZM1178.45 782.56C1173.76 782.56 1170.4 784.8 1170.4 788.86C1170.4 792.85 1173.76 795.09 1178.45 795.09C1183.21 795.09 1186.57 792.85 1186.57 788.86C1186.57 784.8 1183.21 782.56 1178.45 782.56ZM1174.11 809.16H1183.42V835.27H1174.11V809.16ZM1202.46 772.41H1211.7V837.23H1202.46V772.41ZM1158.78 814.06L1157.66 806.5C1169 806.5 1185.03 806.36 1198.75 804.26L1199.38 811.05C1185.31 813.85 1169.98 813.99 1158.78 814.06ZM1263.56 772.48H1272.87V820.92H1263.56V772.48ZM1270.21 792.22H1281.48V799.85H1270.21V792.22ZM1221.84 779.2H1259.99V786.48H1221.84V779.2ZM1240.95 788.79C1250.26 788.79 1256.84 793.9 1256.84 801.32C1256.84 808.74 1250.26 813.78 1240.95 813.78C1231.57 813.78 1224.99 808.74 1224.99 801.32C1224.99 793.9 1231.57 788.79 1240.95 788.79ZM1240.95 795.86C1236.82 795.86 1233.95 797.82 1233.95 801.32C1233.95 804.82 1236.82 806.71 1240.95 806.71C1245.08 806.71 1247.95 804.82 1247.95 801.32C1247.95 797.82 1245.08 795.86 1240.95 795.86ZM1236.26 772.34H1245.57V782.77H1236.26V772.34ZM1231.08 828.69H1275.18V836.11H1231.08V828.69ZM1231.08 817.28H1240.39V831.91H1231.08V817.28ZM1305.84 801.95H1310.32C1319.7 801.95 1325.72 801.81 1332.86 800.62L1333.7 808.04C1326.28 809.3 1319.98 809.51 1310.32 809.51H1305.84V801.95ZM1305.84 776.75H1331.39V784.17H1314.8V806.08H1305.84V776.75ZM1312.14 789.42H1330.69V796.42H1312.14V789.42ZM1350.08 772.41H1358.9V811.96H1350.08V772.41ZM1342.31 788.3H1352.6V795.72H1342.31V788.3ZM1336.22 773.6H1344.9V811.54H1336.22V773.6ZM1314.38 814.76H1358.9V837.23H1349.66V822.18H1314.38V814.76ZM1383.88 777.38H1391.44V786.83C1391.44 803.49 1385.7 818.54 1372.82 824.49L1367.29 816.79C1378.56 811.89 1383.88 799.43 1383.88 786.83V777.38ZM1385.7 777.38H1393.26V786.83C1393.26 798.8 1398.37 810.7 1409.43 815.46L1403.97 822.95C1391.44 817.21 1385.7 802.79 1385.7 786.83V777.38ZM1412.51 772.34H1421.89V837.37H1412.51V772.34ZM1452.41 780.46H1505.89V787.88H1452.41V780.46ZM1449.96 823.23H1508.62V830.72H1449.96V823.23ZM1474.53 814.69H1483.77V826.17H1474.53V814.69ZM1479.08 790.68C1492.59 790.68 1501.06 795.37 1501.06 803.35C1501.06 811.33 1492.59 816.02 1479.08 816.02C1465.57 816.02 1457.1 811.33 1457.1 803.35C1457.1 795.37 1465.57 790.68 1479.08 790.68ZM1479.08 797.89C1470.96 797.89 1466.62 799.64 1466.62 803.35C1466.62 807.06 1470.96 808.74 1479.08 808.74C1487.2 808.74 1491.54 807.06 1491.54 803.35C1491.54 799.64 1487.2 797.89 1479.08 797.89ZM1474.53 773.11H1483.77V785.08H1474.53V773.11ZM1538.92 805.38H1548.23V814.76H1538.92V805.38ZM1514.42 799.92H1572.8V806.71H1514.42V799.92ZM1538.92 772.34H1548.16V780.18H1538.92V772.34ZM1538.36 780.6H1546.55V781.86C1546.55 791.17 1537.1 797.33 1519.18 798.31L1516.59 791.38C1532.41 790.75 1538.36 786.34 1538.36 781.86V780.6ZM1540.53 780.6H1548.72V781.86C1548.72 786.34 1554.67 790.75 1570.42 791.38L1567.83 798.31C1549.98 797.33 1540.53 791.17 1540.53 781.86V780.6ZM1519.88 777.45H1567.27V784.24H1519.88V777.45ZM1521 810.63H1565.8V826.66H1530.24V832.82H1521.07V820.43H1556.63V817.35H1521V810.63ZM1521.07 830.02H1567.48V836.81H1521.07V830.02ZM1611.16 775.91C1619.77 775.91 1626 782.07 1626 790.96C1626 799.85 1619.77 806.01 1611.16 806.01C1602.48 806.01 1596.32 799.85 1596.32 790.96C1596.32 782.07 1602.48 775.91 1611.16 775.91ZM1611.16 783.4C1607.38 783.4 1604.72 786.13 1604.72 790.96C1604.72 795.72 1607.38 798.45 1611.16 798.45C1614.87 798.45 1617.6 795.72 1617.6 790.96C1617.6 786.13 1614.87 783.4 1611.16 783.4ZM1642.52 772.48H1651.34V807.62H1642.52V772.48ZM1634.96 785.92H1645.25V793.41H1634.96V785.92ZM1628.8 773.67H1637.48V807.2H1628.8V773.67ZM1607.38 810.35H1616.55V816.16H1642.24V810.35H1651.34V836.53H1607.38V810.35ZM1616.55 823.37V829.11H1642.24V823.37H1616.55Z" fill="#FECB00"/>
<path d="M1588.27 988.136H1592.45C1592.45 999.176 1584.53 1006.95 1571.76 1010.36L1570.22 1007.19C1581.5 1004.22 1588.27 997.928 1588.27 989.912V988.136ZM1572.48 988.136H1590.58V991.352H1572.48V988.136ZM1601.28 985.352H1605.31V1009.83H1601.28V985.352ZM1577.23 1011.94H1605.31V1028.17H1577.23V1011.94ZM1601.38 1015.16H1581.17V1024.9H1601.38V1015.16ZM1613.9 1006.71H1653.12V1009.98H1613.9V1006.71ZM1631.52 999.752H1635.45V1008.06H1631.52V999.752ZM1618.84 998.504H1648.56V1001.77H1618.84V998.504ZM1618.84 987.32H1648.22V990.536H1622.78V1000.42H1618.84V987.32ZM1633.44 1013.1C1642.7 1013.1 1648.32 1015.93 1648.32 1020.87C1648.32 1025.91 1642.7 1028.7 1633.44 1028.7C1624.17 1028.7 1618.56 1025.91 1618.56 1020.87C1618.56 1015.93 1624.17 1013.1 1633.44 1013.1ZM1633.44 1016.17C1626.67 1016.17 1622.59 1017.9 1622.59 1020.87C1622.59 1023.9 1626.67 1025.58 1633.44 1025.58C1640.25 1025.58 1644.28 1023.9 1644.28 1020.87C1644.28 1017.9 1640.25 1016.17 1633.44 1016.17ZM1670.2 986.936C1676.68 986.936 1681.43 990.872 1681.43 996.584C1681.43 1002.25 1676.68 1006.18 1670.2 1006.18C1663.77 1006.18 1659.02 1002.25 1659.02 996.584C1659.02 990.872 1663.77 986.936 1670.2 986.936ZM1670.2 990.2C1666.02 990.2 1662.86 992.84 1662.86 996.584C1662.86 1000.33 1666.02 1002.92 1670.2 1002.92C1674.42 1002.92 1677.54 1000.33 1677.54 996.584C1677.54 992.84 1674.42 990.2 1670.2 990.2ZM1689.59 985.352H1693.62V1007.58H1689.59V985.352ZM1665.54 1009.69H1693.62V1020.25H1669.53V1026.78H1665.64V1017.27H1689.69V1012.9H1665.54V1009.69ZM1665.64 1025H1695.06V1028.17H1665.64V1025ZM1707.05 1019.84V1023.34C1707.05 1024.76 1706.7 1026.26 1705.98 1027.84C1705.26 1029.43 1704.25 1030.76 1702.95 1031.82L1700.49 1030.11C1700.99 1029.42 1701.41 1028.72 1701.76 1028C1702.1 1027.3 1702.36 1026.56 1702.53 1025.8C1702.72 1025.05 1702.81 1024.25 1702.81 1023.41V1019.84H1707.05ZM1742.12 988.136H1746.29C1746.29 999.176 1738.37 1006.95 1725.6 1010.36L1724.07 1007.19C1735.35 1004.22 1742.12 997.928 1742.12 989.912V988.136ZM1726.32 988.136H1744.42V991.352H1726.32V988.136ZM1755.12 985.352H1759.16V1009.83H1755.12V985.352ZM1731.08 1011.94H1759.16V1028.17H1731.08V1011.94ZM1755.22 1015.16H1735.01V1024.9H1755.22V1015.16ZM1785.02 995.816H1793.47V999.128H1785.02V995.816ZM1785.02 1009.02H1793.47V1012.33H1785.02V1009.02ZM1800.77 985.352H1804.61V1028.74H1800.77V985.352ZM1792.27 986.264H1796.02V1026.58H1792.27V986.264ZM1777.49 988.952C1783.1 988.952 1786.75 994.76 1786.75 1004.07C1786.75 1013.38 1783.1 1019.19 1777.49 1019.19C1771.87 1019.19 1768.27 1013.38 1768.27 1004.07C1768.27 994.76 1771.87 988.952 1777.49 988.952ZM1777.49 992.648C1774.08 992.648 1771.87 997.064 1771.87 1004.07C1771.87 1011.08 1774.08 1015.5 1777.49 1015.5C1780.94 1015.5 1783.1 1011.08 1783.1 1004.07C1783.1 997.064 1780.94 992.648 1777.49 992.648ZM1843.44 985.352H1847.42V1028.74H1843.44V985.352ZM1814.64 989.576H1818.57V1016.46H1814.64V989.576ZM1814.64 1014.1H1818.19C1824.76 1014.1 1831.63 1013.62 1838.97 1012.09L1839.45 1015.5C1831.92 1017.03 1825.05 1017.56 1818.19 1017.56H1814.64V1014.1Z" fill="#FECB00"/>
</svg>
