<svg width="1129" height="919" viewBox="0 0 1129 919" fill="none" xmlns="http://www.w3.org/2000/svg">
<rect width="1129" height="919" fill="white"/>
<path d="M402.328 463.227C403.37 465.049 404.932 467.784 407.016 471.43C409.229 475.076 411.573 479.112 414.047 483.539C416.521 487.966 419.06 492.523 421.664 497.211C424.268 501.898 426.547 506.195 428.5 510.102C430.453 514.008 431.951 517.263 432.992 519.867C434.164 522.471 434.555 523.904 434.164 524.164C433.513 524.555 432.536 524.75 431.234 524.75C429.932 524.62 428.565 524.424 427.133 524.164C425.701 523.773 424.333 523.318 423.031 522.797C421.859 522.146 421.013 521.56 420.492 521.039C416.065 515.049 412.094 509.516 408.578 504.438C405.193 499.359 402.198 494.932 399.594 491.156C396.599 486.859 393.93 482.888 391.586 479.242C391.195 485.362 390.805 491.156 390.414 496.625C390.023 502.094 389.633 506.977 389.242 511.273C388.852 515.44 388.396 518.826 387.875 521.43C387.484 523.904 387.094 525.206 386.703 525.336C385.661 525.466 384.555 525.076 383.383 524.164C382.211 523.122 381.104 521.885 380.062 520.453C379.021 518.891 378.044 517.328 377.133 515.766C376.352 514.073 375.896 512.641 375.766 511.469C374.984 499.62 374.333 489.008 373.812 479.633C373.422 470.128 373.031 461.729 372.641 454.438C372.38 447.146 372.185 440.831 372.055 435.492C372.055 430.023 372.055 425.401 372.055 421.625C372.055 412.641 372.315 406.456 372.836 403.07C373.357 400.466 374.529 397.992 376.352 395.648C378.305 393.174 380.388 391.026 382.602 389.203C384.815 387.38 386.898 386.013 388.852 385.102C390.805 384.19 392.107 383.93 392.758 384.32C393.279 384.711 393.604 386.99 393.734 391.156C393.865 395.323 393.865 400.661 393.734 407.172C393.734 413.552 393.604 420.714 393.344 428.656C393.083 436.599 392.823 444.542 392.562 452.484C394.906 448.969 397.185 445.453 399.398 441.938C401.612 438.292 403.695 435.036 405.648 432.172C407.602 429.177 409.294 426.703 410.727 424.75C412.289 422.797 413.461 421.625 414.242 421.234C415.154 420.714 416.586 420.323 418.539 420.062C420.622 419.672 422.706 419.411 424.789 419.281C426.872 419.151 428.76 419.216 430.453 419.477C432.276 419.737 433.383 420.193 433.773 420.844C434.164 421.234 433.448 422.862 431.625 425.727C429.802 428.461 427.393 431.846 424.398 435.883C421.404 439.919 417.953 444.346 414.047 449.164C410.141 453.982 406.234 458.669 402.328 463.227ZM465.805 463.227C466.846 465.049 468.409 467.784 470.492 471.43C472.706 475.076 475.049 479.112 477.523 483.539C479.997 487.966 482.536 492.523 485.141 497.211C487.745 501.898 490.023 506.195 491.977 510.102C493.93 514.008 495.427 517.263 496.469 519.867C497.641 522.471 498.031 523.904 497.641 524.164C496.99 524.555 496.013 524.75 494.711 524.75C493.409 524.62 492.042 524.424 490.609 524.164C489.177 523.773 487.81 523.318 486.508 522.797C485.336 522.146 484.49 521.56 483.969 521.039C479.542 515.049 475.57 509.516 472.055 504.438C468.669 499.359 465.674 494.932 463.07 491.156C460.076 486.859 457.406 482.888 455.062 479.242C454.672 485.362 454.281 491.156 453.891 496.625C453.5 502.094 453.109 506.977 452.719 511.273C452.328 515.44 451.872 518.826 451.352 521.43C450.961 523.904 450.57 525.206 450.18 525.336C449.138 525.466 448.031 525.076 446.859 524.164C445.688 523.122 444.581 521.885 443.539 520.453C442.497 518.891 441.521 517.328 440.609 515.766C439.828 514.073 439.372 512.641 439.242 511.469C438.461 499.62 437.81 489.008 437.289 479.633C436.898 470.128 436.508 461.729 436.117 454.438C435.857 447.146 435.661 440.831 435.531 435.492C435.531 430.023 435.531 425.401 435.531 421.625C435.531 412.641 435.792 406.456 436.312 403.07C436.833 400.466 438.005 397.992 439.828 395.648C441.781 393.174 443.865 391.026 446.078 389.203C448.292 387.38 450.375 386.013 452.328 385.102C454.281 384.19 455.583 383.93 456.234 384.32C456.755 384.711 457.081 386.99 457.211 391.156C457.341 395.323 457.341 400.661 457.211 407.172C457.211 413.552 457.081 420.714 456.82 428.656C456.56 436.599 456.299 444.542 456.039 452.484C458.383 448.969 460.661 445.453 462.875 441.938C465.089 438.292 467.172 435.036 469.125 432.172C471.078 429.177 472.771 426.703 474.203 424.75C475.766 422.797 476.938 421.625 477.719 421.234C478.63 420.714 480.062 420.323 482.016 420.062C484.099 419.672 486.182 419.411 488.266 419.281C490.349 419.151 492.237 419.216 493.93 419.477C495.753 419.737 496.859 420.193 497.25 420.844C497.641 421.234 496.924 422.862 495.102 425.727C493.279 428.461 490.87 431.846 487.875 435.883C484.88 439.919 481.43 444.346 477.523 449.164C473.617 453.982 469.711 458.669 465.805 463.227ZM519.516 447.016C519.776 447.667 519.906 449.75 519.906 453.266C520.036 456.651 520.036 460.818 519.906 465.766C519.906 470.583 519.776 475.792 519.516 481.391C519.255 486.859 518.93 492.068 518.539 497.016C518.279 501.833 517.953 506 517.562 509.516C517.172 512.901 516.781 514.919 516.391 515.57C515.219 517.393 513.461 518.565 511.117 519.086C508.773 519.477 507.081 519.542 506.039 519.281C505.518 519.281 504.932 517.784 504.281 514.789C503.76 511.794 503.24 508.018 502.719 503.461C502.198 498.904 501.742 493.956 501.352 488.617C500.961 483.279 500.635 478.201 500.375 473.383C500.115 468.435 499.984 464.138 499.984 460.492C499.984 456.846 500.115 454.503 500.375 453.461C500.766 451.768 501.872 450.271 503.695 448.969C505.648 447.667 507.667 446.69 509.75 446.039C511.964 445.388 513.982 445.128 515.805 445.258C517.758 445.258 518.995 445.844 519.516 447.016ZM520.492 415.375C521.013 416.417 521.208 417.849 521.078 419.672C521.078 421.495 520.883 423.383 520.492 425.336C520.102 427.289 519.581 429.177 518.93 431C518.279 432.823 517.628 434.255 516.977 435.297C515.674 437.12 513.721 438.292 511.117 438.812C508.643 439.203 506.82 439.268 505.648 439.008C504.737 438.878 503.826 438.292 502.914 437.25C502.003 436.078 501.221 434.711 500.57 433.148C499.919 431.456 499.464 429.633 499.203 427.68C498.943 425.727 499.008 423.904 499.398 422.211C499.789 420.518 501.026 419.021 503.109 417.719C505.193 416.286 507.406 415.245 509.75 414.594C512.094 413.812 514.307 413.487 516.391 413.617C518.474 413.617 519.841 414.203 520.492 415.375ZM613.656 415.375C616.13 417.458 617.953 421.625 619.125 427.875C620.297 433.995 620.753 440.831 620.492 448.383C620.362 450.727 620.036 453.982 619.516 458.148C618.995 462.185 618.344 466.677 617.562 471.625C616.911 476.443 616.13 481.391 615.219 486.469C614.438 491.547 613.656 496.234 612.875 500.531C612.094 504.828 611.378 508.474 610.727 511.469C610.206 514.333 609.88 516.026 609.75 516.547C609.49 517.458 608.773 518.37 607.602 519.281C606.43 520.193 605.193 520.974 603.891 521.625C602.719 522.146 601.547 522.536 600.375 522.797C599.203 522.927 598.487 522.667 598.227 522.016C598.096 521.625 598.096 519.607 598.227 515.961C598.357 512.315 598.552 507.823 598.812 502.484C599.073 497.016 599.333 491.221 599.594 485.102C599.984 478.852 600.31 472.992 600.57 467.523C600.831 462.055 601.091 457.432 601.352 453.656C601.612 449.75 601.742 447.406 601.742 446.625C601.872 442.589 601.547 439.073 600.766 436.078C599.984 432.953 598.682 431.391 596.859 431.391C596.208 431.391 595.427 431.716 594.516 432.367C593.604 432.888 592.693 433.539 591.781 434.32C591 435.102 590.219 435.948 589.438 436.859C588.786 437.771 588.461 438.617 588.461 439.398C588.331 441.742 588.135 445.193 587.875 449.75C587.745 454.307 587.549 459.32 587.289 464.789C587.159 470.258 586.964 475.857 586.703 481.586C586.573 487.315 586.378 492.589 586.117 497.406C585.987 502.224 585.857 506.26 585.727 509.516C585.596 512.641 585.466 514.398 585.336 514.789C585.076 515.31 584.229 515.701 582.797 515.961C581.495 516.091 579.997 516.091 578.305 515.961C576.612 515.831 575.049 515.505 573.617 514.984C572.315 514.464 571.534 513.747 571.273 512.836C571.013 512.185 570.818 510.232 570.688 506.977C570.557 503.591 570.362 499.555 570.102 494.867C569.971 490.18 569.841 485.167 569.711 479.828C569.581 474.359 569.451 469.281 569.32 464.594C569.19 459.906 569.06 455.87 568.93 452.484C568.93 449.099 568.93 447.016 568.93 446.234C568.93 443.109 568.669 440.635 568.148 438.812C567.628 436.859 566.977 435.362 566.195 434.32C565.544 433.148 564.763 432.432 563.852 432.172C562.94 431.781 562.029 431.586 561.117 431.586C560.727 431.586 560.141 431.911 559.359 432.562C558.578 433.083 557.797 433.93 557.016 435.102C556.234 436.143 555.583 437.38 555.062 438.812C554.542 440.115 554.346 441.547 554.477 443.109C554.477 443.76 554.542 446.169 554.672 450.336C554.802 454.503 554.867 459.516 554.867 465.375C554.997 471.234 555.128 477.549 555.258 484.32C555.388 491.091 555.453 497.406 555.453 503.266C555.583 508.995 555.648 513.878 555.648 517.914C555.648 521.82 555.648 523.904 555.648 524.164C555.388 524.815 554.672 525.206 553.5 525.336C552.328 525.336 551.026 525.076 549.594 524.555C548.161 524.034 546.794 523.318 545.492 522.406C544.19 521.365 543.279 520.128 542.758 518.695C542.497 517.654 542.107 515.375 541.586 511.859C541.065 508.344 540.479 504.177 539.828 499.359C539.177 494.411 538.526 489.138 537.875 483.539C537.224 477.81 536.573 472.341 535.922 467.133C535.271 461.794 534.685 456.977 534.164 452.68C533.773 448.383 533.448 445.128 533.188 442.914C532.797 439.789 532.341 436.404 531.82 432.758C531.43 428.982 531.039 425.401 530.648 422.016C530.388 418.5 530.193 415.505 530.062 413.031C529.932 410.427 530.062 408.799 530.453 408.148C530.714 407.628 531.625 407.432 533.188 407.562C534.88 407.693 536.638 408.083 538.461 408.734C540.414 409.255 542.237 410.036 543.93 411.078C545.753 411.99 546.924 412.966 547.445 414.008C547.836 414.789 548.227 415.766 548.617 416.938C549.138 417.979 549.659 419.672 550.18 422.016C552.393 420.323 554.672 418.76 557.016 417.328C559.359 415.766 561.703 414.594 564.047 413.812C566.391 412.901 568.604 412.445 570.688 412.445C572.901 412.315 574.984 412.901 576.938 414.203C578.63 415.505 580.258 417.784 581.82 421.039C588.07 417.523 594.06 415.115 599.789 413.812C605.648 412.38 610.271 412.901 613.656 415.375ZM682.211 428.266C682.992 429.177 683.708 430.154 684.359 431.195C685.01 432.107 685.596 433.409 686.117 435.102C686.638 436.664 687.029 438.747 687.289 441.352C687.68 443.956 687.875 447.341 687.875 451.508C687.875 458.148 687.68 464.854 687.289 471.625C687.029 478.266 686.768 484.125 686.508 489.203C686.378 493.76 686.247 497.992 686.117 501.898C685.987 505.805 685.857 509.255 685.727 512.25C685.596 515.115 685.401 517.393 685.141 519.086C685.01 520.779 684.88 521.69 684.75 521.82C684.229 522.211 683.383 522.081 682.211 521.43C681.169 520.648 679.997 519.672 678.695 518.5C677.523 517.328 676.417 516.091 675.375 514.789C674.333 513.487 673.682 512.445 673.422 511.664C673.422 511.013 673.227 509.125 672.836 506C669.711 507.823 666.26 509.125 662.484 509.906C658.708 510.557 654.932 510.818 651.156 510.688C647.51 510.427 644.125 509.711 641 508.539C637.875 507.367 635.531 505.805 633.969 503.852C633.318 503.07 632.732 501.898 632.211 500.336C631.82 498.773 631.43 497.016 631.039 495.062C630.779 492.979 630.518 490.831 630.258 488.617C629.997 486.273 629.802 484.125 629.672 482.172C629.411 477.094 630.062 472.732 631.625 469.086C633.188 465.31 636.052 462.51 640.219 460.688C642.042 459.906 644.451 459.516 647.445 459.516C650.57 459.385 653.63 459.516 656.625 459.906C659.75 460.167 662.549 460.557 665.023 461.078C667.497 461.469 669.06 461.794 669.711 462.055C669.19 455.414 668.799 449.685 668.539 444.867C668.279 439.919 667.758 436.729 666.977 435.297C666.326 434.385 665.544 433.474 664.633 432.562C663.852 431.911 662.81 431.195 661.508 430.414C660.206 429.633 658.643 429.047 656.82 428.656C655.388 428.396 654.086 428.982 652.914 430.414C651.872 431.716 650.896 434.06 649.984 437.445C649.203 440.701 648.747 445.714 648.617 452.484C644.06 452.615 640.544 452.615 638.07 452.484C635.727 452.224 633.969 451.964 632.797 451.703C631.365 451.443 630.518 451.117 630.258 450.727C629.997 450.206 630.128 448.318 630.648 445.062C631.169 441.677 631.885 438.031 632.797 434.125C633.839 430.219 635.01 426.508 636.312 422.992C637.745 419.477 639.242 417.263 640.805 416.352C643.93 414.529 647.641 413.878 651.938 414.398C656.365 414.919 660.661 416.026 664.828 417.719C668.995 419.411 672.706 421.299 675.961 423.383C679.216 425.466 681.299 427.094 682.211 428.266ZM670.102 485.297C670.102 484.646 670.167 483.799 670.297 482.758C670.427 481.586 670.492 480.414 670.492 479.242C670.492 478.07 670.427 476.964 670.297 475.922C670.297 474.88 670.167 474.099 669.906 473.578C669.516 472.797 668.344 472.146 666.391 471.625C664.568 471.104 662.484 470.779 660.141 470.648C657.797 470.388 655.583 470.323 653.5 470.453C651.417 470.453 649.984 470.714 649.203 471.234C648.161 471.885 647.38 472.797 646.859 473.969C646.469 475.141 646.208 476.964 646.078 479.438C646.078 480.609 646.143 481.846 646.273 483.148C646.404 484.451 646.534 485.753 646.664 487.055C646.924 488.227 647.185 489.268 647.445 490.18C647.836 491.091 648.227 491.677 648.617 491.938C649.529 492.589 651.091 493.174 653.305 493.695C655.648 494.086 657.992 494.216 660.336 494.086C662.68 493.826 664.828 493.044 666.781 491.742C668.734 490.44 669.841 488.292 670.102 485.297ZM715.023 474.555C717.107 473.773 719.451 472.927 722.055 472.016C724.789 470.974 727.393 470.062 729.867 469.281C732.341 468.37 734.555 467.589 736.508 466.938C738.461 466.286 739.893 465.766 740.805 465.375C740.674 463.943 740.479 462.315 740.219 460.492C740.089 458.539 739.893 456.716 739.633 455.023C739.372 453.201 739.047 451.638 738.656 450.336C738.266 449.034 737.875 448.253 737.484 447.992C736.443 447.602 734.685 447.276 732.211 447.016C729.867 446.625 727.393 446.69 724.789 447.211C722.315 447.732 720.036 448.708 717.953 450.141C715.87 451.573 714.698 453.852 714.438 456.977C714.177 459.06 714.112 461.664 714.242 464.789C714.372 467.914 714.633 471.169 715.023 474.555ZM757.406 477.68C757.276 477.94 755.714 478.461 752.719 479.242C749.724 480.023 746.143 480.87 741.977 481.781C737.81 482.562 733.383 483.409 728.695 484.32C724.008 485.102 719.971 485.753 716.586 486.273C717.237 491.482 718.018 496.169 718.93 500.336C719.841 504.372 720.622 506.911 721.273 507.953C721.924 508.865 722.771 509.711 723.812 510.492C724.724 511.143 725.831 511.794 727.133 512.445C728.565 512.966 730.258 513.357 732.211 513.617C733.643 514.008 735.01 513.487 736.312 512.055C737.354 510.753 738.266 508.474 739.047 505.219C739.958 501.964 740.414 496.82 740.414 489.789C744.451 489.138 747.576 488.747 749.789 488.617C752.133 488.487 753.826 488.487 754.867 488.617C756.169 488.747 756.951 488.943 757.211 489.203C757.341 489.594 757.341 490.57 757.211 492.133C757.081 493.695 756.755 495.648 756.234 497.992C755.844 500.206 755.323 502.68 754.672 505.414C754.151 508.018 753.5 510.557 752.719 513.031C751.938 515.375 751.091 517.523 750.18 519.477C749.268 521.299 748.292 522.602 747.25 523.383C744.125 525.727 740.219 526.898 735.531 526.898C730.844 526.768 726.221 526.117 721.664 524.945C717.107 523.643 713.005 522.146 709.359 520.453C705.714 518.63 703.435 517.133 702.523 515.961C701.872 515.18 701.286 513.227 700.766 510.102C700.245 506.846 699.789 502.94 699.398 498.383C699.138 493.826 698.943 488.812 698.812 483.344C698.682 477.875 698.747 472.536 699.008 467.328C699.398 462.12 699.919 457.302 700.57 452.875C701.352 448.448 702.393 444.867 703.695 442.133C705.648 438.227 708.839 435.036 713.266 432.562C717.693 430.089 722.38 428.396 727.328 427.484C732.276 426.573 736.964 426.443 741.391 427.094C745.948 427.745 749.333 429.177 751.547 431.391C752.849 432.693 754.021 435.297 755.062 439.203C756.104 442.979 756.755 447.602 757.016 453.07C757.016 453.591 757.081 455.089 757.211 457.562C757.341 460.036 757.406 462.706 757.406 465.57C757.536 468.305 757.602 470.909 757.602 473.383C757.602 475.857 757.536 477.289 757.406 477.68Z" fill="black"/>
</svg>
