<svg width="1920" height="1080" viewBox="0 0 1920 1080" fill="none" xmlns="http://www.w3.org/2000/svg">
<g clip-path="url(#clip0_1746_16582)">
<rect width="1920" height="1080" fill="url(#paint0_linear_1746_16582)"/>
<path d="M353 803.383C148.2 762.748 24 727.383 -14 757.383V1258.88H1931.5V716.383C1776.5 716.383 1760 846.383 1510 855.383C1307.71 862.665 1090.91 618.511 883 730.383C686 836.383 479 828.383 353 803.383Z" fill="white" fill-opacity="0.1"/>
<g filter="url(#filter0_f_1746_16582)">
<path d="M782.473 828.881C596.327 749.46 437.986 840.365 398.264 867.063L391.139 1279.93L2375.2 1348.52L2404.97 885.905C2246.9 880.44 2229.18 938.8 2023.15 943.819C1816.72 948.848 1713.56 712.372 1336.91 828.397C1112.96 897.384 888.023 873.914 782.473 828.881Z" fill="#38634D"/>
</g>
<path d="M318 680C166.28 548.509 17 834 -21 864L-14 1305.5H1931.5L1945 810C1790 810 1774.62 873.024 1573 886C1371 899 1226.87 579.662 897 788C688 920 468 810 318 680Z" fill="#5DA27F"/>
<path d="M340 888.363C134.005 854.302 12 858.363 -26 888.363V1334.86H1919.5L1952 888.363C1797 888.363 1686.62 907.388 1485 920.363C1283 933.363 1124.1 888.363 888 888.363C727 888.363 616 934 340 888.363Z" fill="url(#paint1_linear_1746_16582)"/>
<g style="mix-blend-mode:screen">
<g clip-path="url(#clip1_1746_16582)">
<g filter="url(#filter1_f_1746_16582)">
<path d="M1299.46 237.459L1294.18 242.009L1295.79 248.814C1295.88 249.184 1295.85 249.571 1295.72 249.928C1295.59 250.284 1295.36 250.594 1295.05 250.817C1294.74 251.041 1294.38 251.168 1294 251.183C1293.62 251.198 1293.24 251.101 1292.92 250.903L1287 247.261L1281.08 250.903C1280.75 251.1 1280.38 251.196 1280 251.181C1279.62 251.165 1279.26 251.037 1278.95 250.814C1278.64 250.591 1278.41 250.282 1278.28 249.926C1278.15 249.57 1278.12 249.183 1278.21 248.814L1279.82 242.009L1274.55 237.459C1274.26 237.211 1274.06 236.884 1273.95 236.519C1273.85 236.154 1273.86 235.767 1273.98 235.407C1274.09 235.046 1274.31 234.728 1274.61 234.491C1274.91 234.255 1275.26 234.111 1275.64 234.078L1282.56 233.52L1285.22 227.066C1285.37 226.714 1285.61 226.413 1285.93 226.201C1286.25 225.989 1286.62 225.876 1287 225.876C1287.38 225.876 1287.75 225.989 1288.06 226.201C1288.38 226.413 1288.63 226.714 1288.77 227.066L1291.44 233.52L1298.35 234.078C1298.73 234.11 1299.09 234.253 1299.39 234.489C1299.68 234.725 1299.91 235.043 1300.02 235.405C1300.14 235.766 1300.15 236.153 1300.05 236.519C1299.94 236.885 1299.74 237.212 1299.45 237.46L1299.46 237.459Z" fill="white"/>
</g>
</g>
<g clip-path="url(#clip2_1746_16582)">
<g filter="url(#filter2_f_1746_16582)">
<path d="M1541.46 183.459L1536.18 188.009L1537.79 194.814C1537.88 195.184 1537.85 195.571 1537.72 195.928C1537.59 196.284 1537.36 196.594 1537.05 196.817C1536.74 197.041 1536.38 197.168 1536 197.183C1535.62 197.198 1535.24 197.101 1534.92 196.903L1529 193.261L1523.08 196.903C1522.75 197.1 1522.38 197.196 1522 197.181C1521.62 197.165 1521.26 197.037 1520.95 196.814C1520.64 196.591 1520.41 196.282 1520.28 195.926C1520.15 195.57 1520.12 195.183 1520.21 194.814L1521.82 188.009L1516.55 183.459C1516.26 183.211 1516.06 182.884 1515.95 182.519C1515.85 182.154 1515.86 181.767 1515.98 181.407C1516.09 181.046 1516.31 180.728 1516.61 180.491C1516.91 180.255 1517.26 180.111 1517.64 180.078L1524.56 179.52L1527.22 173.066C1527.37 172.714 1527.61 172.413 1527.93 172.201C1528.25 171.989 1528.62 171.876 1529 171.876C1529.38 171.876 1529.75 171.989 1530.06 172.201C1530.38 172.413 1530.63 172.714 1530.77 173.066L1533.44 179.52L1540.35 180.078C1540.73 180.11 1541.09 180.253 1541.39 180.489C1541.68 180.725 1541.91 181.043 1542.02 181.405C1542.14 181.766 1542.15 182.153 1542.05 182.519C1541.94 182.885 1541.74 183.212 1541.45 183.46L1541.46 183.459Z" fill="white"/>
</g>
</g>
<g clip-path="url(#clip3_1746_16582)" filter="url(#filter3_f_1746_16582)">
<g filter="url(#filter4_f_1746_16582)">
<path d="M763.456 263.459L758.182 268.009L759.789 274.814C759.878 275.184 759.855 275.571 759.724 275.928C759.592 276.284 759.358 276.594 759.051 276.817C758.744 277.041 758.377 277.168 757.997 277.183C757.618 277.198 757.242 277.101 756.918 276.903L751 273.261L745.079 276.903C744.754 277.1 744.379 277.196 744 277.181C743.621 277.165 743.256 277.037 742.949 276.814C742.642 276.591 742.409 276.282 742.277 275.926C742.146 275.57 742.123 275.183 742.211 274.814L743.823 268.009L738.55 263.459C738.263 263.211 738.056 262.884 737.954 262.519C737.852 262.154 737.859 261.767 737.976 261.407C738.092 261.046 738.313 260.728 738.609 260.491C738.905 260.255 739.265 260.111 739.642 260.078L746.556 259.52L749.223 253.066C749.368 252.714 749.614 252.413 749.929 252.201C750.245 251.989 750.617 251.876 750.997 251.876C751.377 251.876 751.749 251.989 752.065 252.201C752.381 252.413 752.626 252.714 752.771 253.066L755.437 259.52L762.351 260.078C762.729 260.11 763.09 260.253 763.387 260.489C763.684 260.725 763.906 261.043 764.023 261.405C764.14 261.766 764.148 262.153 764.046 262.519C763.944 262.885 763.736 263.212 763.449 263.46L763.456 263.459Z" fill="white"/>
</g>
</g>
<g clip-path="url(#clip4_1746_16582)">
<g filter="url(#filter5_f_1746_16582)">
<path d="M999.728 316.729L997.091 319.005L997.895 322.407C997.939 322.592 997.927 322.786 997.862 322.964C997.796 323.142 997.679 323.297 997.525 323.409C997.372 323.52 997.188 323.584 996.999 323.592C996.809 323.599 996.621 323.55 996.459 323.451L993.5 321.63L990.539 323.451C990.377 323.55 990.19 323.598 990 323.59C989.811 323.582 989.628 323.519 989.475 323.407C989.321 323.295 989.204 323.141 989.139 322.963C989.073 322.785 989.061 322.592 989.105 322.407L989.912 319.005L987.275 316.729C987.132 316.606 987.028 316.442 986.977 316.26C986.926 316.077 986.93 315.884 986.988 315.703C987.046 315.523 987.156 315.364 987.304 315.246C987.453 315.128 987.632 315.056 987.821 315.039L991.278 314.76L992.612 311.533C992.684 311.357 992.807 311.206 992.965 311.101C993.123 310.995 993.308 310.938 993.499 310.938C993.689 310.938 993.875 310.995 994.032 311.101C994.19 311.206 994.313 311.357 994.385 311.533L995.718 314.76L999.175 315.039C999.365 315.055 999.545 315.127 999.694 315.244C999.842 315.362 999.953 315.522 1000.01 315.702C1000.07 315.883 1000.07 316.077 1000.02 316.259C999.972 316.442 999.868 316.606 999.724 316.73L999.728 316.729Z" fill="white"/>
</g>
</g>
<g clip-path="url(#clip5_1746_16582)">
<g filter="url(#filter6_f_1746_16582)">
<path d="M1369.73 606.729L1367.09 609.005L1367.89 612.407C1367.94 612.592 1367.93 612.786 1367.86 612.964C1367.8 613.142 1367.68 613.297 1367.53 613.409C1367.37 613.52 1367.19 613.584 1367 613.592C1366.81 613.599 1366.62 613.55 1366.46 613.451L1363.5 611.63L1360.54 613.451C1360.38 613.55 1360.19 613.598 1360 613.59C1359.81 613.582 1359.63 613.519 1359.47 613.407C1359.32 613.295 1359.2 613.141 1359.14 612.963C1359.07 612.785 1359.06 612.592 1359.11 612.407L1359.91 609.005L1357.28 606.729C1357.13 606.606 1357.03 606.442 1356.98 606.26C1356.93 606.077 1356.93 605.884 1356.99 605.703C1357.05 605.523 1357.16 605.364 1357.3 605.246C1357.45 605.128 1357.63 605.056 1357.82 605.039L1361.28 604.76L1362.61 601.533C1362.68 601.357 1362.81 601.206 1362.96 601.101C1363.12 600.995 1363.31 600.938 1363.5 600.938C1363.69 600.938 1363.87 600.995 1364.03 601.101C1364.19 601.206 1364.31 601.357 1364.39 601.533L1365.72 604.76L1369.18 605.039C1369.36 605.055 1369.54 605.127 1369.69 605.244C1369.84 605.362 1369.95 605.522 1370.01 605.702C1370.07 605.883 1370.07 606.077 1370.02 606.259C1369.97 606.442 1369.87 606.606 1369.72 606.73L1369.73 606.729Z" fill="white"/>
</g>
</g>
<g clip-path="url(#clip6_1746_16582)">
<g filter="url(#filter7_f_1746_16582)">
<path d="M1789.73 326.729L1787.09 329.005L1787.89 332.407C1787.94 332.592 1787.93 332.786 1787.86 332.964C1787.8 333.142 1787.68 333.297 1787.53 333.409C1787.37 333.52 1787.19 333.584 1787 333.592C1786.81 333.599 1786.62 333.55 1786.46 333.451L1783.5 331.63L1780.54 333.451C1780.38 333.55 1780.19 333.598 1780 333.59C1779.81 333.582 1779.63 333.519 1779.47 333.407C1779.32 333.295 1779.2 333.141 1779.14 332.963C1779.07 332.785 1779.06 332.592 1779.11 332.407L1779.91 329.005L1777.27 326.729C1777.13 326.606 1777.03 326.442 1776.98 326.26C1776.93 326.077 1776.93 325.884 1776.99 325.703C1777.05 325.523 1777.16 325.364 1777.3 325.246C1777.45 325.128 1777.63 325.056 1777.82 325.039L1781.28 324.76L1782.61 321.533C1782.68 321.357 1782.81 321.206 1782.96 321.101C1783.12 320.995 1783.31 320.938 1783.5 320.938C1783.69 320.938 1783.87 320.995 1784.03 321.101C1784.19 321.206 1784.31 321.357 1784.39 321.533L1785.72 324.76L1789.18 325.039C1789.36 325.055 1789.54 325.127 1789.69 325.244C1789.84 325.362 1789.95 325.522 1790.01 325.702C1790.07 325.883 1790.07 326.077 1790.02 326.259C1789.97 326.442 1789.87 326.606 1789.72 326.73L1789.73 326.729Z" fill="white"/>
</g>
</g>
<g clip-path="url(#clip7_1746_16582)">
<g filter="url(#filter8_f_1746_16582)">
<path d="M479.728 176.729L477.091 179.005L477.894 182.407C477.939 182.592 477.927 182.786 477.862 182.964C477.796 183.142 477.679 183.297 477.525 183.409C477.372 183.52 477.188 183.584 476.999 183.592C476.809 183.599 476.621 183.55 476.459 183.451L473.5 181.63L470.539 183.451C470.377 183.55 470.19 183.598 470 183.59C469.811 183.582 469.628 183.519 469.474 183.407C469.321 183.295 469.204 183.141 469.139 182.963C469.073 182.785 469.061 182.592 469.105 182.407L469.912 179.005L467.275 176.729C467.132 176.606 467.028 176.442 466.977 176.26C466.926 176.077 466.93 175.884 466.988 175.703C467.046 175.523 467.156 175.364 467.304 175.246C467.453 175.128 467.632 175.056 467.821 175.039L471.278 174.76L472.612 171.533C472.684 171.357 472.807 171.206 472.965 171.101C473.123 170.995 473.308 170.938 473.498 170.938C473.689 170.938 473.874 170.995 474.032 171.101C474.19 171.206 474.313 171.357 474.385 171.533L475.718 174.76L479.175 175.039C479.365 175.055 479.545 175.127 479.693 175.244C479.842 175.362 479.953 175.522 480.011 175.702C480.07 175.883 480.074 176.077 480.023 176.259C479.972 176.442 479.868 176.606 479.724 176.73L479.728 176.729Z" fill="white"/>
</g>
</g>
<g clip-path="url(#clip8_1746_16582)">
<g filter="url(#filter9_f_1746_16582)">
<path d="M719.728 626.729L717.091 629.005L717.894 632.407C717.939 632.592 717.927 632.786 717.862 632.964C717.796 633.142 717.679 633.297 717.525 633.409C717.372 633.52 717.188 633.584 716.999 633.592C716.809 633.599 716.621 633.55 716.459 633.451L713.5 631.63L710.539 633.451C710.377 633.55 710.19 633.598 710 633.59C709.811 633.582 709.628 633.519 709.474 633.407C709.321 633.295 709.204 633.141 709.139 632.963C709.073 632.785 709.061 632.592 709.105 632.407L709.912 629.005L707.275 626.729C707.132 626.606 707.028 626.442 706.977 626.26C706.926 626.077 706.93 625.884 706.988 625.703C707.046 625.523 707.156 625.364 707.304 625.246C707.453 625.128 707.632 625.056 707.821 625.039L711.278 624.76L712.612 621.533C712.684 621.357 712.807 621.206 712.965 621.101C713.123 620.995 713.308 620.938 713.498 620.938C713.689 620.938 713.874 620.995 714.032 621.101C714.19 621.206 714.313 621.357 714.385 621.533L715.718 624.76L719.175 625.039C719.365 625.055 719.545 625.127 719.693 625.244C719.842 625.362 719.953 625.522 720.011 625.702C720.07 625.883 720.074 626.077 720.023 626.259C719.972 626.442 719.868 626.606 719.724 626.73L719.728 626.729Z" fill="white"/>
</g>
</g>
<g opacity="0.3" clip-path="url(#clip9_1746_16582)">
<g filter="url(#filter10_f_1746_16582)">
<path d="M153.456 153.459L148.182 158.009L149.789 164.814C149.878 165.184 149.855 165.571 149.724 165.928C149.592 166.284 149.358 166.594 149.051 166.817C148.744 167.041 148.377 167.168 147.997 167.183C147.618 167.198 147.242 167.101 146.918 166.903L141 163.261L135.079 166.903C134.754 167.1 134.379 167.196 134 167.181C133.621 167.165 133.256 167.037 132.949 166.814C132.642 166.591 132.409 166.282 132.277 165.926C132.146 165.57 132.123 165.183 132.211 164.814L133.823 158.009L128.55 153.459C128.263 153.211 128.056 152.884 127.954 152.519C127.852 152.154 127.859 151.767 127.976 151.407C128.092 151.046 128.313 150.728 128.609 150.491C128.905 150.255 129.265 150.111 129.642 150.078L136.556 149.52L139.223 143.066C139.368 142.714 139.614 142.413 139.929 142.201C140.245 141.989 140.617 141.876 140.997 141.876C141.377 141.876 141.749 141.989 142.065 142.201C142.381 142.413 142.626 142.714 142.771 143.066L145.437 149.52L152.351 150.078C152.729 150.11 153.09 150.253 153.387 150.489C153.684 150.725 153.906 151.043 154.023 151.405C154.14 151.766 154.148 152.153 154.046 152.519C153.944 152.885 153.736 153.212 153.449 153.46L153.456 153.459Z" fill="white"/>
</g>
</g>
<g clip-path="url(#clip10_1746_16582)" filter="url(#filter11_f_1746_16582)">
<g filter="url(#filter12_f_1746_16582)">
<path d="M497.456 470.459L492.182 475.009L493.789 481.814C493.878 482.184 493.855 482.571 493.724 482.928C493.592 483.284 493.358 483.594 493.051 483.817C492.744 484.041 492.377 484.168 491.997 484.183C491.618 484.198 491.242 484.101 490.918 483.903L485 480.261L479.079 483.903C478.754 484.1 478.379 484.196 478 484.181C477.621 484.165 477.256 484.037 476.949 483.814C476.642 483.591 476.409 483.282 476.277 482.926C476.146 482.57 476.123 482.183 476.211 481.814L477.823 475.009L472.55 470.459C472.263 470.211 472.056 469.884 471.954 469.519C471.852 469.154 471.859 468.767 471.976 468.407C472.092 468.046 472.313 467.728 472.609 467.491C472.905 467.255 473.265 467.111 473.642 467.078L480.556 466.52L483.223 460.066C483.368 459.714 483.614 459.413 483.929 459.201C484.245 458.989 484.617 458.876 484.997 458.876C485.377 458.876 485.749 458.989 486.065 459.201C486.381 459.413 486.626 459.714 486.771 460.066L489.437 466.52L496.351 467.078C496.729 467.11 497.09 467.253 497.387 467.489C497.684 467.725 497.906 468.043 498.023 468.405C498.14 468.766 498.148 469.153 498.046 469.519C497.944 469.885 497.736 470.212 497.449 470.46L497.456 470.459Z" fill="white"/>
</g>
</g>
<g clip-path="url(#clip11_1746_16582)">
<g filter="url(#filter13_f_1746_16582)">
<path d="M103.456 413.459L98.1825 418.009L99.7891 424.814C99.8778 425.184 99.8549 425.571 99.7235 425.928C99.5921 426.284 99.358 426.594 99.0508 426.817C98.7435 427.041 98.377 427.168 97.9974 427.183C97.6178 427.198 97.2422 427.101 96.918 426.903L91 423.261L85.0786 426.903C84.7545 427.1 84.3793 427.196 84.0004 427.181C83.6214 427.165 83.2556 427.037 82.949 426.814C82.6424 426.591 82.4088 426.282 82.2774 425.926C82.1461 425.57 82.123 425.183 82.211 424.814L83.8235 418.009L78.55 413.459C78.2633 413.211 78.0559 412.884 77.9538 412.519C77.8517 412.154 77.8593 411.767 77.9758 411.407C78.0924 411.046 78.3125 410.728 78.6089 410.491C78.9053 410.255 79.2647 410.111 79.6422 410.078L86.5563 409.52L89.2235 403.066C89.3679 402.714 89.6136 402.413 89.9294 402.201C90.2452 401.989 90.6169 401.876 90.9971 401.876C91.3774 401.876 91.749 401.989 92.0648 402.201C92.3807 402.413 92.6264 402.714 92.7708 403.066L95.4368 409.52L102.351 410.078C102.729 410.11 103.09 410.253 103.387 410.489C103.684 410.725 103.906 411.043 104.023 411.405C104.14 411.766 104.148 412.153 104.046 412.519C103.944 412.885 103.736 413.212 103.449 413.46L103.456 413.459Z" fill="white"/>
</g>
</g>
<g opacity="0.3" clip-path="url(#clip12_1746_16582)">
<g filter="url(#filter14_f_1746_16582)">
<path d="M294.304 538.973L290.788 542.006L291.859 546.543C291.918 546.789 291.903 547.048 291.816 547.285C291.728 547.523 291.572 547.729 291.367 547.878C291.162 548.027 290.918 548.112 290.665 548.122C290.412 548.132 290.161 548.067 289.945 547.935L286 545.507L282.052 547.935C281.836 548.066 281.586 548.131 281.333 548.12C281.081 548.11 280.837 548.025 280.633 547.876C280.428 547.727 280.272 547.521 280.185 547.284C280.097 547.047 280.082 546.789 280.141 546.543L281.216 542.006L277.7 538.973C277.509 538.807 277.371 538.59 277.302 538.346C277.234 538.103 277.239 537.845 277.317 537.604C277.395 537.364 277.542 537.152 277.739 536.994C277.937 536.837 278.176 536.741 278.428 536.719L283.037 536.347L284.816 532.044C284.912 531.809 285.076 531.609 285.286 531.467C285.497 531.326 285.744 531.251 285.998 531.251C286.251 531.251 286.499 531.326 286.71 531.467C286.92 531.609 287.084 531.809 287.18 532.044L288.958 536.347L293.567 536.719C293.819 536.74 294.06 536.835 294.258 536.993C294.456 537.15 294.604 537.362 294.682 537.603C294.76 537.844 294.765 538.102 294.697 538.346C294.629 538.59 294.491 538.808 294.299 538.973L294.304 538.973Z" fill="white"/>
</g>
</g>
<g opacity="0.3" clip-path="url(#clip13_1746_16582)">
<g filter="url(#filter15_f_1746_16582)">
<path d="M714.304 438.973L710.788 442.006L711.859 446.543C711.918 446.789 711.903 447.048 711.816 447.285C711.728 447.523 711.572 447.729 711.367 447.878C711.162 448.027 710.918 448.112 710.665 448.122C710.412 448.132 710.161 448.067 709.945 447.935L706 445.507L702.052 447.935C701.836 448.066 701.586 448.131 701.333 448.12C701.081 448.11 700.837 448.025 700.633 447.876C700.428 447.727 700.272 447.521 700.185 447.284C700.097 447.047 700.082 446.789 700.141 446.543L701.216 442.006L697.7 438.973C697.509 438.807 697.371 438.59 697.302 438.346C697.234 438.103 697.239 437.845 697.317 437.604C697.395 437.364 697.542 437.152 697.739 436.994C697.937 436.837 698.176 436.741 698.428 436.719L703.037 436.347L704.816 432.044C704.912 431.809 705.076 431.609 705.286 431.467C705.497 431.326 705.744 431.251 705.998 431.251C706.251 431.251 706.499 431.326 706.71 431.467C706.92 431.609 707.084 431.809 707.18 432.044L708.958 436.347L713.567 436.719C713.819 436.74 714.06 436.835 714.258 436.993C714.456 437.15 714.604 437.362 714.682 437.603C714.76 437.844 714.765 438.102 714.697 438.346C714.629 438.59 714.491 438.808 714.299 438.973L714.304 438.973Z" fill="white"/>
</g>
</g>
<g opacity="0.3" clip-path="url(#clip14_1746_16582)">
<g filter="url(#filter16_f_1746_16582)">
<path d="M1254.3 328.973L1250.79 332.006L1251.86 336.543C1251.92 336.789 1251.9 337.048 1251.82 337.285C1251.73 337.523 1251.57 337.729 1251.37 337.878C1251.16 338.027 1250.92 338.112 1250.66 338.122C1250.41 338.132 1250.16 338.067 1249.95 337.935L1246 335.507L1242.05 337.935C1241.84 338.066 1241.59 338.131 1241.33 338.12C1241.08 338.11 1240.84 338.025 1240.63 337.876C1240.43 337.727 1240.27 337.521 1240.18 337.284C1240.1 337.047 1240.08 336.789 1240.14 336.543L1241.22 332.006L1237.7 328.973C1237.51 328.807 1237.37 328.59 1237.3 328.346C1237.23 328.103 1237.24 327.845 1237.32 327.604C1237.39 327.364 1237.54 327.152 1237.74 326.994C1237.94 326.837 1238.18 326.741 1238.43 326.719L1243.04 326.347L1244.82 322.044C1244.91 321.809 1245.08 321.609 1245.29 321.467C1245.5 321.326 1245.74 321.251 1246 321.251C1246.25 321.251 1246.5 321.326 1246.71 321.467C1246.92 321.609 1247.08 321.809 1247.18 322.044L1248.96 326.347L1253.57 326.719C1253.82 326.74 1254.06 326.835 1254.26 326.993C1254.46 327.15 1254.6 327.362 1254.68 327.603C1254.76 327.844 1254.77 328.102 1254.7 328.346C1254.63 328.59 1254.49 328.808 1254.3 328.973L1254.3 328.973Z" fill="white"/>
</g>
</g>
<g opacity="0.4" clip-path="url(#clip15_1746_16582)">
<g filter="url(#filter17_f_1746_16582)">
<path d="M1884.3 558.973L1880.79 562.006L1881.86 566.543C1881.92 566.789 1881.9 567.048 1881.82 567.285C1881.73 567.523 1881.57 567.729 1881.37 567.878C1881.16 568.027 1880.92 568.112 1880.66 568.122C1880.41 568.132 1880.16 568.067 1879.95 567.935L1876 565.507L1872.05 567.935C1871.84 568.066 1871.59 568.131 1871.33 568.12C1871.08 568.11 1870.84 568.025 1870.63 567.876C1870.43 567.727 1870.27 567.521 1870.18 567.284C1870.1 567.047 1870.08 566.789 1870.14 566.543L1871.22 562.006L1867.7 558.973C1867.51 558.807 1867.37 558.59 1867.3 558.346C1867.23 558.103 1867.24 557.845 1867.32 557.604C1867.39 557.364 1867.54 557.152 1867.74 556.994C1867.94 556.837 1868.18 556.741 1868.43 556.719L1873.04 556.347L1874.82 552.044C1874.91 551.809 1875.08 551.609 1875.29 551.467C1875.5 551.326 1875.74 551.251 1876 551.251C1876.25 551.251 1876.5 551.326 1876.71 551.467C1876.92 551.609 1877.08 551.809 1877.18 552.044L1878.96 556.347L1883.57 556.719C1883.82 556.74 1884.06 556.835 1884.26 556.993C1884.46 557.15 1884.6 557.362 1884.68 557.603C1884.76 557.844 1884.77 558.102 1884.7 558.346C1884.63 558.59 1884.49 558.808 1884.3 558.973L1884.3 558.973Z" fill="white"/>
</g>
</g>
<g clip-path="url(#clip16_1746_16582)">
<g filter="url(#filter18_f_1746_16582)">
<path d="M1504.3 558.973L1500.79 562.006L1501.86 566.543C1501.92 566.789 1501.9 567.048 1501.82 567.285C1501.73 567.523 1501.57 567.729 1501.37 567.878C1501.16 568.027 1500.92 568.112 1500.66 568.122C1500.41 568.132 1500.16 568.067 1499.95 567.935L1496 565.507L1492.05 567.935C1491.84 568.066 1491.59 568.131 1491.33 568.12C1491.08 568.11 1490.84 568.025 1490.63 567.876C1490.43 567.727 1490.27 567.521 1490.18 567.284C1490.1 567.047 1490.08 566.789 1490.14 566.543L1491.22 562.006L1487.7 558.973C1487.51 558.807 1487.37 558.59 1487.3 558.346C1487.23 558.103 1487.24 557.845 1487.32 557.604C1487.39 557.364 1487.54 557.152 1487.74 556.994C1487.94 556.837 1488.18 556.741 1488.43 556.719L1493.04 556.347L1494.82 552.044C1494.91 551.809 1495.08 551.609 1495.29 551.467C1495.5 551.326 1495.74 551.251 1496 551.251C1496.25 551.251 1496.5 551.326 1496.71 551.467C1496.92 551.609 1497.08 551.809 1497.18 552.044L1498.96 556.347L1503.57 556.719C1503.82 556.74 1504.06 556.835 1504.26 556.993C1504.46 557.15 1504.6 557.362 1504.68 557.603C1504.76 557.844 1504.77 558.102 1504.7 558.346C1504.63 558.59 1504.49 558.808 1504.3 558.973L1504.3 558.973Z" fill="white"/>
</g>
</g>
</g>
<g style="mix-blend-mode:darken" filter="url(#filter19_f_1746_16582)">
<path d="M1240 960C1240 984.853 1120.46 1005 973 1005C825.54 1005 706 984.853 706 960C706 935.147 825.54 915 973 915C1120.46 915 1240 935.147 1240 960Z" fill="url(#paint2_linear_1746_16582)" fill-opacity="0.1"/>
</g>
<g clip-path="url(#clip17_1746_16582)">
<path d="M1053.67 700.094C1050.99 697.016 1046.09 696.872 1042.33 698.492C1038.59 700.112 1035.65 703.118 1032.58 705.8C1029.5 708.482 1025.99 711.038 1021.92 711.398C1016.99 711.83 1012.45 708.986 1008.19 706.502C1003.92 704.018 998.898 701.696 994.182 703.208C998.718 704.198 1002.12 710.012 1003.74 714.35C1005.36 718.688 1006.48 723.476 1009.73 726.77C1015.19 732.278 1024.15 731.486 1031.77 730.01C1039.38 728.552 1048.04 727.022 1054.21 731.702L1053.65 700.094H1053.67Z" fill="#FAAC22"/>
<path d="M1055.6 695H1052.02V751.142H1055.6V695Z" fill="#1F141C"/>
<path d="M972.6 826.814L1057.02 746.966L1141.44 826.814L1168.98 936.938H945.06L972.6 826.814Z" fill="#FFF2E3"/>
<path d="M1057.02 746.966L1094.44 834.5L1168 936.928L1174.5 961.428H1057.02V746.966Z" fill="#1C2B41"/>
<path d="M938.796 962.012L945.06 936.938H1057V962.012H938.796Z" fill="#3F71D1"/>
<path d="M972.6 826.814H824.37L908.79 746.966H1057.02L972.6 826.814Z" fill="#417CEE"/>
<path d="M1057.02 746.966L1168.98 936.938C1168.98 936.938 1058.84 859.34 1057.02 746.966Z" fill="#3F71D1"/>
<path d="M1140.2 826.814L1197.73 962.138H1198.99L1141.44 826.814" fill="#FDFBE2"/>
<path d="M972.6 826.814L915.072 962.138H913.83L971.358 826.814" fill="#F8DC56"/>
<path d="M796.83 936.938L824.37 826.814H972.6L945.06 936.938H796.83Z" fill="#B9A690"/>
<path d="M938.796 962.012H790.566L796.83 936.938H945.06L938.796 962.012Z" fill="#2E5193"/>
<path d="M874.32 902.792H851.316L861.792 860.942H884.796L874.32 902.792Z" fill="#1C2B41"/>
<path d="M892.212 860.942H918.114L907.656 902.792H881.754L892.212 860.942Z" fill="#1C2B41"/>
<path d="M972.6 826.814L915.072 962.138H913.83L971.358 826.814" fill="#FDFBE2"/>
<path d="M825.63 826.814L768.084 962.138H766.842L824.37 826.814" fill="#FDFBE2"/>
</g>
<g filter="url(#filter20_f_1746_16582)">
<path d="M1265.84 498.28C1236.68 508 1205.14 492.24 1195.42 463.08C1189.68 445.88 1192.82 427.88 1202.32 414C1177.8 421.6 1160 444.46 1160 471.48C1160 504.7 1186.94 531.64 1220.16 531.64C1245.54 531.64 1267.24 515.92 1276.08 493.68C1272.9 495.52 1269.48 497.06 1265.84 498.28Z" fill="#FFF496"/>
</g>
<g filter="url(#filter21_i_1746_16582)">
<path d="M1265.84 498.28C1236.68 508 1205.14 492.24 1195.42 463.08C1189.68 445.88 1192.82 427.88 1202.32 414C1177.8 421.6 1160 444.46 1160 471.48C1160 504.7 1186.94 531.64 1220.16 531.64C1245.54 531.64 1267.24 515.92 1276.08 493.68C1272.9 495.52 1269.48 497.06 1265.84 498.28Z" fill="url(#paint3_linear_1746_16582)"/>
</g>
<g filter="url(#filter22_f_1746_16582)">
<path d="M1268.01 464.818L1266.13 470.503L1270.95 474.038C1272.81 475.398 1271.83 478.325 1269.55 478.318L1263.56 478.296L1261.68 483.981C1260.96 486.153 1257.88 486.155 1257.18 483.959L1255.36 478.258L1249.38 478.237C1247.08 478.218 1246.15 475.3 1248 473.955L1252.85 470.446L1251.03 464.745C1250.32 462.565 1252.83 460.761 1254.69 462.121L1259.51 465.656L1264.37 462.146C1266.22 460.802 1268.72 462.634 1268 464.806L1268.01 464.818Z" fill="white"/>
</g>
<g filter="url(#filter23_f_1746_16582)">
<path d="M598.464 507.87C617.472 507.87 632.88 492.462 632.88 473.454C632.88 454.446 617.472 439.038 598.464 439.038C591.264 439.038 584.568 441.27 579.048 445.062C572.016 429.966 556.752 419.478 539.016 419.478C527.616 419.478 517.248 423.846 509.424 430.926C500.952 411.438 481.56 397.83 458.952 397.83C428.544 397.854 403.92 422.478 403.92 452.862C403.92 483.246 428.544 507.87 458.928 507.87H598.464Z" fill="white"/>
</g>
<g filter="url(#filter24_f_1746_16582)">
<path d="M664.56 431.16C659.64 431.16 655.06 432.68 651.28 435.28C646.48 424.98 636.06 417.8 623.92 417.8C616.12 417.8 609.06 420.78 603.7 425.62C597.92 412.32 584.66 403 569.22 403C551.58 403 536.82 415.18 532.76 431.56C535.88 430.7 539.16 430.22 542.54 430.22C557.32 430.22 570.04 438.96 575.9 451.54C580.5 448.38 586.08 446.52 592.08 446.52C607.92 446.52 620.76 459.36 620.76 475.2C620.76 476.2 620.7 477.2 620.6 478.18H664.52C677.5 478.18 688.04 467.66 688.04 454.66C688.04 441.66 677.52 431.14 664.52 431.14L664.56 431.16Z" fill="#E4F9FF"/>
</g>
<g opacity="0.8" filter="url(#filter25_f_1746_16582)">
<path d="M1478.76 638.483C1488.9 638.483 1497.12 631.547 1497.12 622.991C1497.12 614.436 1488.9 607.5 1478.76 607.5C1474.92 607.5 1471.34 608.496 1468.4 610.2C1464.66 603.416 1456.52 598.691 1447.04 598.691C1440.96 598.691 1435.44 600.649 1431.26 603.838C1426.74 595.08 1416.4 588.938 1404.34 588.938C1388.14 588.938 1375 600.024 1375 613.693C1375 627.362 1388.14 638.449 1404.34 638.449H1478.76V638.483Z" fill="#E4F9FF"/>
</g>
<g style="mix-blend-mode:screen" opacity="0.8" filter="url(#filter26_f_1746_16582)">
<path d="M339.76 607.858C349.9 607.858 358.12 600.922 358.12 592.366C358.12 583.811 349.9 576.875 339.76 576.875C335.92 576.875 332.34 577.871 329.4 579.575C325.66 572.791 317.52 568.066 308.04 568.066C301.96 568.066 296.44 570.024 292.26 573.213C287.74 564.455 277.4 558.312 265.34 558.312C249.14 558.312 236 569.399 236 583.068C236 596.737 249.14 607.824 265.34 607.824H339.76V607.858Z" fill="#E4F9FF"/>
</g>
<path d="M1422.28 -54.9758C1630.2 -35.9754 1749.01 -101.3 1782.42 -136.337L1719.75 -578.416L-206.491 -305.316L-136.3 186.198C17.1654 164.44 84.0873 85.2372 281.892 44.0871C480.067 2.86004 650.73 74.6136 884.492 41.4711C1043.9 18.8706 1162.37 -78.7264 1422.28 -54.9758Z" fill="white" fill-opacity="0.1"/>
<path d="M79.36 1019.02C81.1 1019.44 81.7 1019.86 81.76 1021.12C81.76 1021.84 81.52 1022.92 80.86 1023.1C80.2 1023.28 79.42 1023.28 78.46 1023.1C76.96 1022.92 75.28 1022.86 73.42 1022.86C67.6 1022.86 64.84 1027 64.84 1031.02C64.84 1034.5 65.98 1037.02 71.5 1037.02C74.32 1037.02 77.38 1036.18 79.96 1034.68C80.44 1034.38 80.92 1034.2 81.4 1034.2C81.7 1034.2 81.94 1034.26 82.24 1034.38C82.9 1034.68 83.2 1035.28 83.2 1036.3C83.2 1037.08 82.6 1037.8 81.7 1038.46C78.34 1040.56 74.74 1041.4 71.32 1041.4C62.02 1041.4 59.68 1036.78 59.68 1030.84C59.68 1023.1 65.8 1018.48 73.18 1018.48C75.1 1018.48 77.38 1018.54 79.36 1019.02ZM88.6258 1015.66C94.8658 1015.66 99.3658 1016.38 102.186 1017.28C105.126 1018.24 106.686 1020.22 106.686 1023.58V1037.68C106.686 1039.54 105.846 1040.5 104.106 1040.5C102.486 1040.5 101.586 1039.72 101.526 1037.86C99.6658 1038.52 97.8658 1038.82 95.4058 1038.82C88.9258 1038.82 85.7458 1037.5 85.7458 1032.76C85.7458 1026.34 89.0458 1024.06 95.9458 1024.06C97.9258 1024.06 99.7858 1024.3 101.526 1024.78V1024.18C101.526 1022.5 100.986 1021.54 98.8858 1020.88C95.4658 1019.86 92.2258 1019.92 88.3858 1019.68C87.2458 1019.62 86.2258 1019.14 86.2258 1017.64C86.2258 1016.32 87.0058 1015.66 88.6258 1015.66ZM95.2258 1034.44C97.0858 1034.44 99.1858 1034.14 101.526 1033.36V1029.04C99.9058 1028.56 98.4058 1028.26 96.5458 1028.26C91.9258 1028.26 90.9058 1029.58 90.9058 1031.98C90.9058 1034.2 93.0058 1034.44 95.2258 1034.44ZM138.395 1037.68V1026.58C138.395 1022.44 137.135 1021.18 134.435 1021.18C133.175 1021.18 131.735 1021.96 130.355 1023.16C130.715 1024.24 130.895 1025.44 130.895 1026.82V1037.68C130.895 1039.54 130.055 1040.5 128.315 1040.5C126.575 1040.5 125.735 1039.54 125.735 1037.68V1027.18C125.735 1023.04 124.475 1021.84 121.775 1021.84C120.755 1021.84 119.615 1022.38 118.475 1023.16V1037.68C118.475 1039.54 117.635 1040.5 115.895 1040.5C114.155 1040.5 113.315 1039.54 113.315 1037.68V1024.9C113.315 1022.56 112.715 1020.94 110.795 1019.32C109.655 1018.42 109.115 1017.94 109.115 1017.04C109.115 1015.66 109.775 1014.64 111.515 1014.64C113.375 1014.64 114.635 1015.72 116.015 1017.16C116.495 1017.7 117.035 1018.42 117.515 1019.38C119.195 1018.18 120.875 1017.46 122.495 1017.46C125.075 1017.46 127.115 1018.3 128.675 1019.98C131.015 1017.88 133.355 1016.8 135.575 1016.8C140.555 1016.8 143.555 1020.04 143.555 1026.22V1037.68C143.555 1039.54 142.715 1040.5 140.975 1040.5C139.235 1040.5 138.395 1039.54 138.395 1037.68ZM156.268 1038.46V1046.68C156.268 1048.54 155.428 1049.5 153.688 1049.5C151.948 1049.5 151.108 1048.54 151.108 1046.68V1025.5C151.108 1023.16 150.508 1021.54 148.588 1019.92C147.448 1019.02 146.908 1018.54 146.908 1017.64C146.908 1016.26 147.568 1015.24 149.308 1015.24C151.168 1015.24 152.428 1016.32 153.808 1017.76C153.868 1017.88 154.048 1018.06 154.228 1018.24C156.568 1017.76 159.088 1017.28 161.548 1017.28C168.568 1017.28 173.488 1020.82 173.488 1028.92C173.488 1034.14 169.468 1038.82 161.368 1038.82C159.388 1038.82 157.888 1038.76 156.268 1038.46ZM156.268 1024.3V1034.02C157.888 1034.32 159.448 1034.44 161.188 1034.44C165.748 1034.44 168.508 1032.34 168.508 1028.5C168.508 1024.18 166.288 1021.66 161.428 1021.66C159.568 1021.66 157.768 1021.9 156.088 1022.32C156.208 1022.92 156.268 1023.58 156.268 1024.3ZM180.664 1027.3H192.844C192.844 1022.44 191.164 1020.76 187.084 1020.76C182.944 1020.76 180.664 1022.44 180.664 1027.3ZM195.604 1039.9C193.264 1040.44 191.044 1040.68 188.824 1040.68C178.624 1040.68 175.504 1038.34 175.504 1029.46C175.504 1020.76 179.164 1016.38 187.564 1016.38C194.044 1016.38 198.004 1019.44 198.004 1026.88C198.004 1030.36 197.284 1031.68 193.384 1031.68H180.664C180.664 1035.16 181.744 1036.3 188.104 1036.3C190.864 1036.3 193.084 1036.06 194.764 1035.58C195.064 1035.52 195.364 1035.46 195.664 1035.46C196.204 1035.46 196.624 1035.58 196.984 1035.88C197.524 1036.3 197.824 1036.96 197.824 1037.74V1038.04C197.764 1039.06 196.984 1039.6 195.604 1039.9ZM221.686 1022.44C217.426 1023.94 213.886 1025.62 210.526 1027.78V1039.48C210.526 1041.34 209.686 1042.3 207.946 1042.3C206.206 1042.3 205.366 1041.34 205.366 1039.48V1024.3C205.366 1021.96 204.766 1020.34 202.846 1018.72C201.706 1017.82 201.166 1017.34 201.166 1016.44C201.166 1015.06 201.826 1014.04 203.566 1014.04C205.426 1014.04 206.686 1015.12 208.066 1016.56C209.026 1017.58 210.226 1019.5 210.466 1022.2C213.586 1020.34 216.706 1019.26 219.166 1018.6C219.886 1018.42 220.426 1018.36 220.846 1018.36C221.026 1018.36 221.266 1018.36 221.506 1018.42C222.406 1018.6 223.066 1019.26 223.066 1020.46C223.066 1021.48 222.586 1022.14 221.686 1022.44ZM225.445 997.6C225.445 995.5 226.825 994 228.925 994C231.025 994 232.405 995.5 232.405 997.6C232.405 1001.86 229.465 1004.92 227.545 1004.92C226.645 1004.92 226.165 1004.56 226.165 1003.84C226.165 1003.06 227.545 1002.4 228.205 1001.2C226.525 1001.02 225.445 999.46 225.445 997.6ZM235.361 1040.62C234.701 1040.2 234.221 1039.6 234.221 1038.64C234.221 1037.02 235.481 1036.6 236.201 1036.6C236.501 1036.6 236.741 1036.66 237.041 1036.84C239.021 1037.86 240.941 1038.4 242.801 1038.4C245.981 1038.4 249.101 1037.68 249.101 1035.04C249.101 1031.86 246.101 1031.86 242.261 1031.08C238.541 1030.24 234.641 1028.5 234.641 1023.4C234.641 1017.64 239.021 1014.76 245.201 1014.76C246.821 1014.76 249.101 1015.24 250.541 1015.66C252.161 1016.14 252.461 1017.04 252.461 1018V1018.24C252.401 1019.5 251.441 1020.16 250.661 1020.16C250.241 1020.16 249.761 1020.04 249.221 1019.86C248.081 1019.44 246.281 1019.14 244.901 1019.14C242.081 1019.2 239.801 1020.22 239.801 1023.28C239.801 1026.4 242.681 1026.58 246.701 1027.24C250.361 1027.72 254.261 1029.76 254.261 1034.44C254.261 1040.8 248.381 1042.78 243.581 1042.78H243.101C240.161 1042.72 237.521 1042.06 235.361 1040.62Z" fill="white"/>
<path d="M309.156 1039.26V1041.67H289.633V1039.26H297.883V1034.5H300.883V1039.26H309.156ZM307.445 1024.45V1026.86H300.953C301.199 1029.67 303.848 1032.29 308.43 1032.95L307.258 1035.32C303.52 1034.66 300.754 1032.84 299.383 1030.3C298.023 1032.88 295.281 1034.76 291.602 1035.44L290.43 1033.07C294.859 1032.36 297.52 1029.68 297.766 1026.86H291.25V1024.45H307.445ZM328.352 1022.83V1035.48H325.375V1030.45H322.047V1028.03H325.375V1022.83H328.352ZM321.062 1035.95C325.609 1035.98 328.398 1037.48 328.422 1040.08C328.398 1042.66 325.609 1044.18 321.062 1044.18C316.516 1044.18 313.727 1042.66 313.727 1040.08C313.727 1037.48 316.516 1035.98 321.062 1035.95ZM321.062 1038.25C318.227 1038.25 316.703 1038.84 316.703 1040.08C316.703 1041.3 318.227 1041.91 321.062 1041.91C323.898 1041.91 325.445 1041.3 325.445 1040.08C325.445 1038.84 323.898 1038.25 321.062 1038.25ZM322.68 1024.12V1026.51H318.438C318.508 1028.99 320.008 1031.5 323.336 1032.6L321.859 1034.95C319.504 1034.18 317.887 1032.64 316.961 1030.7C316.012 1032.88 314.312 1034.64 311.781 1035.51L310.234 1033.14C313.738 1031.97 315.309 1029.18 315.391 1026.51H311.102V1024.12H322.68ZM349.047 1022.83V1044.16H346.07V1022.83H349.047ZM331.211 1037.99C335.172 1038.02 340.328 1038.04 344.898 1037.43L345.109 1039.61C340.328 1040.48 335.453 1040.48 331.609 1040.48L331.211 1037.99ZM344.594 1025.43V1027.77H331.633V1025.43H336.602V1023.06H339.625V1025.43H344.594ZM338.125 1028.59C341.242 1028.59 343.398 1030.19 343.398 1032.67C343.398 1035.09 341.242 1036.73 338.125 1036.73C335.031 1036.73 332.852 1035.09 332.875 1032.67C332.852 1030.19 335.031 1028.59 338.125 1028.59ZM338.125 1030.87C336.672 1030.87 335.688 1031.55 335.711 1032.67C335.688 1033.8 336.672 1034.43 338.125 1034.45C339.555 1034.43 340.539 1033.8 340.539 1032.67C340.539 1031.55 339.555 1030.87 338.125 1030.87Z" fill="white"/>
<path d="M391.188 1034.36V1037.57C392.934 1037.46 394.703 1037.3 396.367 1037.05L396.602 1039.23C391.867 1040.15 386.805 1040.2 383.078 1040.2L382.727 1037.78C384.332 1037.77 386.219 1037.76 388.211 1037.69V1034.36H391.188ZM395.594 1025.34V1027.75H391.234C391.434 1029.81 393.039 1031.75 396.25 1032.53L394.891 1034.85C392.395 1034.22 390.672 1032.84 389.711 1031.05C388.762 1032.92 387.062 1034.37 384.555 1035.02L383.148 1032.77C386.371 1031.91 387.93 1029.91 388.141 1027.75H383.828V1025.34H388.211V1023.02H391.188V1025.34H395.594ZM400.562 1022.83V1044.2H397.586V1022.83H400.562ZM422.898 1039.23V1041.67H403.375V1039.23H411.602V1035.3H405.438V1024.19H408.438V1027.49H417.742V1024.19H420.719V1035.3H414.578V1039.23H422.898ZM408.438 1032.91H417.742V1029.88H408.438V1032.91ZM441.039 1022.85V1027.89H443.922V1030.38H441.039V1035.51H438.039V1022.85H441.039ZM441.039 1036.4V1043.92H427.07V1036.4H441.039ZM430 1038.74V1041.53H438.109V1038.74H430ZM434.664 1023.88V1030.38H427.867V1032.3C431.395 1032.27 433.785 1032.16 436.492 1031.69L436.82 1034.03C433.75 1034.64 431.008 1034.73 426.695 1034.73H424.891V1028.12H431.758V1026.27H424.867V1023.88H434.664Z" fill="white"/>
<path d="M484.188 1034.36V1037.57C485.934 1037.46 487.703 1037.3 489.367 1037.05L489.602 1039.23C484.867 1040.15 479.805 1040.2 476.078 1040.2L475.727 1037.78C477.332 1037.77 479.219 1037.76 481.211 1037.69V1034.36H484.188ZM488.594 1025.34V1027.75H484.234C484.434 1029.81 486.039 1031.75 489.25 1032.53L487.891 1034.85C485.395 1034.22 483.672 1032.84 482.711 1031.05C481.762 1032.92 480.062 1034.37 477.555 1035.02L476.148 1032.77C479.371 1031.91 480.93 1029.91 481.141 1027.75H476.828V1025.34H481.211V1023.02H484.188V1025.34H488.594ZM493.562 1022.83V1044.2H490.586V1022.83H493.562ZM515.875 1032.91V1035.25H496.375V1032.91H504.672V1031.08H498.742V1023.77H513.531V1026.09H501.719V1028.73H513.648V1031.08H507.602V1032.91H515.875ZM506.078 1036.33C510.695 1036.33 513.484 1037.73 513.508 1040.27C513.484 1042.75 510.695 1044.18 506.078 1044.18C501.414 1044.18 498.602 1042.75 498.602 1040.27C498.602 1037.73 501.414 1036.33 506.078 1036.33ZM506.078 1038.6C503.125 1038.6 501.625 1039.16 501.648 1040.27C501.625 1041.39 503.125 1041.91 506.078 1041.91C508.961 1041.91 510.484 1041.39 510.508 1040.27C510.484 1039.16 508.961 1038.6 506.078 1038.6ZM534.062 1024V1025.43C534.062 1027.21 534.062 1029.67 533.5 1033.19H536.57V1035.6H531.953V1044.16H528.977V1035.6H524.547V1044.16H521.547V1035.6H517.117V1033.19H530.477C531.016 1030.3 531.109 1028.09 531.156 1026.41H519.438V1024H534.062Z" fill="white"/>
<path d="M579.953 1024.07C579.953 1029.7 576.273 1033.54 569.898 1035.18L568.75 1032.86C573.543 1031.64 576.273 1029.26 576.742 1026.39H569.992V1024.07H579.953ZM586.492 1022.85V1034.76H583.492V1022.85H586.492ZM586.492 1035.62V1043.9H572.266V1035.62H586.492ZM575.242 1037.97V1041.55H583.562V1037.97H575.242ZM608.875 1032.91V1035.25H589.375V1032.91H597.672V1031.08H591.742V1023.77H606.531V1026.09H594.719V1028.73H606.648V1031.08H600.602V1032.91H608.875ZM599.078 1036.33C603.695 1036.33 606.484 1037.73 606.508 1040.27C606.484 1042.75 603.695 1044.18 599.078 1044.18C594.414 1044.18 591.602 1042.75 591.602 1040.27C591.602 1037.73 594.414 1036.33 599.078 1036.33ZM599.078 1038.6C596.125 1038.6 594.625 1039.16 594.648 1040.27C594.625 1041.39 596.125 1041.91 599.078 1041.91C601.961 1041.91 603.484 1041.39 603.508 1040.27C603.484 1039.16 601.961 1038.6 599.078 1038.6ZM616.188 1023.46C619.422 1023.46 621.883 1025.48 621.883 1028.34C621.883 1031.15 619.422 1033.19 616.188 1033.19C612.883 1033.19 610.445 1031.15 610.445 1028.34C610.445 1025.48 612.883 1023.46 616.188 1023.46ZM616.188 1025.9C614.547 1025.9 613.328 1026.79 613.352 1028.34C613.328 1029.86 614.547 1030.77 616.188 1030.77C617.805 1030.77 619 1029.86 619 1028.34C619 1026.79 617.805 1025.9 616.188 1025.9ZM627.977 1022.83V1033.52H624.977V1022.83H627.977ZM627.977 1034.41V1040.2H616.633V1041.58H628.562V1043.92H613.703V1038.02H625V1036.7H613.656V1034.41H627.977Z" fill="white"/>
<path d="M665.055 1024.73V1029.53H667.961V1024.73H670.727V1039.09H662.242V1024.73H665.055ZM665.055 1036.7H667.961V1031.88H665.055V1036.7ZM680.125 1022.83V1044.16H677.266V1033.4H675.344V1043.17H672.508V1023.13H675.344V1030.96H677.266V1022.83H680.125ZM694.539 1025.38V1027.75H690.227C690.238 1030.13 691.785 1032.55 695.242 1033.54L693.766 1035.93C691.387 1035.24 689.734 1033.79 688.797 1031.95C687.836 1033.93 686.148 1035.5 683.711 1036.28L682.211 1033.91C685.668 1032.86 687.238 1030.32 687.25 1027.75H682.961V1025.38H687.25V1022.97H690.273V1025.38H694.539ZM699.297 1022.83V1029.16H702.18V1031.57H699.297V1038.6H696.297V1022.83H699.297ZM700.07 1041.39V1043.78H685.469V1037.22H688.445V1041.39H700.07ZM711.438 1027.05C711.438 1029.6 713.008 1032.2 716.523 1033.26L715 1035.6C712.609 1034.85 710.922 1033.32 709.961 1031.38C708.988 1033.48 707.254 1035.17 704.758 1036L703.211 1033.66C706.75 1032.51 708.391 1029.74 708.391 1027.05V1026.74H704.008V1024.35H715.727V1026.74H711.438V1027.05ZM720.977 1022.85V1038.27H717.977V1022.85H720.977ZM721.539 1041.39V1043.78H706.68V1036.87H709.703V1041.39H721.539Z" fill="white"/>
<path d="M59.7871 97V75.7891H73.7617V79.4219H64.1816V84.5781H72.8535V88.2109H64.1816V97H59.7871ZM85.7734 90.2324V81.0918H90.1094V97H85.9492V94.1289H85.7734C85.041 95.9746 83.3418 97.2051 80.9395 97.2051C77.7461 97.2051 75.5781 94.9492 75.5781 91.2285V81.0918H79.9141V90.4668C79.9141 92.3418 80.998 93.543 82.6973 93.543C84.2793 93.543 85.7734 92.4004 85.7734 90.2324ZM97.8145 75.7891V97H93.4785V75.7891H97.8145ZM105.52 75.7891V97H101.184V75.7891H105.52ZM117.971 85.8086C117.795 84.6953 116.799 83.9629 115.363 83.9629C113.957 83.9629 112.873 84.6367 112.902 85.6035C112.873 86.3066 113.459 86.8633 114.953 87.1855L117.795 87.7715C120.871 88.416 122.365 89.793 122.395 92.0781C122.365 95.2129 119.553 97.3223 115.334 97.3223C111.027 97.3223 108.508 95.3887 108.156 92.2832H112.521C112.727 93.543 113.752 94.1875 115.334 94.1875C116.916 94.1875 117.971 93.543 117.971 92.5176C117.971 91.6973 117.297 91.1992 115.803 90.877L113.166 90.3496C110.148 89.7637 108.566 88.1816 108.596 85.8379C108.566 82.791 111.203 80.8867 115.305 80.8867C119.318 80.8867 121.809 82.791 122.043 85.8086H117.971ZM133.439 81.0918V84.3438H130.451V92.1074C130.451 93.3672 131.066 93.6895 131.945 93.7188C132.385 93.7188 133.146 93.6895 133.674 93.6309V97.0586C133.205 97.1465 132.443 97.2051 131.359 97.2051C128.225 97.2051 126.086 95.7988 126.115 92.7227V84.3438H123.918V81.0918H126.115V77.2832H130.451V81.0918H133.439ZM135.402 92.5469C135.402 89.002 138.273 87.8301 141.32 87.6543C142.463 87.5811 144.602 87.4785 145.275 87.4492V86.1602C145.246 84.8418 144.338 84.0508 142.727 84.0508C141.262 84.0508 140.324 84.7246 140.09 85.8086H135.959C136.223 83.0547 138.625 80.8867 142.844 80.8867C146.301 80.8867 149.582 82.4395 149.582 86.2773V97H145.48V94.8027H145.363C144.572 96.2676 143.078 97.293 140.705 97.293C137.658 97.293 135.402 95.7109 135.402 92.5469ZM139.562 92.4297C139.562 93.6602 140.559 94.3047 141.936 94.3047C143.898 94.3047 145.305 92.9863 145.275 91.3164V90.1445C144.616 90.1738 142.771 90.2764 142.023 90.3496C140.529 90.4961 139.562 91.1992 139.562 92.4297ZM160.041 97.3223C155.178 97.3223 152.248 93.9531 152.248 89.0898C152.248 84.2266 155.207 80.8867 160.041 80.8867C164.143 80.8867 166.926 83.2891 167.102 86.9219H163.029C162.766 85.3398 161.74 84.2559 160.1 84.2559C158.02 84.2559 156.643 86.0137 156.643 89.0312C156.643 92.1074 157.99 93.8652 160.1 93.8652C161.623 93.8652 162.766 92.9277 163.029 91.2285H167.102C166.896 94.832 164.26 97.3223 160.041 97.3223ZM169.797 97V75.7891H174.133V87.1855H174.367L179.523 81.0918H184.504L178.586 87.9766L184.826 97H179.729L175.363 90.5254L174.133 91.9023V97H169.797ZM200.998 97H193.527V75.7891H201.086C207.473 75.7891 211.369 79.7734 211.369 86.3652C211.369 93.0156 207.473 97 200.998 97ZM197.922 93.2207H200.822C204.865 93.2207 206.975 91.1113 206.975 86.3652C206.975 81.6484 204.865 79.5684 200.852 79.5684H197.922V93.2207ZM221.682 97.3223C216.818 97.3223 213.83 94.1582 213.83 89.1191C213.83 84.1973 216.848 80.8867 221.506 80.8867C225.695 80.8867 228.977 83.5234 228.977 88.9434V90.1738H218.107C218.107 92.5762 219.543 94.0703 221.77 94.0703C223.234 94.0703 224.289 93.4258 224.729 92.459H228.859C228.244 95.3887 225.607 97.3223 221.682 97.3223ZM218.107 87.4492H224.875C224.875 85.5156 223.527 84.1387 221.594 84.1387C219.602 84.1387 218.181 85.6182 218.107 87.4492ZM246.027 81.0918L240.432 97H235.568L230.002 81.0918H234.572L237.912 92.5176H238.088L241.428 81.0918H246.027ZM254.816 97.3223C249.953 97.3223 246.965 94.1582 246.965 89.1191C246.965 84.1973 249.982 80.8867 254.641 80.8867C258.83 80.8867 262.111 83.5234 262.111 88.9434V90.1738H251.242C251.242 92.5762 252.678 94.0703 254.904 94.0703C256.369 94.0703 257.424 93.4258 257.863 92.459H261.994C261.379 95.3887 258.742 97.3223 254.816 97.3223ZM251.242 87.4492H258.01C258.01 85.5156 256.662 84.1387 254.729 84.1387C252.736 84.1387 251.315 85.6182 251.242 87.4492ZM269.172 75.7891V97H264.836V75.7891H269.172ZM279.689 97.3223C274.885 97.3223 271.896 94.0117 271.896 89.0898C271.896 84.168 274.885 80.8867 279.689 80.8867C284.494 80.8867 287.512 84.168 287.512 89.0898C287.512 94.0117 284.494 97.3223 279.689 97.3223ZM279.719 93.9531C281.945 93.9531 283.088 91.873 283.088 89.0898C283.088 86.2773 281.945 84.1973 279.719 84.1973C277.463 84.1973 276.291 86.2773 276.291 89.0898C276.291 91.873 277.463 93.9531 279.719 93.9531ZM290.236 102.977V81.0918H294.514V83.7578H294.689C295.275 82.4688 296.564 80.8867 299.23 80.8867C302.746 80.8867 305.676 83.6113 305.676 89.0605C305.676 94.3633 302.863 97.2637 299.23 97.2637C296.623 97.2637 295.305 95.7695 294.689 94.4512H294.572V102.977H290.236ZM294.484 89.0312C294.484 91.9023 295.715 93.8066 297.854 93.8066C300.08 93.8066 301.252 91.8438 301.252 89.0312C301.252 86.248 300.08 84.3438 297.854 84.3438C295.686 84.3438 294.484 86.1602 294.484 89.0312ZM315.695 97.3223C310.832 97.3223 307.844 94.1582 307.844 89.1191C307.844 84.1973 310.861 80.8867 315.52 80.8867C319.709 80.8867 322.99 83.5234 322.99 88.9434V90.1738H312.121C312.121 92.5762 313.557 94.0703 315.783 94.0703C317.248 94.0703 318.303 93.4258 318.742 92.459H322.873C322.258 95.3887 319.621 97.3223 315.695 97.3223ZM312.121 87.4492H318.889C318.889 85.5156 317.541 84.1387 315.607 84.1387C313.615 84.1387 312.194 85.6182 312.121 87.4492ZM325.715 97V81.0918H329.904V83.8457H330.08C330.666 81.8828 332.131 80.8574 333.918 80.8574C334.357 80.8574 334.914 80.916 335.295 81.0039V84.8711C334.885 84.7539 334.064 84.6367 333.449 84.6367C331.486 84.6367 330.051 86.0137 330.051 87.9473V97H325.715ZM344.406 97V75.7891H352.727C357.561 75.7891 360.314 78.748 360.314 82.9375C360.314 87.1855 357.502 90.0859 352.609 90.0859H348.801V97H344.406ZM348.801 86.541H351.906C354.514 86.541 355.773 85.0762 355.773 82.9375C355.773 80.8281 354.514 79.3926 351.906 79.3926H348.801V86.541ZM363.01 97V81.0918H367.199V83.8457H367.375C367.961 81.8828 369.426 80.8574 371.213 80.8574C371.652 80.8574 372.209 80.916 372.59 81.0039V84.8711C372.18 84.7539 371.359 84.6367 370.744 84.6367C368.781 84.6367 367.346 86.0137 367.346 87.9473V97H363.01ZM381.35 97.3223C376.545 97.3223 373.557 94.0117 373.557 89.0898C373.557 84.168 376.545 80.8867 381.35 80.8867C386.154 80.8867 389.172 84.168 389.172 89.0898C389.172 94.0117 386.154 97.3223 381.35 97.3223ZM381.379 93.9531C383.605 93.9531 384.748 91.873 384.748 89.0898C384.748 86.2773 383.605 84.1973 381.379 84.1973C379.123 84.1973 377.951 86.2773 377.951 89.0898C377.951 91.873 379.123 93.9531 381.379 93.9531ZM391.896 81.0918H396.232V97.791C396.232 101.453 393.977 102.977 390.256 102.977L389.377 102.947V99.5488C389.611 99.5488 389.758 99.5781 389.963 99.5781C391.369 99.5781 391.896 98.9336 391.896 97.7324V81.0918ZM394.035 79.0117C392.717 79.0117 391.662 78.0156 391.662 76.8145C391.662 75.584 392.717 74.5879 394.035 74.5879C395.324 74.5879 396.379 75.584 396.379 76.8145C396.379 78.0156 395.324 79.0117 394.035 79.0117ZM406.809 97.3223C401.945 97.3223 398.957 94.1582 398.957 89.1191C398.957 84.1973 401.975 80.8867 406.633 80.8867C410.822 80.8867 414.104 83.5234 414.104 88.9434V90.1738H403.234C403.234 92.5762 404.67 94.0703 406.896 94.0703C408.361 94.0703 409.416 93.4258 409.855 92.459H413.986C413.371 95.3887 410.734 97.3223 406.809 97.3223ZM403.234 87.4492H410.002C410.002 85.5156 408.654 84.1387 406.721 84.1387C404.729 84.1387 403.308 85.6182 403.234 87.4492ZM423.977 97.3223C419.113 97.3223 416.184 93.9531 416.184 89.0898C416.184 84.2266 419.143 80.8867 423.977 80.8867C428.078 80.8867 430.861 83.2891 431.037 86.9219H426.965C426.701 85.3398 425.676 84.2559 424.035 84.2559C421.955 84.2559 420.578 86.0137 420.578 89.0312C420.578 92.1074 421.926 93.8652 424.035 93.8652C425.559 93.8652 426.701 92.9277 426.965 91.2285H431.037C430.832 94.832 428.195 97.3223 423.977 97.3223ZM442.111 81.0918V84.3438H439.123V92.1074C439.123 93.3672 439.738 93.6895 440.617 93.7188C441.057 93.7188 441.818 93.6895 442.346 93.6309V97.0586C441.877 97.1465 441.115 97.2051 440.031 97.2051C436.896 97.2051 434.758 95.7988 434.787 92.7227V84.3438H432.59V81.0918H434.787V77.2832H439.123V81.0918H442.111Z" fill="white"/>
<path d="M845.474 343.059V365.91H839.272V361.467H831.069V364.641H809.927V344.963H816.177V350.139H824.917V344.963H831.069V348.723H839.272V343.059H845.474ZM845.474 367.57V379.436H822.183V382.121H846.792V387.004H815.933V374.895H839.272V372.355H815.884V367.57H845.474ZM816.177 359.758H824.917V354.875H816.177V359.758ZM831.069 356.779H839.272V353.361H831.069V356.779ZM888.442 343.059V387.59H882.144V343.059H888.442ZM864.321 346.184C871.011 346.184 875.991 352.336 875.991 362.004C875.991 371.77 871.011 377.873 864.321 377.873C857.485 377.873 852.505 371.77 852.554 362.004C852.505 352.336 857.485 346.184 864.321 346.184ZM864.321 351.799C860.854 351.799 858.56 355.412 858.56 362.004C858.56 368.645 860.854 372.209 864.321 372.209C867.69 372.209 869.985 368.645 869.985 362.004C869.985 355.412 867.69 351.799 864.321 351.799ZM943.13 343.059V368.547H936.929V343.059H943.13ZM943.911 371.037V375.773H931.558C932.412 378.703 937.075 381.975 945.62 382.707L943.521 387.346C936.074 386.662 930.85 384.025 928.14 380.559C925.454 384.099 920.156 386.687 912.661 387.346L910.562 382.756C919.229 382.048 923.892 378.801 924.771 375.773H912.368V371.037H925.015V367.424H931.265V371.037H943.911ZM914.37 344.816V350.432H923.696V344.816H929.897V365.08H908.218V344.816H914.37ZM914.37 360.148H923.696V355.168H914.37V360.148ZM990.542 359.904V364.982H984.243V387.395H977.993V343.059H984.243V359.904H990.542ZM956.802 347.307V371.379C962.49 371.306 968.594 370.769 975.015 369.475L975.649 374.65C968.228 376.164 961.001 376.555 954.458 376.555H950.601V347.307H956.802ZM1028.48 355.168V360.051H997.427V344.621H1003.63V355.168H1028.48ZM1033.02 364.836V369.719H992.349V364.836H1033.02ZM1028.77 381.535V386.516H997.036V373.332H1003.29V381.535H1028.77ZM1082.39 370.5V387.004H1053.33V370.5H1082.39ZM1059.49 375.432V382.023H1076.24V375.432H1059.49ZM1082.39 343.059V352.922H1088.39V358.098H1082.39V368.449H1076.14V343.059H1082.39ZM1054.65 345.402V351.018H1063.74V345.402H1069.99V366.35H1048.45V345.402H1054.65ZM1054.65 361.369H1063.74V355.803H1054.65V361.369ZM1099.72 379.387L1095.52 393.303H1090.35L1092.79 379.387H1099.72ZM808.73 403.059V447.59H802.529V421.857H790.371V416.779H802.529V403.059H808.73ZM779.727 407.795V431.916C785.391 431.843 791.152 431.354 797.207 430.207L797.891 435.285C790.713 436.799 783.877 437.141 777.236 437.141H773.477V407.795H779.727ZM827.627 405.695C834.463 405.695 839.785 410.188 839.834 416.584C839.785 421.955 836.05 425.983 830.801 427.131V433.186C834.316 433.039 837.808 432.746 841.104 432.307L841.543 436.896C832.266 438.654 822.256 438.654 814.688 438.557L813.857 433.527C817.056 433.503 820.742 433.503 824.6 433.43V427.18C819.155 426.081 815.42 422.028 815.42 416.584C815.42 410.188 820.596 405.695 827.627 405.695ZM827.627 410.969C824.111 410.969 821.475 413.02 821.523 416.584C821.475 420.1 824.111 422.199 827.627 422.199C831.045 422.199 833.682 420.1 833.682 416.584C833.682 413.02 831.045 410.969 827.627 410.969ZM849.697 403.059V420.49H855.752V425.715H849.697V447.492H843.447V403.059H849.697ZM910.488 419.904V424.982H904.189V447.395H897.939V403.059H904.189V419.904H910.488ZM876.748 407.307V431.379C882.437 431.306 888.54 430.769 894.961 429.475L895.596 434.65C888.174 436.164 880.947 436.555 874.404 436.555H870.547V407.307H876.748ZM926.748 406.037C933.779 405.988 939.053 410.578 939.053 416.926C939.053 423.322 933.779 427.863 926.748 427.863C919.717 427.863 914.395 423.322 914.395 416.926C914.395 410.578 919.717 405.988 926.748 406.037ZM926.748 411.408C923.232 411.408 920.547 413.459 920.596 416.926C920.547 420.441 923.232 422.443 926.748 422.443C930.264 422.443 932.949 420.441 932.998 416.926C932.949 413.459 930.312 411.408 926.748 411.408ZM949.697 403.059V447.59H943.496V403.059H949.697ZM912.539 433.43C920.449 433.479 931.436 433.332 940.957 432.014L941.445 436.506C931.582 438.41 921.035 438.508 913.271 438.508L912.539 433.43ZM1002.33 403.059V412.775H1008.34V417.902H1002.33V427.912H996.084V403.059H1002.33ZM989.883 405.646C989.834 417.414 982.412 425.373 969.082 428.889L966.592 423.957C976.553 421.491 982.046 416.56 983.096 410.627H968.789V405.646H989.883ZM1002.33 429.572V446.955H973.281V429.572H1002.33ZM979.482 434.602V442.072H996.182V434.602H979.482ZM1027.09 409.113C1027.04 415.07 1030.12 420.539 1037.25 422.736L1033.97 427.619C1029.19 425.959 1025.94 422.883 1024.11 418.879C1022.11 423.518 1018.52 427.18 1013.17 428.986L1009.9 424.006C1017.52 421.564 1020.74 415.607 1020.79 409.406V405.354H1027.09V409.113ZM1047.74 403.059V429.084H1041.54V416.291H1033.19V411.213H1041.54V403.059H1047.74ZM1032.56 430.256C1042.03 430.256 1047.84 433.43 1047.89 438.898C1047.84 444.367 1042.03 447.492 1032.56 447.492C1023.09 447.492 1017.28 444.367 1017.28 438.898C1017.28 433.43 1023.09 430.256 1032.56 430.256ZM1032.56 435.09C1026.65 435.09 1023.48 436.359 1023.48 438.898C1023.48 441.34 1026.65 442.658 1032.56 442.658C1038.47 442.658 1041.69 441.34 1041.69 438.898C1041.69 436.359 1038.47 435.09 1032.56 435.09ZM1084.76 405.842C1084.76 417.316 1080.02 425.373 1067.76 430.402L1064.79 425.91C1069.91 423.933 1073.38 421.467 1075.58 418.488L1066.01 419.562L1065.27 414.631L1077.87 413.996C1078.16 412.995 1078.38 411.97 1078.55 410.871H1067.13V405.842H1084.76ZM1103.21 403.107V429.133H1097.3V418.488H1093.3V428.742H1087.44V403.889H1093.3V413.41H1097.3V403.107H1103.21ZM1103.21 430.744V447.004H1072.89V430.744H1103.21ZM1079.04 435.725V442.023H1097.11V435.725H1079.04ZM1134.32 406.428V411.408H1130.65V422.15C1132.49 422.028 1134.29 421.833 1136.03 421.613L1136.46 426.203C1127.43 427.766 1117.03 427.961 1109.66 427.961L1108.97 422.932L1113.76 422.883V411.408H1110.15V406.428H1134.32ZM1145.45 403.107V429.914H1139.2V403.107H1145.45ZM1130.36 430.744C1139.88 430.744 1145.69 433.723 1145.74 439.045C1145.69 444.416 1139.88 447.492 1130.36 447.492C1120.89 447.492 1115.08 444.416 1115.08 439.045C1115.08 433.723 1120.89 430.744 1130.36 430.744ZM1130.36 435.48C1124.4 435.48 1121.28 436.652 1121.28 439.045C1121.28 441.486 1124.4 442.756 1130.36 442.756C1136.32 442.756 1139.44 441.486 1139.49 439.045C1139.44 436.652 1136.32 435.48 1130.36 435.48ZM1119.72 422.785L1124.65 422.541V411.408H1119.72V422.785Z" fill="white"/>
<path d="M917.195 577.704H944.915C947.915 577.704 950.315 577.104 952.835 575.304C953.795 574.584 954.755 574.224 955.835 574.224C956.915 574.224 959.915 574.704 959.915 578.424C959.915 582.144 955.835 583.824 953.315 584.784C949.355 586.344 946.595 586.344 943.235 586.344H913.475C906.755 586.344 903.995 583.584 903.995 576.864V567.744C902.195 566.664 901.115 565.224 901.115 562.944C901.115 559.224 904.115 558.744 905.195 558.744C906.275 558.744 907.235 559.104 908.195 559.824C910.715 561.624 913.115 562.224 916.115 562.224H942.635C944.915 562.224 945.515 561.624 945.515 559.344V558.264C945.515 555.984 944.915 555.384 942.635 555.384H919.235C915.875 555.384 912.995 555.384 909.035 553.824C906.515 552.864 902.555 551.424 902.555 547.464C902.555 543.744 905.555 543.264 906.635 543.264C907.715 543.264 908.675 543.624 909.635 544.344C912.155 546.144 914.555 546.744 917.555 546.744H947.435C954.155 546.744 955.835 549.504 955.835 556.224V561.384C955.835 568.104 954.155 570.864 947.435 570.864H914.315V574.704C914.315 576.984 914.915 577.704 917.195 577.704ZM921.755 505.824V531.024C921.755 534.864 920.075 536.784 916.835 536.784C914.675 536.784 913.115 536.064 912.155 534.624L892.475 536.664C891.875 536.784 891.275 536.784 890.675 536.784C885.755 536.784 882.995 533.904 882.995 527.184V505.464C882.995 501.744 884.675 499.824 888.155 499.824C891.635 499.824 893.315 501.744 893.315 505.464V510.144H911.435V505.824C911.435 502.104 913.115 500.184 916.595 500.184C920.075 500.184 921.755 502.104 921.755 505.824ZM955.835 498.984V534.744C955.835 538.464 954.155 540.384 950.675 540.384C947.195 540.384 945.515 538.464 945.515 534.744V530.904H932.435C929.195 530.904 927.275 529.824 927.275 526.584C927.275 523.344 929.195 522.264 932.435 522.264H945.515V516.024H932.435C929.195 516.024 927.275 514.944 927.275 511.704C927.275 508.464 929.195 507.384 932.435 507.384H945.515V500.184C945.515 495.504 943.715 492.024 938.075 490.104C935.315 489.144 933.515 487.824 933.515 485.064C933.515 482.304 935.555 480.264 938.315 480.264C941.795 480.264 948.035 483.864 950.915 486.144C954.155 488.424 955.835 492.744 955.835 498.984ZM893.315 518.904V525.024C893.315 527.304 894.035 528.024 895.475 528.024H896.195L911.435 526.584V518.904H893.315ZM980.642 554.184H1000.2V544.344H984.722C981.362 544.344 976.322 544.224 972.362 542.664C969.842 541.704 965.882 540.264 965.882 536.304C965.882 532.584 968.882 532.104 969.962 532.104C971.042 532.104 972.002 532.464 972.962 533.184C975.482 534.984 977.882 535.584 980.882 535.584H1035.24C1038.48 535.584 1040.4 536.664 1040.4 539.904C1040.4 543.144 1038.48 544.344 1035.24 544.344H1010.52V554.184H1029.48C1032.72 554.184 1034.64 555.264 1034.64 558.504C1034.64 561.744 1032.72 562.824 1029.48 562.824H1023.6V578.184H1029.48C1032.72 578.184 1034.64 579.264 1034.64 582.504C1034.64 585.744 1032.72 586.824 1029.48 586.824H980.642C977.402 586.824 975.482 585.744 975.482 582.504C975.482 579.264 977.402 578.184 980.642 578.184H985.682V562.824H980.642C977.402 562.824 975.482 561.744 975.482 558.504C975.482 555.264 977.402 554.184 980.642 554.184ZM984.722 518.904C994.442 513.384 1000.2 505.344 1001.88 494.784C1002.48 490.944 1004.28 489.024 1007.28 489.024C1010.52 489.024 1012.08 490.944 1012.08 493.824C1012.08 494.424 1011.96 495.144 1011.84 495.984C1011.24 499.704 1010.4 503.184 1009.08 506.544C1012.92 511.704 1019.88 516.984 1025.16 519.144C1028.4 520.584 1028.16 522.384 1028.16 523.224C1028.16 523.824 1028.04 524.424 1027.8 525.024C1026.84 527.304 1024.68 527.424 1023.72 527.424C1022.76 527.424 1021.68 527.184 1020.6 526.824C1014.96 524.544 1009.2 519.864 1004.52 514.944C1000.8 519.864 996.002 523.944 989.282 526.824C988.202 527.304 987.122 527.544 986.162 527.544C985.202 527.544 983.042 527.304 982.082 525.024C981.842 524.424 981.722 523.944 981.722 523.344C981.722 522.384 981.722 520.704 984.722 518.904ZM996.002 562.824V578.184H1013.28V562.824H996.002Z" fill="white"/>
<path d="M925.361 470.184L926.281 473.455H929.271C930.421 473.455 930.891 475.142 929.971 475.911L927.551 477.931L928.471 481.202C928.821 482.453 927.581 483.497 926.651 482.717L924.231 480.697L921.811 482.717C920.881 483.486 919.641 482.453 919.991 481.202L920.911 477.931L918.491 475.911C917.561 475.142 918.041 473.455 919.191 473.455H922.181L923.101 470.184C923.451 468.933 925.001 468.933 925.351 470.184H925.361Z" fill="white"/>
</g>
<defs>
<filter id="filter0_f_1746_16582" x="385.139" y="790.325" width="2025.84" height="564.197" filterUnits="userSpaceOnUse" color-interpolation-filters="sRGB">
<feFlood flood-opacity="0" result="BackgroundImageFix"/>
<feBlend mode="normal" in="SourceGraphic" in2="BackgroundImageFix" result="shape"/>
<feGaussianBlur stdDeviation="3" result="effect1_foregroundBlur_1746_16582"/>
</filter>
<filter id="filter1_f_1746_16582" x="1270" y="222" width="34" height="34" filterUnits="userSpaceOnUse" color-interpolation-filters="sRGB">
<feFlood flood-opacity="0" result="BackgroundImageFix"/>
<feBlend mode="normal" in="SourceGraphic" in2="BackgroundImageFix" result="shape"/>
<feGaussianBlur stdDeviation="1" result="effect1_foregroundBlur_1746_16582"/>
</filter>
<filter id="filter2_f_1746_16582" x="1512" y="168" width="34" height="34" filterUnits="userSpaceOnUse" color-interpolation-filters="sRGB">
<feFlood flood-opacity="0" result="BackgroundImageFix"/>
<feBlend mode="normal" in="SourceGraphic" in2="BackgroundImageFix" result="shape"/>
<feGaussianBlur stdDeviation="1" result="effect1_foregroundBlur_1746_16582"/>
</filter>
<filter id="filter3_f_1746_16582" x="731" y="245" width="40" height="39" filterUnits="userSpaceOnUse" color-interpolation-filters="sRGB">
<feFlood flood-opacity="0" result="BackgroundImageFix"/>
<feBlend mode="normal" in="SourceGraphic" in2="BackgroundImageFix" result="shape"/>
<feGaussianBlur stdDeviation="2" result="effect1_foregroundBlur_1746_16582"/>
</filter>
<filter id="filter4_f_1746_16582" x="734" y="248" width="34" height="34" filterUnits="userSpaceOnUse" color-interpolation-filters="sRGB">
<feFlood flood-opacity="0" result="BackgroundImageFix"/>
<feBlend mode="normal" in="SourceGraphic" in2="BackgroundImageFix" result="shape"/>
<feGaussianBlur stdDeviation="1" result="effect1_foregroundBlur_1746_16582"/>
</filter>
<filter id="filter5_f_1746_16582" x="982" y="306" width="23" height="23" filterUnits="userSpaceOnUse" color-interpolation-filters="sRGB">
<feFlood flood-opacity="0" result="BackgroundImageFix"/>
<feBlend mode="normal" in="SourceGraphic" in2="BackgroundImageFix" result="shape"/>
<feGaussianBlur stdDeviation="2" result="effect1_foregroundBlur_1746_16582"/>
</filter>
<filter id="filter6_f_1746_16582" x="1352" y="596" width="23" height="23" filterUnits="userSpaceOnUse" color-interpolation-filters="sRGB">
<feFlood flood-opacity="0" result="BackgroundImageFix"/>
<feBlend mode="normal" in="SourceGraphic" in2="BackgroundImageFix" result="shape"/>
<feGaussianBlur stdDeviation="2" result="effect1_foregroundBlur_1746_16582"/>
</filter>
<filter id="filter7_f_1746_16582" x="1772" y="316" width="23" height="23" filterUnits="userSpaceOnUse" color-interpolation-filters="sRGB">
<feFlood flood-opacity="0" result="BackgroundImageFix"/>
<feBlend mode="normal" in="SourceGraphic" in2="BackgroundImageFix" result="shape"/>
<feGaussianBlur stdDeviation="2" result="effect1_foregroundBlur_1746_16582"/>
</filter>
<filter id="filter8_f_1746_16582" x="462" y="166" width="23" height="23" filterUnits="userSpaceOnUse" color-interpolation-filters="sRGB">
<feFlood flood-opacity="0" result="BackgroundImageFix"/>
<feBlend mode="normal" in="SourceGraphic" in2="BackgroundImageFix" result="shape"/>
<feGaussianBlur stdDeviation="2" result="effect1_foregroundBlur_1746_16582"/>
</filter>
<filter id="filter9_f_1746_16582" x="702" y="616" width="23" height="23" filterUnits="userSpaceOnUse" color-interpolation-filters="sRGB">
<feFlood flood-opacity="0" result="BackgroundImageFix"/>
<feBlend mode="normal" in="SourceGraphic" in2="BackgroundImageFix" result="shape"/>
<feGaussianBlur stdDeviation="2" result="effect1_foregroundBlur_1746_16582"/>
</filter>
<filter id="filter10_f_1746_16582" x="124" y="138" width="34" height="34" filterUnits="userSpaceOnUse" color-interpolation-filters="sRGB">
<feFlood flood-opacity="0" result="BackgroundImageFix"/>
<feBlend mode="normal" in="SourceGraphic" in2="BackgroundImageFix" result="shape"/>
<feGaussianBlur stdDeviation="1" result="effect1_foregroundBlur_1746_16582"/>
</filter>
<filter id="filter11_f_1746_16582" x="465" y="452" width="40" height="39" filterUnits="userSpaceOnUse" color-interpolation-filters="sRGB">
<feFlood flood-opacity="0" result="BackgroundImageFix"/>
<feBlend mode="normal" in="SourceGraphic" in2="BackgroundImageFix" result="shape"/>
<feGaussianBlur stdDeviation="2" result="effect1_foregroundBlur_1746_16582"/>
</filter>
<filter id="filter12_f_1746_16582" x="468" y="455" width="34" height="34" filterUnits="userSpaceOnUse" color-interpolation-filters="sRGB">
<feFlood flood-opacity="0" result="BackgroundImageFix"/>
<feBlend mode="normal" in="SourceGraphic" in2="BackgroundImageFix" result="shape"/>
<feGaussianBlur stdDeviation="1" result="effect1_foregroundBlur_1746_16582"/>
</filter>
<filter id="filter13_f_1746_16582" x="74" y="398" width="34" height="34" filterUnits="userSpaceOnUse" color-interpolation-filters="sRGB">
<feFlood flood-opacity="0" result="BackgroundImageFix"/>
<feBlend mode="normal" in="SourceGraphic" in2="BackgroundImageFix" result="shape"/>
<feGaussianBlur stdDeviation="1" result="effect1_foregroundBlur_1746_16582"/>
</filter>
<filter id="filter14_f_1746_16582" x="274" y="528" width="24" height="24" filterUnits="userSpaceOnUse" color-interpolation-filters="sRGB">
<feFlood flood-opacity="0" result="BackgroundImageFix"/>
<feBlend mode="normal" in="SourceGraphic" in2="BackgroundImageFix" result="shape"/>
<feGaussianBlur stdDeviation="1" result="effect1_foregroundBlur_1746_16582"/>
</filter>
<filter id="filter15_f_1746_16582" x="694" y="428" width="24" height="24" filterUnits="userSpaceOnUse" color-interpolation-filters="sRGB">
<feFlood flood-opacity="0" result="BackgroundImageFix"/>
<feBlend mode="normal" in="SourceGraphic" in2="BackgroundImageFix" result="shape"/>
<feGaussianBlur stdDeviation="1" result="effect1_foregroundBlur_1746_16582"/>
</filter>
<filter id="filter16_f_1746_16582" x="1234" y="318" width="24" height="24" filterUnits="userSpaceOnUse" color-interpolation-filters="sRGB">
<feFlood flood-opacity="0" result="BackgroundImageFix"/>
<feBlend mode="normal" in="SourceGraphic" in2="BackgroundImageFix" result="shape"/>
<feGaussianBlur stdDeviation="1" result="effect1_foregroundBlur_1746_16582"/>
</filter>
<filter id="filter17_f_1746_16582" x="1864" y="548" width="24" height="24" filterUnits="userSpaceOnUse" color-interpolation-filters="sRGB">
<feFlood flood-opacity="0" result="BackgroundImageFix"/>
<feBlend mode="normal" in="SourceGraphic" in2="BackgroundImageFix" result="shape"/>
<feGaussianBlur stdDeviation="1" result="effect1_foregroundBlur_1746_16582"/>
</filter>
<filter id="filter18_f_1746_16582" x="1484" y="548" width="24" height="24" filterUnits="userSpaceOnUse" color-interpolation-filters="sRGB">
<feFlood flood-opacity="0" result="BackgroundImageFix"/>
<feBlend mode="normal" in="SourceGraphic" in2="BackgroundImageFix" result="shape"/>
<feGaussianBlur stdDeviation="1" result="effect1_foregroundBlur_1746_16582"/>
</filter>
<filter id="filter19_f_1746_16582" x="686" y="895" width="574" height="130" filterUnits="userSpaceOnUse" color-interpolation-filters="sRGB">
<feFlood flood-opacity="0" result="BackgroundImageFix"/>
<feBlend mode="normal" in="SourceGraphic" in2="BackgroundImageFix" result="shape"/>
<feGaussianBlur stdDeviation="10" result="effect1_foregroundBlur_1746_16582"/>
</filter>
<filter id="filter20_f_1746_16582" x="1154" y="408" width="128.08" height="129.64" filterUnits="userSpaceOnUse" color-interpolation-filters="sRGB">
<feFlood flood-opacity="0" result="BackgroundImageFix"/>
<feBlend mode="normal" in="SourceGraphic" in2="BackgroundImageFix" result="shape"/>
<feGaussianBlur stdDeviation="3" result="effect1_foregroundBlur_1746_16582"/>
</filter>
<filter id="filter21_i_1746_16582" x="1160" y="414" width="116.08" height="117.64" filterUnits="userSpaceOnUse" color-interpolation-filters="sRGB">
<feFlood flood-opacity="0" result="BackgroundImageFix"/>
<feBlend mode="normal" in="SourceGraphic" in2="BackgroundImageFix" result="shape"/>
<feColorMatrix in="SourceAlpha" type="matrix" values="0 0 0 0 0 0 0 0 0 0 0 0 0 0 0 0 0 0 127 0" result="hardAlpha"/>
<feOffset/>
<feGaussianBlur stdDeviation="5"/>
<feComposite in2="hardAlpha" operator="arithmetic" k2="-1" k3="1"/>
<feColorMatrix type="matrix" values="0 0 0 0 1 0 0 0 0 1 0 0 0 0 1 0 0 0 0.25 0"/>
<feBlend mode="normal" in2="shape" result="effect1_innerShadow_1746_16582"/>
</filter>
<filter id="filter22_f_1746_16582" x="1245.02" y="459.65" width="28.9077" height="27.958" filterUnits="userSpaceOnUse" color-interpolation-filters="sRGB">
<feFlood flood-opacity="0" result="BackgroundImageFix"/>
<feBlend mode="normal" in="SourceGraphic" in2="BackgroundImageFix" result="shape"/>
<feGaussianBlur stdDeviation="1" result="effect1_foregroundBlur_1746_16582"/>
</filter>
<filter id="filter23_f_1746_16582" x="399.12" y="393.03" width="238.56" height="119.64" filterUnits="userSpaceOnUse" color-interpolation-filters="sRGB">
<feFlood flood-opacity="0" result="BackgroundImageFix"/>
<feBlend mode="normal" in="SourceGraphic" in2="BackgroundImageFix" result="shape"/>
<feGaussianBlur stdDeviation="2.4" result="effect1_foregroundBlur_1746_16582"/>
</filter>
<filter id="filter24_f_1746_16582" x="527.76" y="398" width="165.28" height="85.18" filterUnits="userSpaceOnUse" color-interpolation-filters="sRGB">
<feFlood flood-opacity="0" result="BackgroundImageFix"/>
<feBlend mode="normal" in="SourceGraphic" in2="BackgroundImageFix" result="shape"/>
<feGaussianBlur stdDeviation="2.5" result="effect1_foregroundBlur_1746_16582"/>
</filter>
<filter id="filter25_f_1746_16582" x="1371" y="584.938" width="130.12" height="57.545" filterUnits="userSpaceOnUse" color-interpolation-filters="sRGB">
<feFlood flood-opacity="0" result="BackgroundImageFix"/>
<feBlend mode="normal" in="SourceGraphic" in2="BackgroundImageFix" result="shape"/>
<feGaussianBlur stdDeviation="2" result="effect1_foregroundBlur_1746_16582"/>
</filter>
<filter id="filter26_f_1746_16582" x="226" y="548.312" width="142.12" height="69.545" filterUnits="userSpaceOnUse" color-interpolation-filters="sRGB">
<feFlood flood-opacity="0" result="BackgroundImageFix"/>
<feBlend mode="normal" in="SourceGraphic" in2="BackgroundImageFix" result="shape"/>
<feGaussianBlur stdDeviation="5" result="effect1_foregroundBlur_1746_16582"/>
</filter>
<linearGradient id="paint0_linear_1746_16582" x1="960" y1="0" x2="960" y2="1080" gradientUnits="userSpaceOnUse">
<stop stop-color="#0B1F3E"/>
<stop offset="1" stop-color="#1971F4"/>
</linearGradient>
<linearGradient id="paint1_linear_1746_16582" x1="963" y1="864.316" x2="963" y2="1334.86" gradientUnits="userSpaceOnUse">
<stop stop-color="#C59762"/>
<stop offset="1" stop-color="#5F492F"/>
</linearGradient>
<linearGradient id="paint2_linear_1746_16582" x1="973" y1="915" x2="973" y2="1005" gradientUnits="userSpaceOnUse">
<stop/>
<stop offset="1" stop-opacity="0.3"/>
</linearGradient>
<linearGradient id="paint3_linear_1746_16582" x1="1218.04" y1="414" x2="1218.04" y2="531.64" gradientUnits="userSpaceOnUse">
<stop stop-color="#FFF496"/>
<stop offset="0.74" stop-color="#DA8547"/>
<stop offset="0.99" stop-color="#E37627"/>
</linearGradient>
<clipPath id="clip0_1746_16582">
<rect width="1920" height="1080" fill="white"/>
</clipPath>
<clipPath id="clip1_1746_16582">
<rect width="32" height="31" fill="white" transform="translate(1271 223)"/>
</clipPath>
<clipPath id="clip2_1746_16582">
<rect width="32" height="31" fill="white" transform="translate(1513 169)"/>
</clipPath>
<clipPath id="clip3_1746_16582">
<rect width="32" height="31" fill="white" transform="translate(735 249)"/>
</clipPath>
<clipPath id="clip4_1746_16582">
<rect width="23" height="22" fill="white" transform="translate(982 306)"/>
</clipPath>
<clipPath id="clip5_1746_16582">
<rect width="23" height="22" fill="white" transform="translate(1352 596)"/>
</clipPath>
<clipPath id="clip6_1746_16582">
<rect width="23" height="22" fill="white" transform="translate(1772 316)"/>
</clipPath>
<clipPath id="clip7_1746_16582">
<rect width="23" height="22" fill="white" transform="translate(462 166)"/>
</clipPath>
<clipPath id="clip8_1746_16582">
<rect width="23" height="22" fill="white" transform="translate(702 616)"/>
</clipPath>
<clipPath id="clip9_1746_16582">
<rect width="32" height="31" fill="white" transform="translate(125 139)"/>
</clipPath>
<clipPath id="clip10_1746_16582">
<rect width="32" height="31" fill="white" transform="translate(469 456)"/>
</clipPath>
<clipPath id="clip11_1746_16582">
<rect width="32" height="31" fill="white" transform="translate(75 399)"/>
</clipPath>
<clipPath id="clip12_1746_16582">
<rect width="22" height="22" fill="white" transform="translate(275 529)"/>
</clipPath>
<clipPath id="clip13_1746_16582">
<rect width="22" height="22" fill="white" transform="translate(695 429)"/>
</clipPath>
<clipPath id="clip14_1746_16582">
<rect width="22" height="22" fill="white" transform="translate(1235 319)"/>
</clipPath>
<clipPath id="clip15_1746_16582">
<rect width="22" height="22" fill="white" transform="translate(1865 549)"/>
</clipPath>
<clipPath id="clip16_1746_16582">
<rect width="22" height="22" fill="white" transform="translate(1485 549)"/>
</clipPath>
<clipPath id="clip17_1746_16582">
<rect width="483.642" height="271.926" fill="white" transform="translate(717 695)"/>
</clipPath>
</defs>
</svg>
